{"glyphs":{"0":{"ha":899,"x_min":-8,"x_max":914,"o":"m 913 501 q 913 494 913 500 q 914 479 914 489 q 912 456 914 469 q 904 429 910 444 q 885 397 897 414 q 854 364 873 380 q 809 335 830 345 q 771 323 787 326 q 735 278 751 302 q 705 227 719 254 l 700 220 q 646 185 674 210 q 592 131 618 161 q 544 68 566 101 q 511 8 523 36 l 509 1 l 501 -1 q 490 -5 500 -3 q 464 -8 481 -8 q 417 1 444 -8 q 358 37 389 9 q 327 71 338 54 q 310 103 316 88 q 267 135 289 121 q 224 164 245 149 l 218 165 l 215 171 q 134 279 182 234 q 21 354 86 325 l 14 358 l 11 367 q 10 371 10 368 q 9 382 9 374 q 11 404 9 391 q 20 433 13 416 q -4 475 1 455 q -8 509 -8 496 q -7 518 -8 515 q -7 524 -7 522 l -5 530 l 0 533 q 46 577 23 551 q 90 633 70 603 q 127 695 111 663 q 154 758 144 728 l 160 768 q 254 866 218 811 q 310 989 291 921 l 313 997 l 321 1002 q 332 1004 322 1002 q 358 1007 342 1007 q 402 1002 382 1007 q 438 987 422 996 q 466 967 454 979 q 488 943 478 956 q 521 947 506 947 q 537 947 531 947 q 545 946 543 946 l 553 943 l 557 935 q 622 820 583 869 q 714 734 661 771 l 721 728 q 754 667 735 698 q 797 608 774 637 q 847 555 820 580 q 904 511 873 530 l 909 509 l 913 501 m 526 857 l 518 851 q 472 808 493 830 q 435 762 452 786 q 498 693 471 731 q 545 611 526 655 q 578 651 559 635 q 613 677 596 667 q 642 691 630 687 q 657 694 654 694 q 667 691 663 694 q 671 681 671 687 q 661 668 671 670 q 650 663 661 667 q 625 648 640 659 q 594 620 610 637 q 566 578 578 603 q 614 528 590 553 q 661 476 639 503 q 700 420 682 449 q 729 361 718 391 q 739 358 732 359 q 753 357 745 357 q 805 372 781 357 q 845 407 828 387 q 871 448 861 427 q 880 478 880 468 l 880 488 q 822 534 849 507 q 772 590 795 560 q 729 650 749 619 q 692 710 709 681 q 598 798 638 747 q 529 914 557 849 q 520 914 525 914 q 507 913 515 914 q 521 880 517 894 q 525 867 525 865 l 526 857 m 528 562 l 526 568 q 481 660 509 618 q 416 734 454 701 q 394 689 404 713 q 376 640 384 665 l 372 632 q 336 600 354 619 q 302 557 318 581 q 271 510 286 534 q 245 461 256 485 q 376 364 302 398 l 383 358 q 409 323 396 342 q 439 288 422 305 q 471 328 456 307 q 500 370 486 349 q 503 376 502 373 q 505 382 504 378 l 509 387 l 514 390 q 625 472 579 422 q 581 521 604 498 q 533 559 557 544 l 528 562 m 328 636 q 337 645 332 640 q 346 654 342 649 q 401 770 365 716 q 490 871 437 825 q 478 898 488 881 q 451 931 468 915 q 410 960 433 948 q 355 972 386 972 q 346 972 350 972 q 339 971 342 971 q 207 764 302 846 q 256 744 235 756 q 291 718 277 731 q 312 695 304 705 q 319 685 319 686 q 321 677 321 684 q 317 668 321 672 q 307 664 313 664 q 297 669 299 664 q 289 679 296 670 q 267 698 281 688 q 232 719 253 709 q 182 733 210 729 l 179 728 q 150 667 166 698 q 113 608 133 637 q 71 555 94 580 q 25 511 49 530 q 26 493 25 505 q 37 467 28 481 q 45 477 41 472 q 54 489 49 483 q 94 523 73 511 q 133 541 115 535 q 162 547 150 546 q 176 547 174 547 l 186 546 l 191 538 q 224 488 205 509 q 272 568 245 530 q 328 636 298 606 m 703 338 l 700 345 q 677 394 692 368 q 646 446 663 420 q 605 409 627 426 q 558 378 583 391 q 604 349 585 366 q 634 318 623 332 q 651 292 646 303 q 656 281 656 281 q 657 275 657 278 q 653 266 657 271 q 643 261 648 261 q 636 263 640 261 q 632 269 633 265 q 626 280 631 270 q 607 303 620 290 q 575 330 595 316 q 529 353 556 344 q 493 296 515 325 q 445 242 471 268 q 391 195 419 216 q 338 160 363 174 q 336 154 336 157 q 336 146 336 150 q 345 109 336 131 q 380 62 353 87 q 427 32 406 39 q 464 25 449 25 q 475 26 470 25 q 484 28 480 26 q 520 92 498 62 q 569 149 543 122 q 623 200 595 176 q 677 245 650 224 q 702 287 688 267 q 729 326 715 307 q 714 331 720 328 q 708 335 708 334 l 703 338 m 310 183 l 317 186 q 367 219 342 199 q 415 262 392 239 q 385 299 399 281 q 358 336 372 317 q 167 513 242 393 q 151 511 161 513 q 129 504 140 509 q 104 490 117 498 q 79 467 92 481 q 49 415 56 439 q 43 380 43 392 q 148 311 102 351 q 228 216 193 271 q 255 261 239 243 q 286 292 271 280 q 311 309 300 304 q 322 314 321 314 q 325 315 323 314 q 328 315 326 315 q 337 311 333 315 q 342 300 342 307 q 335 290 342 292 q 324 283 334 290 q 302 265 315 277 q 275 233 289 252 q 253 186 262 213 q 276 169 261 176 q 302 151 290 161 q 305 170 302 163 q 309 178 307 176 l 310 183 z "},"1":{"ha":557,"x_min":-12,"x_max":521,"o":"m 521 896 l 518 886 q 498 812 505 848 q 492 741 492 776 q 495 686 492 713 q 507 632 498 659 l 509 623 q 492 550 497 585 q 486 481 486 515 q 510 347 486 412 l 511 342 l 509 336 q 484 195 484 266 q 507 57 484 127 l 510 52 l 507 45 q 500 33 507 43 q 477 10 493 22 q 435 -12 461 -2 q 368 -22 408 -22 q 302 -12 328 -22 q 261 13 276 -1 q 240 38 246 26 q 233 50 234 49 l 231 56 l 233 62 q 256 139 249 100 q 264 220 264 178 q 261 277 264 248 q 250 336 258 306 l 250 345 q 264 412 260 379 q 268 479 268 446 q 248 615 268 549 l 244 621 l 248 627 q 261 670 256 648 q 271 714 267 692 q 207 658 236 688 q 158 602 178 629 l 155 596 l 149 593 q 141 591 147 593 q 125 590 136 590 q 90 599 113 590 q 44 625 66 608 q 4 669 21 642 q -12 730 -12 695 q -6 768 -12 753 q 1 783 0 782 l 5 789 l 11 790 q 73 818 39 800 q 142 861 107 836 q 207 913 176 885 q 260 970 238 941 l 264 977 l 272 978 q 280 978 274 978 q 297 975 287 977 q 320 967 307 972 q 346 953 332 962 q 386 957 362 957 q 442 949 418 957 q 482 930 466 941 q 507 912 498 920 q 515 903 515 903 l 521 896 m 482 888 q 469 899 477 892 q 449 910 460 905 q 421 920 437 916 q 386 924 405 924 q 352 920 367 924 q 325 912 336 917 q 306 903 314 908 q 294 895 298 898 q 311 777 311 836 q 290 647 311 711 q 321 654 306 652 q 350 656 336 656 q 409 651 389 656 q 435 641 428 646 q 441 631 441 635 q 440 628 440 627 q 436 617 440 621 q 427 614 432 614 q 423 615 425 614 q 415 619 421 617 q 396 622 408 621 q 363 624 384 624 q 326 621 346 624 q 285 608 306 618 q 298 544 293 576 q 302 478 302 511 q 299 420 302 450 q 289 361 295 391 q 309 363 299 362 q 329 364 319 364 q 366 362 346 364 q 405 357 387 361 q 435 348 422 353 q 447 335 447 342 q 444 327 447 330 q 438 323 441 324 q 433 322 435 322 q 429 322 430 322 q 394 329 414 326 q 353 332 374 332 q 319 330 336 332 q 288 326 303 328 q 296 271 293 298 q 298 218 298 244 q 291 136 298 176 q 268 56 283 96 q 277 43 271 51 q 296 29 284 36 q 325 17 307 22 q 368 12 343 12 q 412 17 393 12 q 443 28 430 22 q 462 42 455 35 q 472 54 469 50 q 455 125 460 90 q 450 196 450 160 q 475 343 450 270 q 453 482 453 408 q 473 628 453 551 q 457 742 457 684 q 482 888 457 815 m 279 946 q 228 892 260 920 q 160 839 196 864 q 89 793 125 813 q 26 764 54 774 q 22 752 24 760 q 20 733 20 744 q 34 684 20 705 q 66 650 47 663 q 103 629 85 636 q 129 623 121 623 l 138 623 q 164 655 149 638 q 197 689 179 672 q 235 723 215 707 q 277 754 255 740 l 277 775 q 258 895 277 834 l 257 903 l 262 909 q 272 919 266 914 q 284 928 277 923 q 301 939 292 933 q 289 943 294 942 q 279 946 283 945 z "},"2":{"ha":699,"x_min":16,"x_max":673,"o":"m 673 500 l 672 492 l 664 488 q 478 314 540 423 l 472 307 q 419 272 446 292 q 367 228 392 252 q 420 216 395 219 q 469 212 444 212 q 525 218 496 212 q 586 233 553 223 l 595 236 l 603 231 q 611 223 604 230 q 629 202 619 216 q 646 165 638 188 q 656 113 654 143 q 648 58 656 81 q 630 20 640 35 q 612 -4 621 4 q 602 -14 603 -12 l 595 -20 l 585 -17 q 519 -1 548 -6 q 465 4 491 4 q 414 0 439 4 q 357 -14 389 -4 l 347 -14 q 279 -2 307 -7 q 224 4 251 4 q 177 0 201 4 q 122 -16 153 -5 l 115 -18 l 110 -16 q 97 -9 109 -15 q 71 12 85 -3 q 47 52 58 26 q 36 115 36 77 q 48 175 36 151 q 75 215 60 199 q 71 232 72 224 q 71 248 71 240 q 74 274 71 264 q 78 285 77 283 l 81 292 l 87 294 q 141 325 114 306 q 192 366 168 343 q 240 415 217 389 q 281 467 262 441 q 284 472 283 470 q 288 478 286 475 l 290 484 l 296 486 q 377 534 340 507 q 444 597 414 562 q 389 662 419 631 q 326 715 358 692 q 253 641 286 681 q 201 566 220 601 l 199 559 l 192 557 q 181 553 191 555 q 155 550 171 550 q 111 558 137 550 q 58 595 85 567 q 24 644 33 620 q 16 686 16 667 q 19 715 16 704 q 24 728 22 726 l 26 733 l 32 736 q 90 771 58 749 q 153 822 122 794 q 212 881 184 850 q 257 943 239 913 l 262 951 l 271 953 q 275 954 272 953 q 279 954 277 954 q 285 954 281 954 q 316 949 296 954 q 359 929 336 945 q 414 942 393 942 q 443 938 431 942 q 456 933 454 933 l 461 930 l 464 925 q 497 865 475 898 q 545 800 518 832 q 604 740 572 768 q 665 694 635 712 l 672 690 l 673 682 l 673 672 q 669 640 673 661 q 648 595 665 620 q 669 546 664 568 q 673 511 673 523 l 673 500 m 515 519 q 509 519 512 519 q 505 520 507 519 q 500 521 502 520 l 492 522 l 488 530 q 477 550 482 540 q 464 570 471 560 q 407 515 439 539 q 340 471 376 490 q 384 440 366 457 q 412 408 401 423 q 427 381 422 393 q 432 370 431 370 q 433 368 432 368 q 433 366 433 367 q 429 356 433 360 q 418 351 425 351 q 406 360 409 351 q 395 384 403 370 q 368 415 387 398 q 309 449 349 433 l 306 443 q 263 391 286 417 q 214 341 240 365 q 161 298 189 318 q 107 267 134 279 q 105 259 106 263 q 104 249 104 255 q 112 212 104 234 q 144 167 119 191 q 193 133 170 141 q 231 125 216 125 q 239 125 236 125 q 245 126 242 125 q 286 188 262 158 q 337 245 309 218 q 394 294 365 272 q 452 334 424 317 q 640 513 516 446 q 637 535 640 521 q 625 567 635 550 q 594 542 610 551 q 564 528 578 533 q 537 521 549 523 q 515 519 524 519 m 269 98 l 262 96 q 253 94 261 96 q 231 92 245 92 q 182 101 211 92 q 121 143 153 111 q 103 162 111 153 q 89 182 95 172 q 76 154 81 170 q 71 117 71 138 q 76 75 71 92 q 89 45 81 57 q 105 27 97 34 q 118 18 113 21 q 173 33 149 28 q 220 37 197 37 q 280 34 245 37 q 350 18 315 30 q 409 33 382 28 q 464 37 437 37 q 520 33 491 37 q 586 18 549 28 q 595 30 590 22 q 606 48 601 37 q 615 73 612 59 q 619 104 619 87 q 616 140 619 125 q 607 168 612 156 q 597 187 602 179 q 587 200 591 195 q 525 185 553 189 q 469 180 496 180 q 421 184 446 180 q 366 196 396 187 q 374 162 372 178 q 376 132 376 146 q 372 81 376 98 q 363 57 368 64 q 354 50 358 50 q 349 50 349 50 q 339 54 342 50 q 335 64 335 58 q 336 67 335 65 q 340 75 338 69 q 343 91 342 81 q 345 121 345 102 q 342 154 345 136 q 330 191 339 172 q 298 149 313 171 q 272 106 283 127 l 269 98 m 393 808 q 386 843 393 821 q 358 886 379 865 q 334 906 346 899 q 312 917 323 913 q 293 921 302 920 q 279 922 285 922 q 235 863 263 894 q 175 802 208 831 q 110 749 142 773 q 50 711 77 725 q 48 703 49 708 q 47 690 47 698 q 59 651 47 671 q 87 617 71 632 q 123 592 104 602 q 158 582 142 582 q 170 583 165 582 q 178 585 174 583 q 216 643 192 612 q 270 704 241 674 q 331 759 299 733 q 393 803 363 785 l 393 808 m 425 793 l 424 783 l 415 779 q 353 737 385 763 q 399 696 376 719 q 443 650 422 674 q 481 601 463 626 q 511 553 499 576 q 527 554 517 553 q 549 558 537 555 q 574 570 561 562 q 602 590 588 577 q 622 615 614 603 q 633 638 629 627 q 639 658 637 649 q 642 672 641 667 q 583 718 614 689 q 524 779 552 746 q 472 845 495 812 q 436 907 448 879 q 428 909 433 908 q 416 909 423 909 q 387 904 403 909 q 408 877 400 890 q 419 850 415 863 q 424 826 423 837 q 425 807 425 815 l 425 793 z "},"3":{"ha":633,"x_min":22,"x_max":611,"o":"m 606 357 q 608 348 606 355 q 611 325 611 340 q 608 296 611 313 q 596 262 604 280 q 605 232 602 247 q 607 205 607 217 q 604 176 607 189 q 597 152 601 162 q 591 137 594 142 q 587 131 588 132 l 583 122 l 574 122 q 512 117 539 121 q 460 105 484 113 q 413 84 436 97 q 366 53 391 72 l 355 49 q 345 48 350 49 q 335 46 340 47 q 281 38 304 42 q 238 28 258 35 q 197 9 218 21 q 153 -22 177 -3 l 147 -26 l 140 -26 q 126 -24 139 -26 q 97 -12 114 -22 q 61 18 79 -2 q 31 75 43 39 q 24 101 25 89 q 22 125 22 113 q 27 161 22 144 q 37 189 32 178 q 48 208 43 201 q 54 215 53 214 l 58 220 l 65 220 q 117 222 95 220 q 159 231 138 224 q 200 247 179 237 q 250 273 222 257 l 260 282 l 271 285 q 298 285 286 285 q 323 286 311 285 q 262 322 292 307 q 204 346 231 338 l 201 347 q 166 361 184 351 q 127 389 147 370 q 102 419 112 404 q 88 449 93 435 q 81 477 83 464 q 79 501 79 491 q 80 516 79 511 q 81 524 81 522 l 83 530 l 89 533 q 133 559 115 547 q 166 587 151 572 q 195 622 181 602 q 225 668 208 641 q 228 674 227 671 q 231 681 229 677 l 233 686 l 239 689 q 259 700 250 694 q 277 711 268 705 q 207 715 241 715 q 157 713 181 715 q 114 705 134 710 l 107 704 l 102 707 q 91 713 100 707 q 71 733 81 720 q 52 769 60 747 q 43 823 43 791 q 55 893 43 867 q 83 936 68 920 q 112 956 98 951 q 126 962 125 962 l 132 964 l 139 961 q 186 942 159 951 q 245 927 214 933 q 309 917 276 920 q 374 913 342 913 q 409 914 391 913 q 441 918 426 915 l 450 920 l 457 914 q 470 898 458 913 q 489 854 481 884 q 548 811 527 836 q 578 762 568 785 q 590 722 588 739 q 591 704 591 705 l 590 694 l 583 690 q 530 655 553 672 q 490 620 507 639 q 459 579 473 602 q 432 529 446 557 l 427 522 l 397 501 q 442 460 418 481 q 491 422 466 440 q 543 391 517 405 q 595 368 570 376 l 603 366 l 606 357 m 564 254 q 532 305 550 289 q 504 326 515 321 q 456 294 478 307 q 411 272 433 281 q 362 259 388 264 q 306 253 337 255 q 327 217 319 235 q 339 183 335 199 q 345 155 343 168 q 346 134 346 142 q 343 116 346 122 q 332 110 341 110 q 319 121 319 112 l 319 123 q 319 136 319 124 q 313 165 318 147 q 297 204 308 182 q 267 245 286 225 l 261 241 q 211 215 233 226 q 169 198 189 205 q 125 189 148 191 q 72 186 102 186 q 61 164 66 180 q 56 127 56 149 q 67 70 56 93 q 93 33 79 47 q 120 14 107 20 q 138 7 134 7 q 187 41 165 28 q 233 60 210 53 q 283 72 256 67 q 349 82 311 76 q 399 114 375 101 q 447 135 422 127 q 500 148 472 143 q 562 154 528 152 q 570 175 566 161 q 574 205 574 188 q 571 229 574 216 q 564 254 569 241 m 461 811 q 453 859 461 840 q 439 885 444 878 q 412 881 427 882 q 383 880 398 880 q 315 884 351 880 q 247 895 280 888 q 183 910 213 901 q 131 929 153 919 q 117 921 125 927 q 99 902 108 914 q 84 872 90 890 q 78 827 78 853 q 82 790 78 806 q 91 765 85 775 q 103 748 97 754 q 113 739 109 742 q 201 747 150 747 q 314 738 256 747 q 418 711 372 728 q 429 722 422 715 q 443 740 436 729 q 455 765 450 750 q 461 798 460 779 l 461 811 m 494 794 q 483 743 492 764 q 461 708 473 722 q 441 687 450 694 q 431 679 431 680 l 422 673 l 414 677 q 371 692 394 686 q 323 703 347 699 l 283 676 q 329 649 311 665 q 359 619 347 633 q 376 593 371 604 q 382 582 381 583 q 382 579 382 581 q 383 576 383 578 q 379 567 383 572 q 370 562 376 562 q 363 565 366 562 q 358 571 359 567 q 351 581 357 572 q 333 604 345 591 q 301 630 320 616 q 254 652 281 644 q 252 646 252 648 q 219 599 234 618 q 190 564 205 580 q 156 535 174 549 q 111 507 137 522 q 111 503 111 505 q 110 497 110 500 q 114 474 110 488 q 126 446 117 460 q 148 416 134 431 q 180 392 161 402 l 180 408 q 198 479 180 450 q 240 528 216 509 q 287 556 264 547 q 322 566 311 566 q 337 564 332 566 q 343 562 342 562 l 349 561 l 353 555 q 363 541 357 548 q 375 526 369 534 q 390 536 382 532 q 404 547 397 541 q 433 599 418 576 q 465 641 448 622 q 506 677 483 660 q 558 713 528 694 q 554 731 557 719 q 544 757 551 743 q 525 786 537 771 q 494 814 513 802 l 494 811 l 494 794 m 576 342 q 510 375 546 353 q 440 424 474 397 q 376 479 406 450 q 330 532 347 507 l 323 532 q 297 524 315 532 q 261 501 279 517 q 228 462 242 486 q 214 406 214 438 q 220 375 214 385 q 292 343 253 364 q 368 294 332 321 q 430 317 401 302 q 493 358 458 332 l 500 364 l 509 361 q 515 358 509 360 q 531 349 522 355 q 551 333 540 343 q 574 307 563 323 q 576 319 575 313 q 576 330 576 325 l 576 342 z "},"4":{"ha":714,"x_min":-14,"x_max":690,"o":"m 690 400 q 684 356 690 375 q 669 323 677 336 q 653 302 661 309 q 646 294 646 295 l 639 289 l 629 290 q 623 291 626 290 q 616 293 620 292 q 608 244 610 268 q 606 195 606 220 q 629 57 606 127 l 632 52 l 629 45 q 622 33 629 43 q 600 10 615 22 q 557 -12 584 -2 q 490 -22 530 -22 q 424 -12 450 -22 q 383 13 398 -1 q 362 38 368 26 q 355 50 356 49 l 353 56 l 355 62 q 379 139 371 100 q 387 220 387 178 q 386 250 387 234 q 382 282 384 267 q 352 287 366 284 q 325 289 338 289 q 267 282 295 289 q 199 260 238 275 l 193 257 l 186 260 q 179 262 185 260 q 165 270 174 264 q 146 286 157 276 q 127 311 136 296 q 59 330 86 313 q 16 370 32 348 q -7 413 -1 392 q -14 444 -14 435 q -13 456 -14 452 q -12 461 -12 460 l -11 468 l -5 472 q 39 514 18 490 q 79 566 60 538 q 115 624 98 594 q 144 684 132 654 q 146 691 146 688 q 147 697 147 694 l 154 707 q 247 805 210 751 q 304 928 283 860 l 306 936 l 314 940 q 326 943 315 940 q 354 946 336 946 q 414 933 390 946 q 453 950 429 943 q 509 957 476 957 q 564 949 540 957 q 604 930 588 941 q 629 912 621 920 q 637 903 637 903 l 643 896 l 640 886 q 621 812 628 848 q 614 741 614 776 q 631 632 614 685 l 631 623 q 617 570 622 596 q 610 521 612 545 q 618 524 612 521 l 627 526 l 633 522 q 642 515 634 522 q 660 497 650 509 q 679 464 670 484 q 690 415 688 444 l 690 400 m 472 817 q 462 842 470 825 q 439 873 454 858 q 402 901 424 889 q 350 913 380 913 q 339 912 344 913 q 330 911 334 912 q 199 703 292 790 q 244 685 225 696 q 276 661 264 673 q 295 640 289 649 q 302 629 302 630 q 304 623 304 628 q 301 613 304 617 q 292 608 297 608 q 281 614 284 608 q 274 623 281 614 q 254 641 267 631 q 220 661 240 651 q 174 673 200 670 q 172 670 172 672 q 171 667 172 669 q 141 607 158 637 q 104 548 124 576 q 63 495 85 519 q 18 452 41 470 l 18 446 q 24 422 18 439 q 45 388 31 406 q 82 358 59 371 q 139 345 105 345 q 160 347 151 345 q 174 351 168 349 q 196 413 182 382 q 229 475 211 445 q 268 532 247 505 q 310 582 288 559 q 319 590 314 586 q 328 600 323 595 q 472 817 368 724 m 200 332 l 195 328 q 186 322 193 326 q 165 314 179 318 q 180 298 173 303 q 193 290 188 292 q 263 313 234 306 q 325 319 293 319 q 415 311 363 319 q 477 329 450 322 q 532 335 504 335 q 575 332 553 335 q 628 322 598 328 q 636 334 631 326 q 646 351 642 341 q 654 375 650 361 q 657 404 657 388 q 653 438 657 423 q 642 463 648 452 q 630 481 636 474 q 619 492 623 488 q 556 473 583 479 q 503 467 530 467 q 466 469 485 467 q 422 476 446 472 q 433 441 431 458 q 436 408 436 424 q 433 367 436 381 q 426 347 430 353 q 417 341 421 341 q 411 340 413 340 q 402 345 405 340 q 399 354 399 350 q 401 362 400 356 q 404 376 403 367 q 404 399 404 385 q 400 436 404 416 q 383 479 396 456 q 380 479 381 479 q 376 478 378 478 q 315 465 340 469 q 267 461 290 461 l 254 461 q 223 398 237 429 q 201 339 209 366 l 200 332 m 505 806 l 498 799 q 462 764 479 782 q 431 728 446 747 q 424 687 429 707 q 412 647 419 667 q 443 654 428 652 q 472 656 458 656 q 531 651 511 656 q 557 641 550 646 q 563 631 564 635 q 562 628 562 627 q 562 625 562 626 q 561 623 561 624 q 549 614 557 614 q 545 615 547 614 q 537 619 543 617 q 518 622 531 621 q 485 624 506 624 q 448 621 468 624 q 407 608 428 618 q 418 558 414 583 q 424 507 422 533 q 463 499 446 502 q 498 497 481 497 q 536 499 517 497 q 575 509 554 502 q 596 628 579 566 q 579 742 579 683 q 604 888 579 815 q 591 899 600 892 q 571 910 583 905 q 544 920 559 916 q 509 924 528 924 q 449 913 473 924 q 476 880 465 898 q 493 847 487 863 q 502 822 499 832 q 504 814 504 812 l 505 806 m 532 304 q 482 299 507 304 q 424 281 457 293 l 416 281 q 420 250 418 265 q 421 221 421 235 q 390 56 421 134 q 400 43 393 51 q 418 29 407 36 q 448 17 430 22 q 490 12 465 12 q 534 17 515 12 q 565 28 552 22 q 584 42 577 35 q 595 54 591 50 q 578 125 583 90 q 572 196 572 160 q 585 300 572 248 q 557 303 570 302 q 532 304 545 304 m 370 624 q 362 606 366 614 q 357 587 359 597 l 351 579 q 312 542 332 564 q 273 493 292 519 q 324 497 298 493 q 386 514 351 501 l 389 514 q 382 565 387 540 q 370 615 377 590 l 370 624 z "},"5":{"ha":696,"x_min":28,"x_max":668,"o":"m 668 157 l 665 150 q 663 144 665 149 q 656 133 661 140 q 643 117 651 125 q 623 102 635 109 q 612 57 620 76 q 596 25 604 38 q 580 5 587 12 q 572 -3 573 -2 l 566 -8 l 557 -5 q 494 10 522 5 q 440 16 466 16 q 392 11 416 16 q 336 -4 367 5 l 326 -4 q 262 9 288 3 q 210 16 235 16 q 165 11 188 16 q 111 -5 142 6 l 104 -7 l 98 -4 q 86 2 97 -4 q 62 23 75 8 q 38 62 49 37 q 28 126 28 87 q 38 182 28 159 q 61 221 48 205 q 84 244 73 237 q 96 253 94 252 l 109 253 q 162 237 139 241 q 208 232 184 232 q 255 234 228 232 q 313 248 282 237 l 318 250 l 323 248 q 385 229 357 235 q 440 222 412 222 q 449 283 446 251 q 452 349 452 315 q 452 368 452 358 q 450 387 452 378 l 443 387 q 406 384 425 387 q 358 374 386 381 l 349 374 q 311 382 327 378 q 281 390 294 386 q 257 395 268 393 q 233 397 245 397 q 199 393 218 397 q 154 382 180 389 l 147 379 l 140 382 q 130 388 140 382 q 108 408 120 394 q 86 444 96 421 q 77 500 77 466 q 77 510 77 505 q 78 519 77 515 q 54 547 61 533 q 47 562 47 560 l 45 568 l 47 575 q 65 657 59 608 q 72 757 72 706 q 69 822 72 791 q 58 880 66 853 l 56 889 l 61 896 q 68 904 62 897 q 88 921 75 912 q 122 938 102 930 q 171 946 142 946 q 212 940 194 946 q 243 926 229 935 q 263 927 251 926 q 290 930 275 928 q 318 937 304 932 q 345 950 332 942 l 355 950 q 407 939 385 943 q 447 935 429 935 q 498 942 473 935 q 561 964 524 949 l 570 968 l 578 964 q 587 957 578 963 q 605 938 595 951 q 625 905 615 926 q 637 856 634 885 q 638 846 637 850 q 639 838 639 842 q 632 793 639 812 q 618 760 626 774 q 604 739 611 747 q 596 730 597 731 l 589 725 l 581 726 q 530 736 551 732 q 492 739 509 739 q 445 733 468 739 q 387 713 422 726 l 379 711 q 325 719 349 718 q 285 721 302 721 q 276 721 281 721 q 268 720 272 721 q 279 604 268 656 q 310 606 293 604 q 346 614 326 608 l 357 614 q 419 592 393 600 q 468 585 444 585 q 510 589 488 585 q 562 602 532 593 l 571 603 l 578 597 q 584 592 578 597 q 596 576 589 587 q 610 551 604 566 q 621 515 617 536 q 650 493 640 504 q 661 481 660 482 l 667 473 l 664 465 q 650 394 654 433 q 646 317 646 355 q 651 234 646 274 q 667 163 656 194 l 668 157 m 590 122 q 586 155 589 140 q 577 180 583 170 q 567 198 572 191 q 558 210 562 205 q 498 195 525 199 q 446 191 472 191 q 399 194 422 191 q 346 205 375 197 q 353 173 351 189 q 355 143 355 157 q 351 92 355 109 q 342 68 347 75 q 334 61 338 61 q 329 61 330 61 q 319 65 323 61 q 315 74 315 69 q 317 77 315 75 q 320 85 318 79 q 323 102 322 91 q 325 131 325 113 q 321 168 325 147 q 307 211 317 188 q 300 210 304 210 q 249 201 271 204 q 207 199 227 199 q 159 203 183 199 q 103 220 134 208 q 91 209 98 216 q 78 190 84 201 q 67 163 71 178 q 62 127 62 147 q 67 85 62 103 q 80 56 73 68 q 95 38 87 45 q 107 28 102 31 q 161 43 138 38 q 207 47 184 47 q 262 41 234 47 q 330 29 290 35 q 387 43 361 39 q 439 47 413 47 q 494 43 466 47 q 557 28 522 38 q 567 40 561 33 q 577 60 572 48 q 586 87 583 72 q 590 122 590 102 m 435 476 l 439 484 q 446 492 439 484 q 466 509 452 500 q 500 526 479 518 q 550 533 522 533 q 583 529 567 533 q 572 553 578 544 q 561 568 566 563 q 510 557 530 561 q 472 553 490 553 q 430 558 451 553 q 376 574 408 563 q 385 519 385 544 q 379 467 385 485 q 369 442 374 449 q 358 434 363 435 q 354 435 353 434 q 345 439 349 435 q 340 449 340 444 q 342 452 340 450 q 347 461 345 455 q 351 480 349 468 q 353 513 353 492 q 350 544 353 527 q 339 579 347 560 q 292 575 311 579 q 257 571 273 571 q 234 572 245 571 q 212 577 223 574 q 186 585 200 580 q 155 596 172 589 q 142 586 150 593 q 127 567 135 578 q 115 538 120 555 q 110 501 110 522 q 115 464 110 479 q 126 439 119 449 q 139 422 132 429 q 150 414 146 416 q 196 425 177 421 q 232 428 215 428 q 256 426 244 428 q 281 420 268 424 q 313 413 295 417 q 354 406 330 409 q 402 415 381 412 q 441 418 422 418 l 447 418 q 443 444 445 431 q 437 468 441 456 l 435 476 m 289 885 l 286 876 q 274 817 278 849 q 268 751 269 785 q 278 753 271 753 q 321 751 296 753 q 379 743 346 749 q 441 763 416 757 q 492 770 466 770 q 530 767 509 770 q 578 760 551 765 q 595 788 585 768 q 606 836 606 807 q 601 873 606 857 q 590 901 596 889 q 576 921 583 913 q 566 932 570 928 q 531 919 546 924 q 503 911 516 914 q 478 906 490 907 q 454 904 467 904 q 380 913 425 904 q 394 873 390 892 q 397 838 397 854 q 394 799 397 812 q 388 780 391 785 q 380 774 384 774 q 375 774 376 774 q 365 777 370 774 q 361 786 361 781 q 362 788 361 787 q 364 793 363 789 q 366 804 365 796 q 367 825 367 811 q 361 866 367 843 q 342 914 356 888 q 339 913 340 914 q 336 913 338 913 q 305 904 319 907 q 279 899 291 901 q 282 895 281 896 q 283 893 283 893 l 289 885 m 237 726 q 241 806 237 767 q 254 878 245 845 q 242 887 250 882 q 224 898 235 893 q 200 907 214 903 q 170 911 186 911 q 139 907 153 911 q 116 899 126 904 q 100 889 106 895 q 89 880 93 884 q 98 824 95 855 q 102 760 102 793 q 100 707 102 733 q 95 655 98 680 q 87 609 92 631 q 78 570 83 587 q 86 555 80 564 q 104 587 94 574 q 124 609 114 600 q 141 622 134 618 q 150 628 149 627 l 155 629 l 163 627 q 211 610 192 615 q 248 604 230 604 q 240 663 242 631 q 237 726 237 694 m 636 158 q 621 232 626 190 q 615 318 615 274 q 620 396 615 358 q 633 465 624 434 q 622 476 629 470 q 604 487 614 482 q 578 496 593 492 q 547 500 564 500 q 517 496 530 500 q 495 488 505 493 q 478 478 485 483 q 468 469 472 473 q 477 414 474 444 q 481 350 481 384 q 478 285 481 317 q 471 224 476 253 q 511 231 490 226 q 557 244 532 236 l 566 245 l 572 241 q 580 235 573 241 q 595 216 587 229 q 611 185 604 204 q 623 142 619 167 q 631 150 628 146 q 636 158 634 155 z "},"6":{"ha":724,"x_min":-9,"x_max":736,"o":"m 618 107 l 610 106 q 533 86 573 100 q 454 53 493 72 q 382 12 416 35 q 325 -33 348 -10 l 313 -39 q 300 -38 311 -39 q 276 -33 290 -38 q 244 -17 262 -28 q 211 16 227 -6 q 186 8 199 11 q 155 5 172 5 q 92 13 119 5 q 47 33 66 21 q 18 58 29 44 q 2 82 7 71 q -6 101 -4 94 q -8 109 -8 109 l -9 115 l -5 121 q 49 236 31 174 q 66 370 66 297 l 66 386 l 69 395 q 111 504 98 449 q 123 615 123 559 q 123 637 123 627 q 122 660 123 648 l 121 665 l 125 671 q 193 890 193 772 q 193 910 193 900 q 192 929 193 920 l 191 939 l 197 945 q 204 949 198 945 q 221 958 210 953 q 248 966 232 962 q 285 970 264 970 q 358 957 328 970 q 407 928 389 943 q 435 899 426 912 q 444 885 444 886 l 449 876 l 443 868 q 379 654 379 763 l 379 636 q 453 557 413 587 q 547 509 494 526 l 553 507 l 557 501 q 594 453 577 472 q 630 421 612 434 q 671 398 649 408 q 722 379 693 389 l 730 376 l 733 368 q 734 359 733 367 q 736 338 736 351 q 730 295 736 320 q 705 241 724 270 q 671 204 690 218 q 637 182 653 191 l 637 178 q 631 134 637 151 q 624 115 625 117 l 618 107 m 408 876 q 395 893 404 883 q 370 912 385 903 q 334 928 355 922 q 286 935 313 935 q 249 930 263 935 q 227 922 234 926 q 227 906 227 913 q 228 892 228 899 q 214 783 228 834 q 171 682 199 731 l 189 682 q 237 676 216 682 q 275 664 259 671 q 299 651 290 656 q 309 644 308 645 q 312 640 311 642 q 314 633 314 637 q 309 623 314 627 q 300 619 304 619 q 292 623 296 619 q 284 627 291 623 q 264 636 277 631 q 233 645 251 641 q 193 648 215 648 q 175 648 184 648 q 157 646 166 647 q 157 629 157 637 q 158 612 158 621 q 110 401 158 504 q 155 394 129 400 q 204 381 181 389 q 243 364 227 373 q 260 347 260 355 q 256 338 260 342 q 245 334 252 334 q 243 334 243 334 q 240 335 242 335 q 177 358 215 349 q 102 368 139 367 q 82 229 100 292 q 26 109 64 165 q 36 92 28 103 q 57 68 43 80 q 96 47 72 56 q 157 39 120 39 q 203 48 186 39 q 227 64 220 58 q 224 90 224 77 q 224 115 224 102 q 239 234 224 176 q 289 345 255 291 q 287 369 287 357 q 286 395 286 382 q 346 624 286 507 q 345 638 345 631 q 345 652 345 644 q 408 876 345 769 m 257 114 q 261 60 257 87 l 262 53 l 258 47 q 254 42 257 46 q 243 32 250 37 q 280 2 262 9 q 307 -5 298 -5 q 366 40 331 18 q 439 82 400 62 q 519 116 478 101 q 596 136 559 130 q 600 152 598 142 q 602 175 602 162 q 591 227 602 204 q 567 264 581 249 q 540 289 553 280 q 521 298 527 297 q 468 261 499 280 q 401 227 436 243 q 329 197 366 210 q 261 176 293 184 q 257 114 257 144 m 703 350 q 659 366 678 358 q 622 386 640 374 q 588 414 605 397 q 550 456 570 431 q 528 407 542 427 q 501 374 514 387 q 477 354 488 361 q 467 347 467 348 q 460 345 464 345 q 450 349 454 345 q 446 359 446 353 q 453 370 446 367 q 463 377 454 370 q 483 399 471 385 q 505 434 494 413 q 522 482 517 454 q 479 503 500 492 q 439 527 458 514 q 403 555 420 540 q 370 591 386 571 q 319 419 326 503 q 381 377 353 401 q 435 321 409 353 l 475 306 q 491 317 484 311 q 505 329 498 323 l 513 335 l 521 334 q 533 329 519 334 q 566 313 547 325 q 605 278 585 300 q 632 220 624 256 q 660 245 647 230 q 682 277 673 260 q 697 310 692 294 q 703 340 703 327 l 703 350 m 421 290 l 412 296 q 366 347 389 326 q 319 382 343 368 q 323 343 319 361 l 321 332 q 290 273 303 302 q 269 211 277 243 q 355 241 310 222 q 441 283 401 260 l 421 290 z "},"7":{"ha":589,"x_min":-3,"x_max":602,"o":"m 602 781 l 596 774 q 562 720 576 745 q 540 670 549 694 q 528 618 532 645 q 524 559 524 591 l 522 550 q 489 494 503 520 q 468 444 476 469 q 455 393 459 418 q 452 340 452 368 q 452 328 452 334 q 453 315 453 321 l 453 309 l 450 304 q 368 57 368 193 l 368 31 l 364 25 q 357 18 363 24 q 340 7 351 13 q 312 -4 329 1 q 272 -9 295 -9 q 205 0 233 -9 q 158 22 177 9 q 128 52 139 36 q 112 81 117 68 q 105 102 106 94 q 103 109 103 111 l 103 115 l 107 119 q 173 237 150 173 q 201 378 196 300 l 201 383 l 204 386 q 236 445 223 417 q 256 499 249 472 q 266 555 263 526 q 269 618 269 584 l 269 625 l 273 629 q 303 671 290 651 q 323 710 315 690 l 302 703 l 293 701 q 233 712 258 708 q 183 717 207 717 q 137 712 160 717 q 83 694 114 707 l 77 692 l 71 693 q 58 699 70 693 q 33 721 47 705 q 8 762 20 736 q -3 828 -3 788 q 7 881 -3 859 q 27 919 16 904 q 48 942 39 935 q 60 950 58 949 l 65 953 l 71 951 q 120 938 99 942 q 163 933 142 933 q 212 937 186 933 q 271 953 237 941 l 282 953 q 339 937 313 942 q 390 932 365 932 q 447 938 418 932 q 510 957 475 944 l 518 960 l 525 954 q 533 947 526 954 q 551 926 541 940 q 569 890 560 912 q 579 838 577 868 l 579 828 l 579 819 q 593 800 589 808 q 599 790 597 791 l 602 781 m 411 725 q 366 721 388 725 q 347 680 358 700 q 321 636 336 659 q 376 629 351 636 q 417 613 400 622 q 444 597 435 604 q 454 589 454 589 q 458 578 458 585 q 454 568 458 572 q 444 564 450 564 q 436 568 441 564 q 428 574 435 569 q 405 586 420 580 q 370 598 391 593 q 325 603 350 603 q 315 602 319 603 q 304 602 310 602 q 300 545 304 571 q 290 494 297 519 q 273 444 283 469 q 245 390 262 418 q 290 379 264 387 q 337 362 315 372 q 375 342 359 353 q 390 323 390 332 q 386 314 390 317 q 378 311 382 311 q 373 312 374 311 q 370 313 372 313 q 309 340 346 328 q 233 357 272 353 q 138 104 221 210 q 145 87 138 100 q 167 60 152 74 q 208 36 182 47 q 272 25 233 25 q 312 32 298 25 q 334 43 327 39 l 334 56 q 355 194 334 129 q 418 319 376 260 q 421 384 418 354 q 432 443 424 414 q 454 501 440 471 q 490 566 469 531 q 496 640 490 606 q 517 707 502 673 q 459 720 485 715 q 411 725 434 725 m 546 836 q 541 869 545 854 q 532 893 537 883 q 521 911 526 904 q 511 922 515 918 q 449 905 477 911 q 396 899 422 899 q 353 902 375 899 q 304 913 330 905 q 314 874 312 893 q 317 840 317 856 q 313 794 317 810 q 306 772 310 779 q 298 766 302 766 q 293 766 294 766 q 283 771 288 766 q 279 781 279 775 q 280 783 279 781 q 283 789 281 785 q 285 803 284 794 q 286 829 286 812 q 282 869 286 847 q 267 916 278 892 q 263 915 264 916 q 260 914 262 914 q 207 904 229 907 q 164 900 185 900 q 120 904 142 900 q 68 918 98 909 q 56 907 62 915 q 44 888 50 900 q 35 861 39 876 q 31 825 31 845 q 36 783 31 801 q 50 754 42 766 q 66 736 58 743 q 78 728 74 730 q 133 745 109 739 q 180 750 157 750 q 232 746 204 750 q 296 734 259 741 q 354 751 328 746 q 410 757 381 757 q 459 753 433 757 q 517 741 485 749 q 525 753 520 745 q 535 771 530 761 q 543 796 539 782 q 546 827 546 810 l 546 836 z "},"8":{"ha":733,"x_min":11,"x_max":713,"o":"m 692 700 l 685 693 q 637 635 661 668 q 595 566 614 602 q 563 493 576 530 q 543 427 549 457 l 543 419 l 538 415 l 536 414 l 542 410 l 547 400 q 605 271 566 329 q 701 167 644 213 l 707 163 l 708 157 l 708 146 q 708 143 708 144 q 707 139 708 141 q 711 123 709 132 q 713 106 713 115 l 713 96 q 706 48 713 68 q 689 16 699 28 q 672 -2 680 4 q 664 -8 665 -7 l 657 -14 l 648 -12 q 616 -3 631 -7 q 586 1 601 0 q 569 -1 578 0 q 551 -1 561 -1 q 526 1 536 -1 q 507 7 515 3 q 482 0 494 3 q 456 -8 469 -3 l 446 -8 q 391 1 417 -3 q 339 4 365 4 q 268 -2 303 4 q 196 -22 233 -9 l 191 -25 l 183 -22 q 175 -20 182 -22 q 159 -11 168 -18 q 139 7 149 -5 q 121 40 128 20 q 64 64 85 46 q 31 102 42 82 q 15 140 19 122 q 11 164 11 158 l 11 175 l 17 184 q 62 235 38 204 q 108 302 86 266 q 147 376 130 338 q 172 449 164 414 l 174 458 l 180 461 q 189 465 184 463 q 198 468 193 466 q 211 471 203 469 l 186 493 l 180 503 q 130 629 163 573 q 40 732 96 685 l 35 737 l 35 746 q 38 764 35 747 q 57 803 41 780 q 55 819 56 810 q 54 838 54 827 q 64 894 54 873 q 86 927 74 916 q 108 943 98 939 q 119 947 118 947 l 125 950 l 132 947 q 185 933 159 938 q 239 929 212 929 q 302 933 269 929 q 370 949 336 937 l 382 949 q 441 932 414 938 q 496 926 469 926 q 551 932 523 926 q 614 951 579 939 l 623 954 l 631 949 q 639 944 631 948 q 657 928 647 939 q 675 896 667 916 q 685 846 684 876 q 679 797 685 817 q 665 764 673 777 q 677 743 672 753 q 685 725 682 733 q 689 712 688 717 q 690 708 690 707 l 692 700 m 135 708 l 127 711 q 120 713 126 711 q 106 719 115 714 q 88 733 98 724 q 71 757 79 742 q 69 753 69 755 q 69 750 69 751 q 203 543 165 665 q 241 579 222 566 q 278 600 261 593 q 306 608 294 606 q 321 611 317 610 q 330 608 326 611 q 335 600 334 604 q 331 588 335 591 q 320 583 328 585 q 303 579 313 581 q 280 571 292 578 q 252 549 267 564 q 220 509 237 535 q 361 304 313 428 q 390 327 373 315 q 425 349 407 339 q 459 366 443 359 q 488 372 476 372 q 498 368 493 372 q 503 358 503 363 q 489 347 503 355 q 456 328 475 339 q 415 303 437 317 q 379 275 394 290 q 465 163 432 222 q 514 40 498 105 q 528 34 519 37 q 549 32 536 32 q 610 48 585 32 q 649 86 635 65 q 670 124 664 106 q 676 146 676 142 q 578 254 618 194 q 518 387 538 314 q 424 489 463 431 q 358 624 385 547 q 306 676 329 648 q 264 737 283 704 q 202 729 233 735 q 140 711 172 723 l 135 708 m 650 843 q 646 874 650 862 q 636 895 642 886 q 625 908 630 903 q 616 917 619 913 q 553 900 581 905 q 498 895 526 895 q 454 898 477 895 q 404 908 431 901 q 413 875 410 890 q 415 847 415 860 q 411 811 415 823 q 402 794 407 800 q 390 789 397 788 q 380 794 385 789 q 376 804 376 799 q 378 807 376 806 q 380 812 379 808 q 383 822 382 815 q 385 840 385 828 q 381 871 385 853 q 366 913 377 888 q 335 903 352 907 q 301 898 319 899 q 268 896 284 897 q 240 896 252 896 q 184 900 212 896 q 127 914 156 905 q 116 906 123 911 q 103 894 109 902 q 92 872 96 886 q 87 838 87 859 q 93 792 87 810 q 107 765 99 775 q 123 751 115 755 q 135 745 131 747 q 279 771 207 771 q 335 767 307 771 q 393 758 363 764 q 438 771 417 766 q 479 778 458 776 l 486 804 l 489 812 l 496 817 q 511 822 497 817 q 546 828 524 828 q 602 818 579 828 q 642 793 625 808 q 647 813 645 802 q 650 843 650 825 m 244 437 q 235 439 239 439 q 227 439 231 439 q 211 437 217 439 q 200 435 204 436 q 174 365 192 404 q 134 290 157 327 q 87 220 112 252 q 41 167 62 187 q 45 148 41 163 q 62 116 50 133 q 97 84 75 98 q 157 71 120 71 q 183 75 172 71 q 200 82 195 79 q 216 140 205 109 q 243 203 228 171 q 278 267 259 235 q 318 323 297 298 q 284 384 302 355 q 244 437 266 412 m 515 437 q 536 505 522 468 q 569 578 550 542 q 612 649 589 615 q 659 708 635 683 q 648 730 656 716 q 626 759 640 745 q 591 784 612 773 q 542 794 570 794 q 525 793 532 794 q 514 790 518 791 q 497 741 508 767 q 473 687 487 714 q 442 633 458 660 q 408 583 425 606 q 453 502 428 538 q 511 435 479 465 l 515 437 m 468 82 q 463 66 466 72 q 456 59 460 61 q 450 56 453 56 q 446 56 448 56 q 436 60 440 56 q 432 71 432 65 q 433 74 432 73 q 436 79 435 75 q 439 89 437 82 q 440 107 440 95 q 438 130 440 117 q 429 161 435 144 q 423 170 426 165 q 418 178 420 174 q 416 176 416 176 l 415 176 q 355 166 384 170 q 297 163 326 163 q 277 163 287 163 q 258 164 268 163 q 240 116 248 140 q 229 71 233 92 l 228 65 l 222 61 q 217 57 222 60 q 204 49 213 54 q 184 41 196 45 q 158 37 173 38 q 176 20 167 25 q 192 11 185 14 q 264 31 229 24 q 335 37 299 37 q 391 34 363 37 q 449 25 418 31 l 482 35 q 475 58 479 46 q 468 82 472 71 m 390 725 q 345 732 367 729 q 302 737 323 736 q 338 688 318 711 q 382 644 358 664 l 387 637 l 395 615 q 434 677 416 645 q 467 743 453 709 q 400 725 437 737 l 390 725 m 340 271 l 332 293 q 301 247 315 271 q 273 196 286 222 l 294 196 q 344 199 318 196 q 396 207 370 201 q 371 236 385 222 q 345 264 358 250 l 340 271 m 636 25 q 642 23 640 24 q 648 22 645 22 q 661 37 654 28 q 673 61 668 45 q 657 42 666 51 q 636 25 648 33 z "},"9":{"ha":694,"x_min":4,"x_max":715,"o":"m 715 793 l 708 786 q 606 554 616 680 l 602 545 q 530 420 555 483 q 501 289 505 357 l 501 283 l 497 278 q 422 158 448 223 q 392 20 396 94 l 392 12 l 387 8 q 380 3 386 7 q 365 -6 375 -1 q 341 -15 355 -11 q 309 -18 327 -18 q 274 -15 293 -18 q 233 -3 254 -11 q 177 32 197 12 q 148 70 157 52 q 137 100 138 87 q 135 114 135 113 l 135 121 l 139 125 q 210 222 182 169 q 252 343 238 276 q 207 404 233 373 q 152 461 181 434 q 92 512 123 489 q 35 549 62 534 l 28 551 l 25 557 q 20 569 24 558 q 17 596 17 579 q 19 621 17 608 q 29 650 22 634 q 22 665 25 656 q 16 682 19 673 q 6 714 9 699 q 4 743 4 730 q 9 780 4 764 q 20 807 14 796 q 32 823 26 818 q 39 829 37 829 l 45 833 l 50 833 q 107 837 81 833 q 158 848 134 840 q 205 867 182 855 q 253 896 228 879 l 257 899 l 264 899 q 325 902 299 899 q 372 912 351 905 q 414 930 394 919 q 460 960 435 942 l 467 965 l 475 962 q 481 960 475 962 q 495 953 487 958 q 514 939 504 947 q 534 916 525 930 l 539 916 q 598 907 572 916 q 644 886 625 899 q 676 858 663 873 q 698 830 690 843 q 709 809 706 818 q 713 802 713 801 l 715 793 m 561 867 q 570 835 568 850 q 572 807 572 821 q 569 776 572 790 q 563 752 566 762 q 556 737 559 743 q 553 730 553 731 l 547 724 l 538 724 q 491 721 510 722 q 456 717 471 720 q 410 648 434 679 q 464 635 440 645 q 503 616 487 626 q 528 597 519 606 q 538 589 537 589 q 542 579 542 585 q 537 570 542 574 q 528 566 533 566 q 518 570 522 566 q 508 577 517 570 q 483 593 499 585 q 442 608 466 602 q 389 615 418 615 q 301 382 376 491 q 343 368 319 377 q 389 347 367 358 q 425 324 410 336 q 440 304 440 313 q 435 295 440 298 q 427 292 431 292 q 422 292 425 292 q 418 294 419 293 q 392 312 407 303 q 360 328 377 320 q 325 341 343 335 q 288 350 306 347 q 170 107 260 206 q 176 89 170 103 q 198 58 182 74 q 241 28 214 41 q 309 16 267 16 q 340 20 328 16 q 358 29 352 25 q 391 173 363 106 q 468 296 418 239 q 498 432 472 367 q 572 561 524 497 q 676 800 585 692 q 664 819 673 806 q 640 844 655 831 q 604 867 625 857 q 555 879 583 877 l 561 867 m 529 856 q 515 885 523 873 q 499 906 507 898 q 484 920 491 915 q 471 928 476 925 q 432 902 450 913 q 395 884 414 891 q 352 872 376 876 q 297 867 329 868 q 318 832 310 849 q 330 800 326 815 q 335 771 334 784 q 336 749 336 758 q 334 729 336 735 q 323 724 332 724 q 314 726 318 724 q 310 734 310 729 l 310 737 q 309 753 310 741 q 303 782 308 765 q 288 820 298 800 q 258 860 277 840 l 253 856 q 208 833 230 844 q 162 816 185 823 q 113 804 138 808 q 57 800 87 800 q 44 780 52 793 q 37 743 37 766 q 49 683 37 707 q 76 644 61 659 q 105 622 91 629 q 122 614 119 614 q 176 650 151 636 q 225 672 201 663 q 277 685 250 680 q 339 694 304 690 q 386 724 365 713 q 429 742 408 735 q 473 751 450 748 q 528 755 497 754 q 534 775 531 763 q 538 806 538 788 q 535 830 538 817 q 529 856 533 842 m 131 579 l 125 581 q 117 582 123 581 q 100 586 111 583 q 78 597 90 590 q 53 618 65 605 q 51 604 51 610 q 50 593 50 598 q 51 582 50 587 q 53 574 52 577 q 106 539 78 560 q 162 493 134 518 q 216 439 190 467 q 261 383 241 411 q 303 450 285 416 q 334 519 321 484 q 273 576 303 545 q 220 637 243 607 q 178 614 198 628 q 136 583 157 600 l 131 579 m 350 661 l 345 661 q 249 648 290 661 q 293 597 269 623 q 343 550 317 572 q 352 592 349 571 q 357 635 355 613 l 357 640 l 361 644 q 383 670 372 657 q 403 697 393 684 q 380 683 392 691 q 354 665 369 675 l 350 661 z "}," ":{"ha":278,"x_min":0,"x_max":0,"o":""},"½":{"ha":1072,"x_min":25,"x_max":1036,"o":"m 714 851 l 710 846 q 686 796 696 824 q 668 739 675 768 q 656 680 660 709 q 652 624 652 650 q 652 611 652 617 q 653 600 652 606 l 652 591 q 629 540 639 568 q 612 483 619 512 q 601 425 605 454 q 597 370 597 395 q 598 351 597 360 q 600 334 599 342 l 602 329 l 599 325 q 576 278 587 303 q 559 227 566 254 q 548 173 552 200 q 545 119 545 146 q 545 99 545 109 q 547 79 546 89 l 549 74 l 545 69 q 539 63 544 68 q 524 51 534 58 q 498 40 514 45 q 461 35 483 35 q 392 47 417 35 q 353 75 366 60 q 332 117 337 93 l 330 121 l 334 126 q 359 174 348 147 q 379 231 371 201 q 392 292 387 260 q 396 353 396 323 l 396 366 l 397 372 q 418 422 409 395 q 434 480 427 450 q 444 541 440 511 q 447 597 447 571 q 447 613 447 606 q 446 628 447 621 l 444 632 l 447 636 q 473 685 461 657 q 493 744 484 713 q 506 807 501 775 q 510 867 510 838 q 509 879 510 873 q 509 892 509 886 l 507 900 l 513 904 q 518 908 513 905 q 532 915 523 911 q 554 922 541 919 q 585 925 567 925 q 643 915 619 925 q 681 892 666 905 q 703 870 696 880 q 710 859 709 859 l 714 851 m 1000 321 l 994 315 q 967 286 981 304 q 937 248 952 269 q 907 203 922 227 q 879 157 892 180 l 896 157 q 943 159 920 157 q 986 167 966 161 l 993 168 l 999 165 q 1005 159 1000 165 q 1018 143 1011 154 q 1030 117 1025 133 q 1036 78 1036 100 q 1029 39 1036 56 q 1015 11 1023 22 q 999 -6 1006 0 q 991 -12 992 -12 l 986 -17 l 979 -16 q 915 -2 949 -7 q 846 3 880 3 q 787 -1 815 3 q 737 -11 759 -5 l 732 -12 l 726 -9 q 718 -5 726 -9 q 700 11 709 -1 q 682 40 690 22 q 673 87 673 59 l 673 94 q 665 118 667 107 q 663 134 663 128 q 663 143 663 140 q 664 147 664 146 l 665 153 l 669 155 q 699 186 682 166 q 735 231 717 206 q 773 284 754 256 q 807 340 791 313 q 755 336 780 339 q 710 328 730 333 l 700 328 q 690 333 699 328 q 672 349 682 338 q 655 379 663 360 q 647 425 647 397 q 656 472 647 454 q 675 501 665 490 q 694 516 686 511 q 704 521 703 520 l 710 522 l 715 519 q 748 510 730 514 q 786 502 766 505 q 828 497 806 499 q 871 496 849 496 q 917 498 895 496 q 958 505 939 500 l 965 507 l 971 503 q 978 496 972 501 q 990 480 983 491 q 1003 453 997 469 q 1008 415 1008 437 q 1004 381 1008 395 q 991 355 999 366 q 997 336 996 344 q 999 328 999 329 l 1000 321 m 382 484 l 380 478 q 375 469 380 477 q 359 450 370 460 q 329 431 347 439 q 282 422 310 422 q 236 431 254 422 q 208 449 218 439 q 192 468 197 459 q 187 478 188 477 l 187 488 q 196 520 192 500 q 202 564 199 541 q 205 615 204 588 q 207 668 207 642 q 206 695 207 682 q 205 722 205 709 q 182 696 193 709 q 164 672 172 684 l 161 668 l 155 667 q 135 664 153 664 q 105 671 123 664 q 68 693 86 679 q 38 727 51 707 q 25 774 25 747 q 30 803 25 793 q 36 815 35 814 l 39 821 l 43 822 q 92 845 65 830 q 147 880 119 860 q 198 922 174 899 q 239 968 222 945 l 243 974 l 250 975 q 260 974 251 975 q 281 967 269 972 q 308 955 294 963 q 334 934 322 947 q 355 902 347 921 q 363 859 363 884 q 361 842 363 848 q 359 835 359 836 l 358 828 l 355 827 q 364 820 360 823 q 370 814 368 817 q 375 808 373 812 l 379 803 l 378 796 q 367 731 370 770 q 364 650 364 692 q 368 558 364 602 q 380 489 372 514 l 382 484 m 682 851 q 671 864 678 856 q 652 880 663 872 q 624 893 640 887 q 586 899 607 899 q 554 895 566 899 q 536 886 542 890 l 536 868 q 533 812 536 842 q 522 751 529 781 q 506 693 515 721 q 485 646 496 666 l 498 646 q 537 641 519 646 q 567 631 555 637 q 587 622 580 626 q 595 616 594 617 q 599 607 599 614 q 595 600 599 603 q 587 597 591 597 q 584 601 587 597 q 571 608 581 604 q 546 616 562 612 q 503 619 529 619 q 488 618 495 619 q 473 616 481 618 q 474 605 473 611 q 475 593 475 600 q 471 539 475 568 q 462 482 468 511 q 448 426 456 453 q 429 378 439 399 q 465 372 444 376 q 505 362 486 368 q 537 349 524 356 q 550 336 550 342 q 547 328 550 332 q 539 325 543 325 q 536 325 538 325 q 533 326 534 325 q 483 343 513 337 q 422 351 453 350 q 418 289 422 321 q 406 226 414 257 q 386 166 397 195 q 359 115 374 138 q 367 103 361 112 q 384 84 372 94 q 415 68 395 75 q 463 61 434 61 q 500 69 486 61 q 519 82 514 77 q 517 101 518 92 q 517 121 517 111 q 520 177 517 149 q 531 234 524 206 q 549 288 538 262 q 572 335 559 313 q 571 351 571 342 q 571 368 571 359 q 575 426 571 395 q 586 487 578 456 q 603 548 593 518 q 625 602 612 577 q 625 610 625 606 q 624 621 624 615 q 628 678 624 647 q 640 740 632 709 q 658 800 648 770 q 682 851 669 829 m 228 743 q 230 711 229 728 q 231 676 231 694 q 229 620 231 648 q 225 566 228 591 q 220 518 223 540 q 212 484 216 497 q 219 474 214 479 q 232 463 224 468 q 253 454 240 458 q 283 450 265 450 q 314 454 301 450 q 335 464 326 458 q 349 476 344 470 q 355 485 353 481 q 348 516 351 498 q 343 556 345 534 q 340 601 341 577 q 339 650 339 625 q 342 731 339 692 q 353 796 345 770 q 342 804 349 800 q 328 814 336 808 q 276 782 302 800 q 228 743 251 764 m 958 321 l 951 323 q 896 335 926 331 q 835 340 866 339 q 800 282 819 313 q 760 224 780 252 q 720 174 739 196 q 688 139 701 151 q 691 123 688 136 q 704 95 694 110 q 732 69 714 81 q 781 57 751 57 q 798 59 791 57 q 810 64 806 62 q 836 125 817 88 q 878 202 854 163 q 928 275 902 241 q 974 329 954 310 q 973 330 973 329 q 972 332 972 330 q 969 329 970 330 q 966 327 968 328 q 964 325 965 326 l 958 321 m 982 415 q 973 458 982 443 q 958 481 964 474 q 920 474 941 476 q 876 472 899 472 q 830 474 854 472 q 785 479 807 475 q 744 486 764 482 q 710 496 724 490 q 701 489 707 494 q 688 476 694 484 q 678 455 682 468 q 673 425 673 443 q 677 395 673 408 q 686 373 681 382 q 697 359 692 364 q 707 353 703 355 q 759 362 730 359 q 818 366 787 366 q 889 361 854 366 q 953 349 924 357 q 961 357 956 351 q 971 371 966 363 q 979 391 975 380 q 982 415 982 401 m 336 854 q 327 893 336 876 q 304 922 317 910 q 277 942 291 935 q 256 950 264 949 q 215 906 240 929 q 162 863 190 884 q 105 826 134 842 q 56 802 77 810 q 53 792 54 798 q 52 778 52 786 q 63 739 52 755 q 89 711 74 722 q 118 694 103 700 q 139 689 132 689 l 146 689 q 182 733 160 710 q 229 777 203 755 q 283 815 255 798 q 336 844 311 833 l 336 854 m 832 49 l 828 46 q 824 43 827 45 q 813 38 820 41 q 798 33 807 35 q 778 31 789 31 q 736 37 754 31 q 705 54 718 43 q 720 28 713 37 q 734 14 726 18 q 785 23 756 20 q 844 26 814 26 q 916 22 880 26 q 979 9 951 18 q 988 19 983 13 q 997 33 993 24 q 1005 53 1002 41 q 1008 78 1008 64 q 1000 120 1008 105 q 986 142 991 136 q 948 136 969 138 q 905 134 927 134 q 886 134 896 134 q 867 135 876 134 q 845 90 854 111 q 833 54 837 69 l 832 49 z "},"¼":{"ha":1097,"x_min":25,"x_max":1064,"o":"m 714 851 l 710 846 q 686 796 696 824 q 668 739 675 768 q 656 680 660 709 q 652 624 652 650 q 652 611 652 617 q 653 600 652 606 l 652 591 q 629 540 639 568 q 612 483 619 512 q 601 425 605 454 q 597 370 597 395 q 598 351 597 360 q 600 334 599 342 l 602 329 l 599 325 q 576 278 587 303 q 559 227 566 254 q 548 173 552 200 q 545 119 545 146 q 545 99 545 109 q 547 79 546 89 l 549 74 l 545 69 q 539 63 544 68 q 524 51 534 58 q 498 40 514 45 q 461 35 483 35 q 392 47 417 35 q 353 75 366 60 q 332 117 337 93 l 330 121 l 334 126 q 359 174 348 147 q 379 231 371 201 q 392 292 387 260 q 396 353 396 323 l 396 366 l 397 372 q 418 422 409 395 q 434 480 427 450 q 444 541 440 511 q 447 597 447 571 q 447 613 447 606 q 446 628 447 621 l 444 632 l 447 636 q 473 685 461 657 q 493 744 484 713 q 506 807 501 775 q 510 867 510 838 q 509 879 510 873 q 509 892 509 886 l 507 900 l 513 904 q 518 908 513 905 q 532 915 523 911 q 554 922 541 919 q 585 925 567 925 q 643 915 619 925 q 681 892 666 905 q 703 870 696 880 q 710 859 709 859 l 714 851 m 1064 61 l 1061 56 q 1057 46 1061 55 q 1041 27 1053 37 q 1011 8 1030 17 q 962 0 991 0 q 918 8 935 0 q 889 26 900 16 q 874 45 879 37 q 869 56 870 54 l 869 65 q 876 86 873 74 q 880 113 878 98 q 821 117 852 117 q 761 113 789 117 q 711 103 733 109 l 707 102 l 701 104 q 692 109 701 104 q 674 124 684 113 q 656 154 665 136 q 648 201 648 173 q 648 213 648 208 q 650 224 648 218 q 640 245 644 235 q 636 265 636 256 q 637 282 636 276 q 640 290 639 289 l 642 296 l 646 298 q 677 322 659 307 q 715 357 695 337 q 757 400 736 377 q 797 446 778 423 q 830 491 815 469 q 852 529 844 512 l 856 536 l 863 538 q 867 539 865 538 q 880 541 873 541 q 931 527 909 541 q 967 495 953 513 q 988 457 981 476 q 996 428 996 438 l 996 424 q 1022 414 1010 420 q 1040 401 1033 408 q 1052 391 1048 395 q 1057 386 1057 387 l 1061 380 l 1060 374 q 1049 310 1053 349 q 1046 228 1046 271 q 1047 180 1046 204 q 1050 135 1048 157 q 1055 96 1052 114 q 1063 65 1059 77 l 1064 61 m 382 484 l 380 478 q 375 469 380 477 q 359 450 370 460 q 329 431 347 439 q 282 422 310 422 q 236 431 254 422 q 208 449 218 439 q 192 468 197 459 q 187 478 188 477 l 187 488 q 196 520 192 500 q 202 564 199 541 q 205 615 204 588 q 207 668 207 642 q 206 695 207 682 q 205 722 205 709 q 182 696 193 709 q 164 672 172 684 l 161 668 l 155 667 q 135 664 153 664 q 105 671 123 664 q 68 693 86 679 q 38 727 51 707 q 25 774 25 747 q 30 803 25 793 q 36 815 35 814 l 39 821 l 43 822 q 92 845 65 830 q 147 880 119 860 q 198 922 174 899 q 239 968 222 945 l 243 974 l 250 975 q 260 974 251 975 q 281 967 269 972 q 308 955 294 963 q 334 934 322 947 q 355 902 347 921 q 363 859 363 884 q 361 842 363 848 q 359 835 359 836 l 358 828 l 355 827 q 364 820 360 823 q 370 814 368 817 q 375 808 373 812 l 379 803 l 378 796 q 367 731 370 770 q 364 650 364 692 q 368 558 364 602 q 380 489 372 514 l 382 484 m 682 851 q 671 864 678 856 q 652 880 663 872 q 624 893 640 887 q 586 899 607 899 q 554 895 566 899 q 536 886 542 890 l 536 868 q 533 812 536 842 q 522 751 529 781 q 506 693 515 721 q 485 646 496 666 l 498 646 q 537 641 519 646 q 567 631 555 637 q 587 622 580 626 q 595 616 594 617 q 599 607 599 614 q 595 600 599 603 q 587 597 591 597 q 584 601 587 597 q 571 608 581 604 q 546 616 562 612 q 503 619 529 619 q 488 618 495 619 q 473 616 481 618 q 474 605 473 611 q 475 593 475 600 q 471 539 475 568 q 462 482 468 511 q 448 426 456 453 q 429 378 439 399 q 465 372 444 376 q 505 362 486 368 q 537 349 524 356 q 550 336 550 342 q 547 328 550 332 q 539 325 543 325 q 536 325 538 325 q 533 326 534 325 q 483 343 513 337 q 422 351 453 350 q 418 289 422 321 q 406 226 414 257 q 386 166 397 195 q 359 115 374 138 q 367 103 361 112 q 384 84 372 94 q 415 68 395 75 q 463 61 434 61 q 500 69 486 61 q 519 82 514 77 q 517 101 518 92 q 517 121 517 111 q 520 177 517 149 q 531 234 524 206 q 549 288 538 262 q 572 335 559 313 q 571 351 571 342 q 571 368 571 359 q 575 426 571 395 q 586 487 578 456 q 603 548 593 518 q 625 602 612 577 q 625 610 625 606 q 624 621 624 615 q 628 678 624 647 q 640 740 632 709 q 658 800 648 770 q 682 851 669 829 m 875 382 l 879 387 q 885 394 880 388 q 901 408 890 401 q 928 422 911 416 q 968 428 945 428 l 971 428 q 964 451 971 437 q 945 480 958 466 q 916 504 933 494 q 879 514 899 514 l 872 514 q 850 477 865 498 q 816 433 835 456 q 775 387 797 410 q 733 342 754 363 q 694 304 713 321 q 663 279 675 288 q 661 274 661 277 q 661 268 661 271 q 668 243 661 258 q 688 215 675 229 q 717 193 701 202 q 751 183 733 183 q 764 184 759 183 q 772 187 769 186 q 790 219 779 201 q 816 259 801 238 q 848 301 831 279 q 884 343 865 323 q 881 360 882 353 q 878 375 879 368 l 875 382 m 228 743 q 230 711 229 728 q 231 676 231 694 q 229 620 231 648 q 225 566 228 591 q 220 518 223 540 q 212 484 216 497 q 219 474 214 479 q 232 463 224 468 q 253 454 240 458 q 283 450 265 450 q 314 454 301 450 q 335 464 326 458 q 349 476 344 470 q 355 485 353 481 q 348 516 351 498 q 343 556 345 534 q 340 601 341 577 q 339 650 339 625 q 342 731 339 692 q 353 796 345 770 q 342 804 349 800 q 328 814 336 808 q 276 782 302 800 q 228 743 251 764 m 336 854 q 327 893 336 876 q 304 922 317 910 q 277 942 291 935 q 256 950 264 949 q 215 906 240 929 q 162 863 190 884 q 105 826 134 842 q 56 802 77 810 q 53 792 54 798 q 52 778 52 786 q 63 739 52 755 q 89 711 74 722 q 118 694 103 700 q 139 689 132 689 l 146 689 q 182 733 160 710 q 229 777 203 755 q 283 815 255 798 q 336 844 311 833 l 336 854 m 1011 192 q 1004 153 1010 170 q 989 124 997 136 q 974 107 981 113 q 966 102 967 102 l 960 97 l 953 98 q 929 105 941 102 q 903 110 916 108 q 899 82 901 94 q 895 61 897 69 q 901 51 897 57 q 913 40 905 45 q 934 32 922 35 q 965 28 947 28 q 996 32 983 28 q 1017 41 1008 36 q 1030 53 1025 47 q 1038 62 1036 59 q 1030 94 1034 75 q 1025 134 1027 112 q 1022 179 1023 155 q 1021 228 1021 203 q 1024 310 1021 271 q 1035 374 1027 349 q 1010 391 1026 381 q 965 400 994 400 q 924 391 939 400 q 903 375 908 381 q 909 331 906 357 q 913 272 911 304 q 937 275 925 273 q 960 281 948 277 l 966 282 l 972 279 q 979 273 973 279 q 992 257 985 268 q 1005 231 1000 247 q 1011 192 1011 214 m 791 170 l 786 167 q 775 162 785 165 q 749 158 766 158 q 709 167 728 158 q 676 189 691 176 q 681 163 677 174 q 689 145 684 153 q 699 134 694 138 q 708 127 705 130 q 760 137 732 134 q 819 140 789 140 q 890 136 855 140 q 954 123 926 132 q 963 133 958 127 q 972 147 968 138 q 980 166 977 155 q 983 192 983 178 q 975 234 983 218 q 960 256 966 250 q 879 248 926 248 q 858 248 869 248 q 838 249 848 248 q 810 208 822 227 q 793 175 798 189 l 791 170 m 888 311 q 870 290 878 300 q 854 271 862 280 l 869 271 l 889 271 q 888 292 889 281 q 888 311 888 302 z "},"¹":{"ha":397,"x_min":3,"x_max":359,"o":"m 359 484 l 358 478 q 353 469 357 477 q 337 450 348 460 q 307 431 326 439 q 260 422 288 422 q 214 431 232 422 q 185 449 196 439 q 171 468 175 459 q 165 478 166 477 l 165 488 q 174 520 170 500 q 179 564 177 541 q 183 615 182 588 q 184 668 184 642 q 184 695 184 682 q 183 722 183 709 q 160 696 171 709 q 142 672 149 684 l 139 668 l 134 667 q 113 664 131 664 q 82 671 101 664 q 46 693 64 679 q 16 727 28 707 q 3 774 3 747 q 7 803 3 793 q 14 815 12 814 l 17 821 l 21 822 q 70 845 43 830 q 125 880 98 860 q 176 922 152 899 q 216 968 200 945 l 221 974 l 228 975 q 237 974 229 975 q 259 967 246 972 q 286 955 271 963 q 312 934 300 947 q 332 902 324 921 q 340 859 340 884 q 339 842 340 848 q 338 835 338 836 l 336 828 l 334 827 q 348 814 342 819 q 353 808 351 812 l 357 803 l 355 796 q 345 731 348 770 q 342 650 342 692 q 346 558 342 602 q 358 489 350 514 l 359 484 m 205 743 q 208 711 207 728 q 208 676 208 694 q 207 620 208 648 q 203 566 205 591 q 198 518 201 540 q 191 484 195 497 q 197 474 193 479 q 210 463 201 468 q 230 454 218 458 q 261 450 243 450 q 292 454 279 450 q 313 464 304 458 q 327 476 321 470 q 334 485 332 481 q 326 516 330 498 q 321 556 323 534 q 318 601 319 577 q 317 650 317 625 q 320 731 317 692 q 330 796 323 770 q 320 804 326 800 q 306 814 314 808 q 254 782 279 800 q 205 743 229 764 m 314 854 q 304 893 314 876 q 282 922 295 910 q 255 942 269 935 q 233 950 241 949 q 193 906 218 929 q 139 863 168 884 q 83 826 111 842 q 33 802 55 810 q 31 792 32 798 q 29 778 29 786 q 40 739 29 755 q 66 711 52 722 q 95 694 81 700 q 117 689 110 689 l 123 689 q 160 733 138 710 q 208 777 182 755 q 261 815 233 798 q 314 844 288 833 l 314 854 z "},"¾":{"ha":1136,"x_min":29,"x_max":1109,"o":"m 760 851 l 755 846 q 732 796 743 824 q 713 739 721 768 q 702 680 706 709 q 697 624 697 650 q 697 611 697 617 q 699 600 697 606 l 697 591 q 675 540 685 568 q 657 483 665 512 q 647 425 650 454 q 643 370 643 395 q 644 351 643 360 q 646 334 644 342 l 647 329 l 644 325 q 622 278 632 303 q 605 227 612 254 q 594 173 597 200 q 590 119 590 146 q 591 99 590 109 q 593 79 591 89 l 595 74 l 590 69 q 585 63 589 68 q 570 51 580 58 q 545 40 560 45 q 507 35 529 35 q 437 47 463 35 q 399 75 412 60 q 378 117 383 93 l 376 121 l 379 126 q 405 174 393 147 q 425 231 416 201 q 437 292 433 260 q 441 353 441 323 l 441 366 l 443 372 q 464 422 454 395 q 479 480 473 450 q 490 541 486 511 q 493 597 493 571 q 493 613 493 606 q 492 628 493 621 l 490 632 l 493 636 q 519 685 507 657 q 538 744 530 713 q 551 807 547 775 q 555 867 555 838 q 555 879 555 873 q 554 892 554 886 l 553 900 l 558 904 q 564 908 559 905 q 577 915 568 911 q 600 922 586 919 q 631 925 613 925 q 689 915 665 925 q 727 892 712 905 q 748 870 742 880 q 755 859 755 859 l 760 851 m 432 551 l 431 546 q 427 539 429 545 q 416 525 424 534 q 411 499 415 511 q 404 480 408 488 q 396 468 399 472 q 392 463 393 463 l 387 457 l 379 458 l 357 458 q 300 455 330 458 q 243 444 271 451 q 189 428 214 437 q 143 407 163 418 l 134 406 q 122 409 134 406 q 95 424 110 412 q 68 458 80 436 q 56 518 56 480 q 61 552 56 538 q 74 575 67 566 q 87 589 81 585 q 94 595 94 594 l 104 596 q 122 594 113 595 q 143 593 132 593 q 194 596 167 593 q 249 606 221 600 q 250 614 249 610 q 250 624 250 618 q 209 620 229 623 q 175 614 189 617 l 168 611 l 164 615 q 158 620 163 615 q 146 633 153 624 q 134 657 140 643 q 129 693 129 672 q 134 726 129 712 q 146 750 140 740 q 159 764 153 760 q 165 770 165 769 l 170 774 l 176 771 q 210 764 190 766 q 253 760 230 761 l 253 781 q 227 783 239 782 q 201 783 214 783 q 142 780 170 783 q 92 770 113 776 l 87 768 l 82 771 q 73 775 81 771 q 55 791 65 780 q 37 821 45 802 q 29 868 29 840 q 38 915 29 897 q 57 943 47 932 q 77 958 68 954 q 87 962 86 962 l 97 962 q 168 944 125 951 q 254 937 210 937 q 300 940 278 937 q 342 947 322 942 l 347 949 l 353 946 q 365 935 354 945 q 383 904 375 925 q 409 887 400 896 q 419 876 418 878 l 424 871 l 422 864 q 413 807 416 841 q 410 736 410 774 q 411 684 410 710 q 415 634 412 658 q 422 590 418 610 q 431 557 426 570 l 432 551 m 1109 61 l 1107 56 q 1102 46 1107 55 q 1087 27 1098 37 q 1057 8 1076 17 q 1008 0 1038 0 q 964 8 981 0 q 936 26 946 16 q 921 45 925 37 q 916 56 916 54 l 916 65 q 922 86 919 74 q 926 113 924 98 q 867 117 897 117 q 807 113 836 117 q 757 103 779 109 l 753 102 l 747 104 q 739 109 747 104 q 721 124 730 113 q 703 154 711 136 q 694 201 694 173 q 694 213 694 208 q 696 224 694 218 q 686 245 690 235 q 682 265 682 256 q 684 282 682 276 q 686 290 685 289 l 688 296 l 692 298 q 723 322 705 307 q 762 357 741 337 q 803 400 782 377 q 843 446 824 423 q 876 491 861 469 q 899 529 890 512 l 901 536 l 908 538 q 913 539 910 538 q 926 541 920 541 q 977 527 956 541 q 1013 495 999 513 q 1035 457 1027 476 q 1042 428 1042 438 l 1042 424 q 1067 414 1056 420 q 1086 401 1078 408 q 1098 391 1094 395 q 1103 386 1102 387 l 1107 380 l 1105 374 q 1095 310 1098 349 q 1092 228 1092 271 q 1093 180 1092 204 q 1096 135 1094 157 q 1101 96 1098 114 q 1108 65 1104 77 l 1109 61 m 728 851 q 717 864 724 856 q 697 880 709 872 q 669 893 686 887 q 632 899 653 899 q 600 895 612 899 q 582 886 587 890 l 582 868 q 578 812 582 842 q 568 751 574 781 q 551 693 561 721 q 530 646 542 666 l 545 646 q 583 641 566 646 q 613 631 601 637 q 633 622 626 626 q 640 616 640 617 q 644 607 644 614 q 641 600 644 603 q 633 597 637 597 q 629 601 633 597 q 617 608 626 604 q 591 616 608 612 q 549 619 575 619 q 534 618 541 619 q 519 616 527 618 q 520 605 519 611 q 521 593 521 600 q 517 539 521 568 q 508 482 514 511 q 493 426 502 453 q 475 378 485 399 q 511 372 490 376 q 551 362 532 368 q 583 349 570 356 q 596 336 596 342 q 592 328 596 332 q 585 325 589 325 q 582 325 583 325 q 579 326 581 325 q 529 343 559 337 q 468 351 498 350 q 464 289 468 321 q 451 226 459 257 q 431 166 443 195 q 406 115 420 138 q 413 103 407 112 q 430 84 418 94 q 461 68 441 75 q 509 61 480 61 q 546 69 532 61 q 566 82 560 77 q 563 101 564 92 q 562 121 562 111 q 566 177 562 149 q 577 234 570 206 q 594 288 584 262 q 618 335 605 313 q 616 351 616 342 q 616 368 616 359 q 620 426 616 395 q 631 487 624 456 q 648 548 638 518 q 671 602 659 577 q 670 610 671 606 q 669 621 669 615 q 674 678 669 647 q 686 740 678 709 q 704 800 693 770 q 728 851 715 829 m 921 382 l 925 387 q 931 394 926 388 q 947 408 937 401 q 974 422 958 416 q 1014 428 991 428 l 1017 428 q 1010 451 1017 437 q 991 480 1003 466 q 962 504 979 494 q 925 514 945 514 l 918 514 q 896 477 911 498 q 862 433 881 456 q 822 387 843 410 q 779 342 800 363 q 740 304 758 321 q 708 279 721 288 q 707 274 707 277 q 707 268 707 271 q 714 243 707 258 q 734 215 722 229 q 763 193 746 202 q 798 183 779 183 q 810 184 805 183 q 818 187 814 186 q 836 219 824 201 q 862 259 847 238 q 893 301 876 279 q 929 343 911 323 q 926 360 928 353 q 924 375 925 368 l 921 382 m 364 859 q 355 901 364 886 q 340 922 347 916 q 302 917 323 918 q 258 916 281 916 q 213 917 236 916 q 168 921 190 918 q 126 928 146 924 q 92 937 106 932 q 82 930 87 935 q 70 917 76 926 q 61 896 64 909 q 57 864 57 883 q 61 834 57 846 q 70 814 64 822 q 80 801 75 806 q 89 794 85 796 q 141 804 112 801 q 200 807 170 807 q 271 803 236 807 q 335 790 307 799 q 343 799 338 793 q 353 813 349 805 q 361 833 357 822 q 364 859 364 844 m 392 859 q 385 820 391 836 q 370 792 378 803 q 355 775 361 781 q 347 768 348 769 l 340 764 l 334 765 q 306 772 320 768 q 275 778 291 776 q 277 748 277 763 q 277 718 277 734 q 276 668 277 693 q 273 621 275 643 q 269 579 271 598 q 262 549 266 561 q 269 539 264 545 q 283 528 274 533 q 304 519 292 523 q 335 515 317 515 q 365 520 353 515 q 386 531 378 525 q 399 543 394 537 q 406 553 404 549 q 397 588 401 567 q 391 633 393 608 q 387 684 389 657 q 386 737 386 711 q 389 807 386 774 q 397 864 392 841 l 392 868 l 392 859 m 1057 192 q 1050 153 1057 170 q 1035 124 1043 136 q 1020 107 1027 113 q 1013 102 1013 102 l 1006 97 l 999 98 q 949 110 974 106 q 945 82 947 94 q 940 61 943 69 q 947 51 942 57 q 960 40 951 45 q 980 32 968 35 q 1011 28 993 28 q 1042 32 1029 28 q 1063 41 1055 36 q 1076 53 1072 47 q 1083 62 1081 59 q 1076 94 1079 75 q 1071 134 1073 112 q 1068 179 1069 155 q 1067 228 1067 203 q 1070 310 1067 271 q 1080 374 1073 349 q 1070 382 1076 377 q 1056 391 1064 387 q 1036 397 1047 395 q 1011 400 1025 400 q 970 391 985 400 q 949 375 954 381 q 955 331 952 357 q 958 272 957 304 q 983 275 971 273 q 1006 281 994 277 l 1013 282 l 1018 279 q 1025 273 1019 279 q 1038 257 1031 268 q 1051 231 1045 247 q 1057 192 1057 214 m 838 170 l 832 167 q 821 162 831 165 q 794 158 811 158 q 755 167 773 158 q 722 189 737 176 q 727 163 723 174 q 735 145 730 153 q 745 134 740 138 q 754 127 751 130 q 806 137 777 134 q 865 140 835 140 q 937 136 901 140 q 1000 123 972 132 q 1009 133 1004 127 q 1018 147 1014 138 q 1026 166 1023 155 q 1029 192 1029 178 q 1021 234 1029 218 q 1006 256 1012 250 q 925 248 972 248 q 904 248 914 248 q 884 249 894 248 q 856 208 868 227 q 839 175 844 189 l 838 170 m 330 489 q 286 497 303 489 q 257 515 268 505 q 243 533 247 525 q 239 542 239 541 l 236 547 l 237 551 q 241 564 239 557 q 244 579 243 571 q 187 572 215 574 q 135 570 159 570 q 119 570 126 570 q 106 571 112 570 q 92 554 100 567 q 83 517 83 541 q 90 477 83 493 q 106 451 97 461 q 123 436 115 441 q 135 431 132 431 q 182 451 155 441 q 238 467 209 460 q 296 478 267 474 q 353 482 326 482 l 375 482 q 382 498 379 489 q 359 492 372 494 q 330 489 346 489 m 254 739 q 211 743 231 741 q 176 750 190 746 q 161 729 169 743 q 153 690 153 715 q 160 654 153 667 q 174 635 168 640 q 208 640 187 638 q 252 643 229 642 q 254 680 253 661 q 254 718 254 699 l 254 739 m 933 311 q 916 290 924 300 q 900 271 907 280 l 916 271 l 935 271 q 934 292 935 281 q 933 311 933 302 z "},"³":{"ha":461,"x_min":26,"x_max":429,"o":"m 429 551 l 428 546 q 424 539 427 545 q 414 525 421 534 q 409 499 412 511 q 400 480 405 488 q 393 468 396 472 q 389 463 389 463 l 385 457 l 376 458 l 354 458 q 298 455 327 458 q 240 444 269 451 q 186 428 212 437 q 140 407 160 418 l 131 406 q 119 409 132 406 q 92 424 107 412 q 65 458 77 436 q 53 518 53 480 q 59 552 53 538 q 72 575 64 566 q 85 589 79 585 q 92 595 91 594 l 102 596 q 120 594 110 595 q 140 593 130 593 q 191 596 164 593 q 245 606 218 600 q 247 614 245 610 q 248 624 248 618 q 206 620 226 623 q 172 614 186 617 l 165 611 l 161 615 q 155 620 161 615 q 143 633 150 624 q 132 657 137 643 q 126 693 126 672 q 132 726 126 712 q 144 750 137 740 q 156 764 151 760 q 163 770 162 769 l 167 774 l 174 771 q 207 764 187 766 q 250 760 227 761 l 250 781 q 224 783 237 782 q 199 783 211 783 q 139 780 167 783 q 89 770 111 776 l 85 768 l 79 771 q 71 775 79 771 q 53 791 62 780 q 35 821 43 802 q 26 868 26 840 q 35 915 26 897 q 55 943 44 932 q 74 958 65 954 q 85 962 83 962 l 94 962 q 165 944 123 951 q 252 937 208 937 q 297 940 275 937 q 339 947 319 942 l 345 949 l 350 946 q 362 935 351 945 q 380 904 372 925 q 406 887 397 896 q 416 876 415 878 l 421 871 l 419 864 q 410 807 413 841 q 407 736 407 774 q 408 684 407 710 q 412 634 410 658 q 419 590 415 610 q 428 557 423 570 l 429 551 m 361 859 q 352 901 361 886 q 338 922 344 916 q 300 917 321 918 q 256 916 279 916 q 210 917 233 916 q 165 921 186 918 q 123 928 143 924 q 89 937 104 932 q 79 930 85 935 q 67 917 73 926 q 58 896 62 909 q 54 864 54 883 q 58 834 54 846 q 67 814 62 822 q 77 801 72 806 q 86 794 83 796 q 138 804 109 801 q 197 807 167 807 q 268 803 233 807 q 332 790 303 799 q 340 799 336 793 q 350 813 345 805 q 358 833 355 822 q 361 859 361 844 m 389 859 q 381 820 388 836 q 367 792 374 803 q 352 775 359 781 q 345 768 345 769 l 338 764 l 330 765 q 302 772 317 768 q 272 778 288 776 q 273 748 273 763 q 273 718 273 734 q 273 668 273 693 q 270 621 272 643 q 266 579 269 598 q 260 549 263 561 q 267 539 262 545 q 280 528 271 533 q 301 519 289 523 q 332 515 314 515 q 362 520 349 515 q 383 531 374 525 q 396 543 391 537 q 403 553 401 549 q 394 588 398 567 q 388 633 391 608 q 385 684 386 657 q 383 737 383 711 q 386 807 383 774 q 395 864 389 841 l 389 868 l 389 859 m 328 489 q 283 497 300 489 q 255 515 265 505 q 240 533 244 525 q 236 542 236 541 l 233 547 l 235 551 q 238 564 237 557 q 241 579 240 571 q 184 572 212 574 q 132 570 156 570 q 116 570 123 570 q 103 571 109 570 q 89 554 98 567 q 81 517 81 541 q 87 477 81 493 q 103 451 94 461 q 120 436 112 441 q 132 431 129 431 q 179 451 153 441 q 235 467 205 460 q 294 478 264 474 q 350 482 323 482 l 372 482 q 379 498 376 489 q 356 492 369 494 q 328 489 343 489 m 252 739 q 208 743 229 741 q 174 750 187 746 q 158 729 166 743 q 150 690 150 715 q 158 654 150 667 q 171 635 165 640 q 205 640 184 638 q 249 643 226 642 q 251 680 250 661 q 252 718 252 699 l 252 739 z "},"²":{"ha":450,"x_min":31,"x_max":419,"o":"m 383 762 l 378 758 q 350 729 365 747 q 320 690 335 711 q 290 646 305 669 q 262 600 275 623 l 285 600 q 329 602 308 600 q 370 610 351 604 l 376 611 l 382 607 q 388 601 382 606 q 401 585 394 595 q 413 558 408 574 q 419 519 419 542 q 412 480 419 497 q 397 453 406 464 q 382 436 389 441 q 375 429 376 430 l 370 425 l 363 428 q 300 440 334 436 q 232 444 267 444 q 172 441 201 444 q 121 432 144 438 l 111 432 q 101 437 110 433 q 83 453 93 442 q 65 483 73 464 q 57 529 57 501 l 57 538 q 48 561 51 550 q 46 576 46 571 q 47 586 46 583 q 47 590 47 589 l 53 599 q 83 629 66 609 q 120 674 101 649 q 158 728 139 700 q 192 783 176 756 q 138 779 163 782 q 93 770 113 775 l 89 768 l 83 771 q 75 775 83 771 q 57 791 66 780 q 39 821 47 802 q 31 868 31 840 q 39 915 31 897 q 59 943 48 932 q 78 958 69 954 q 89 962 87 962 l 98 962 q 169 944 127 951 q 256 937 212 937 q 301 940 279 937 q 343 947 323 942 l 349 949 l 354 946 q 361 940 355 945 q 375 924 368 935 q 388 897 382 913 q 393 859 393 881 q 387 824 392 839 q 375 798 382 809 q 381 779 380 786 q 383 770 382 771 l 383 762 m 342 764 l 335 765 q 279 777 309 772 q 218 783 250 782 q 183 725 203 755 q 143 667 163 694 q 104 616 123 639 q 71 582 85 593 q 74 566 71 579 q 87 538 77 553 q 116 512 98 524 q 163 500 134 500 q 182 502 174 500 q 195 507 191 505 q 209 545 199 523 q 232 593 218 568 q 261 644 245 618 q 294 695 277 671 q 327 739 311 719 q 357 771 343 758 q 356 772 356 771 q 355 774 355 772 q 353 771 354 772 q 351 770 352 770 q 349 768 349 768 l 342 764 m 366 859 q 357 901 366 886 q 342 922 348 916 q 304 917 325 918 q 260 916 283 916 q 214 917 237 916 q 169 921 191 918 q 127 928 147 924 q 93 937 108 932 q 83 930 89 935 q 72 917 77 926 q 62 896 66 909 q 58 864 58 883 q 62 834 58 846 q 71 814 66 822 q 81 801 76 806 q 90 794 87 796 q 142 804 113 801 q 201 807 171 807 q 273 803 237 807 q 336 790 308 799 q 345 799 340 793 q 354 813 350 805 q 362 833 359 822 q 366 859 366 844 m 211 488 q 207 485 210 487 q 196 479 203 482 q 181 474 190 477 q 161 472 172 472 q 121 478 138 472 q 90 494 103 485 q 118 456 104 464 q 171 465 141 462 q 233 468 201 468 q 302 465 268 468 q 364 453 336 461 q 382 477 372 460 q 392 524 392 494 q 384 564 392 549 q 370 585 375 578 q 332 578 353 581 q 289 576 311 576 q 270 576 279 576 q 250 578 260 576 q 229 533 237 554 q 216 496 220 511 l 211 488 z "},"¦":{"ha":359,"x_min":46,"x_max":315,"o":"m 315 593 l 313 586 q 306 574 312 585 q 283 550 299 563 q 241 526 267 536 q 174 515 214 515 q 113 526 137 515 q 75 548 90 536 q 55 571 61 560 q 49 583 50 582 l 46 589 l 49 595 q 63 649 59 624 q 68 700 68 675 q 64 752 68 725 q 53 806 61 780 l 50 812 l 53 818 q 70 877 64 852 q 75 925 75 902 q 70 971 75 948 q 56 1023 65 994 l 53 1032 l 57 1039 q 65 1048 58 1040 q 87 1066 72 1057 q 125 1083 102 1075 q 180 1090 148 1090 q 232 1083 210 1090 q 270 1066 254 1075 q 293 1049 285 1057 q 301 1040 300 1041 l 309 1034 l 306 1023 q 290 965 295 989 q 285 922 285 942 q 289 882 285 903 q 302 831 293 861 l 304 822 q 291 767 294 797 q 288 715 288 736 q 294 661 288 688 q 313 599 300 633 l 315 593 m 315 -69 l 313 -75 q 306 -87 312 -77 q 283 -112 299 -98 q 240 -135 267 -125 q 171 -146 212 -146 q 112 -136 136 -146 q 75 -114 89 -126 q 55 -91 61 -102 q 49 -79 50 -81 l 46 -72 l 49 -66 q 63 -12 59 -37 q 68 39 68 14 q 64 90 68 62 q 53 144 61 117 l 50 150 l 53 155 q 70 215 64 189 q 75 264 75 240 q 70 310 75 287 q 56 363 65 333 l 53 371 l 57 378 q 65 387 58 378 q 87 404 72 395 q 125 421 102 414 q 180 429 148 429 q 232 421 210 429 q 270 405 254 414 q 293 387 285 395 q 301 378 300 378 l 309 371 l 306 363 q 290 304 295 328 q 285 260 285 281 q 289 219 285 240 q 302 170 293 199 l 304 160 q 291 104 294 134 q 288 53 288 74 q 294 -1 288 26 q 313 -62 300 -28 l 315 -69 m 279 595 q 261 659 267 630 q 256 718 256 688 q 259 771 256 742 q 271 825 262 800 q 257 879 261 856 q 253 922 253 901 q 258 969 253 945 q 271 1023 262 993 q 257 1034 265 1028 q 237 1045 249 1040 q 210 1054 225 1050 q 176 1057 195 1057 q 143 1054 158 1057 q 118 1044 129 1050 q 100 1034 108 1039 q 89 1025 93 1028 q 103 976 98 998 q 107 930 107 954 q 104 889 107 911 q 93 839 100 867 q 127 847 111 845 q 158 850 144 850 q 208 846 191 850 q 232 838 225 842 q 239 828 239 833 q 239 823 239 824 q 235 813 239 817 q 225 810 231 810 q 222 811 224 810 q 214 814 220 812 q 197 818 208 817 q 168 819 186 819 q 131 815 151 819 q 89 802 111 812 q 94 750 89 775 q 100 699 100 724 q 96 647 100 673 q 82 590 92 620 q 91 578 85 585 q 107 565 96 572 q 134 554 118 559 q 171 550 149 550 q 217 555 198 550 q 249 567 236 560 q 268 582 261 574 q 279 595 275 589 m 279 -66 q 261 -2 267 -31 q 256 57 256 28 q 259 110 256 81 q 271 164 262 139 q 257 216 261 193 q 253 260 253 239 q 258 307 253 283 q 271 363 262 331 q 257 373 265 367 q 237 384 249 378 q 210 392 225 389 q 176 396 195 396 q 143 392 158 396 q 118 382 129 388 q 100 371 108 377 q 89 363 93 366 q 103 313 98 335 q 107 268 107 292 q 104 228 107 249 q 93 178 100 206 q 157 189 127 189 q 208 185 191 189 q 232 176 225 181 q 239 168 239 172 q 239 163 239 163 q 235 153 239 157 q 227 149 231 149 q 223 150 225 149 q 215 153 221 151 q 199 155 210 154 q 170 157 189 157 q 132 153 153 157 q 89 139 111 149 q 94 88 89 113 q 100 37 100 62 q 96 -15 100 12 q 82 -71 92 -41 q 91 -83 85 -76 q 109 -97 98 -90 q 138 -108 121 -104 q 179 -113 155 -113 q 222 -107 204 -113 q 251 -94 239 -102 q 269 -78 262 -86 q 279 -66 276 -71 z "},"−":{"ha":650,"x_min":36,"x_max":612,"o":"m 612 465 q 605 411 612 434 q 587 371 597 387 q 570 348 578 355 q 561 339 562 340 l 554 334 l 545 335 q 487 350 510 345 q 443 355 464 355 q 402 351 423 355 q 351 338 382 347 l 343 336 q 288 350 318 347 q 236 353 257 353 q 181 347 209 353 q 119 328 154 340 l 107 328 q 95 335 106 328 q 71 357 83 341 q 47 399 58 372 q 36 465 36 425 q 46 526 36 502 q 69 565 56 551 q 93 585 82 579 q 104 591 103 591 l 110 595 l 117 591 q 172 577 146 581 q 222 572 197 572 q 273 576 248 572 q 328 587 298 580 l 334 590 l 339 587 q 397 571 372 576 q 446 566 422 566 q 492 570 469 566 q 545 585 515 575 l 553 587 l 559 583 q 568 576 560 583 q 586 555 576 569 q 603 518 595 541 q 612 465 611 496 m 578 464 q 565 522 576 500 q 546 551 553 543 q 497 537 519 542 q 452 532 475 532 q 410 536 433 532 q 359 547 388 540 q 369 512 366 530 q 371 481 371 495 q 367 432 371 448 q 358 408 363 415 q 349 401 353 401 q 345 401 345 401 q 334 406 338 401 q 330 414 330 410 q 332 417 330 414 q 335 426 334 420 q 339 443 337 432 q 340 472 340 454 q 337 509 340 489 q 322 551 333 530 q 271 546 296 551 q 220 541 245 541 q 167 545 194 541 q 111 558 140 549 q 99 549 106 555 q 86 532 92 543 q 75 506 79 522 q 71 469 71 490 q 76 422 71 441 q 88 391 81 404 q 102 371 95 378 q 115 361 110 364 q 181 379 151 374 q 239 385 210 385 q 292 381 262 385 q 346 370 321 378 q 399 383 376 379 q 444 387 422 387 q 491 382 467 387 q 545 370 514 378 q 555 382 549 374 q 566 402 561 390 q 574 429 571 414 q 578 464 578 444 z "},"×":{"ha":586,"x_min":37,"x_max":550,"o":"m 543 374 q 544 369 543 372 q 545 359 545 366 q 543 340 545 352 q 536 315 541 329 q 522 285 531 300 q 497 253 512 269 q 462 224 480 235 q 428 208 444 214 q 399 201 412 203 q 379 200 387 200 l 371 200 l 363 201 l 358 208 q 339 242 348 227 q 322 269 330 258 q 306 290 314 281 q 288 307 298 299 q 240 258 262 283 q 205 208 219 232 l 200 201 l 192 200 q 188 199 190 199 q 179 199 185 199 q 161 200 172 199 q 138 206 151 201 q 111 220 125 211 q 82 243 96 229 q 59 272 68 257 q 46 300 51 286 q 40 325 42 313 q 39 346 39 337 q 39 357 39 353 q 40 363 40 361 l 43 371 l 52 375 q 99 405 75 388 q 147 443 123 422 q 106 475 128 460 q 53 504 84 490 l 46 507 l 43 514 q 39 524 41 515 q 37 549 37 533 q 47 596 37 568 q 86 657 56 625 q 144 698 117 688 q 192 708 172 708 q 217 705 208 708 q 228 703 227 703 l 233 700 l 236 694 q 267 641 251 663 q 304 599 283 618 q 340 642 324 620 q 367 684 355 664 l 370 690 l 376 693 q 387 696 378 693 q 411 699 395 699 q 455 690 430 699 q 509 653 481 681 q 542 604 534 627 q 550 561 550 580 q 546 531 550 543 q 542 518 542 519 l 539 513 l 532 510 q 489 486 512 500 q 440 452 465 471 q 480 417 458 432 q 534 386 502 401 l 542 382 l 543 374 m 511 361 q 470 384 488 372 q 436 409 452 395 q 407 442 421 423 q 376 489 393 461 q 348 445 364 463 q 316 416 331 427 q 290 400 300 405 q 278 395 279 395 q 273 393 277 393 q 263 397 267 393 q 258 407 258 401 q 268 419 258 416 q 291 431 277 422 q 321 459 304 439 q 353 519 338 478 l 347 524 q 307 553 326 538 q 270 586 288 568 q 238 625 253 604 q 210 673 222 646 q 202 674 206 673 q 193 675 199 675 q 157 667 178 675 q 111 633 136 659 q 78 584 85 606 q 71 547 71 562 q 71 538 71 542 q 72 530 71 534 q 174 465 133 501 q 241 374 214 428 q 290 345 270 359 q 325 315 310 331 q 354 279 340 299 q 382 233 367 260 q 398 235 388 233 q 420 241 408 237 q 446 255 433 246 q 472 277 459 263 q 492 303 484 290 q 504 327 500 315 q 509 347 508 338 q 511 361 511 355 m 515 536 q 517 545 517 540 q 518 557 518 549 q 506 598 518 578 q 476 633 494 618 q 439 657 458 648 q 407 667 420 667 q 389 657 399 667 q 370 635 380 648 q 348 607 359 622 q 326 579 337 591 q 348 563 337 571 q 371 547 358 555 l 382 542 l 387 539 l 390 533 q 406 501 399 515 q 422 475 414 486 q 472 510 448 494 q 515 536 496 526 m 222 347 l 215 353 q 210 362 213 358 q 204 371 208 367 q 185 398 194 385 q 167 421 176 410 q 137 399 154 411 q 106 376 121 387 q 82 357 92 366 q 72 346 72 349 q 73 330 72 339 q 78 310 75 320 q 88 288 81 299 q 106 267 95 277 q 129 247 117 254 q 151 236 140 240 q 170 232 161 233 q 183 231 178 231 q 217 276 197 252 q 262 323 237 300 l 222 347 z "},"!":{"ha":358,"x_min":46,"x_max":321,"o":"m 321 899 l 318 890 q 297 805 304 850 q 290 717 290 761 q 294 660 290 687 q 304 608 297 632 l 304 599 q 287 515 296 557 q 278 428 278 473 q 281 377 278 402 q 293 329 285 352 l 294 322 l 292 317 q 284 306 291 315 q 262 285 277 296 q 225 265 247 274 q 172 256 203 256 q 120 265 142 256 q 84 286 98 275 q 63 307 70 297 q 56 318 56 317 l 53 325 l 56 330 q 67 380 64 355 q 71 432 71 405 q 66 512 71 471 q 53 590 62 553 l 53 602 q 74 728 74 661 q 67 814 74 772 q 49 896 60 857 l 46 904 l 52 911 q 61 919 52 911 q 88 936 71 927 q 130 952 105 945 q 186 960 154 960 q 240 951 216 960 q 281 933 264 943 q 306 915 297 924 q 315 905 315 906 l 321 899 m 278 161 l 275 151 q 264 112 268 130 q 261 78 261 94 q 263 55 261 65 q 268 33 264 44 l 271 25 l 265 18 q 222 -11 248 -1 q 165 -21 196 -21 q 110 -11 136 -21 q 68 18 85 -1 l 61 25 l 64 33 q 69 56 68 45 q 71 79 71 68 q 57 150 71 114 l 54 160 l 61 167 q 107 194 80 184 q 165 204 134 204 q 223 195 196 204 q 271 168 251 185 l 278 161 m 285 892 q 271 902 280 896 q 249 913 262 907 q 220 923 236 919 q 184 926 203 926 q 149 923 166 926 q 119 914 132 919 q 96 904 105 909 q 82 896 86 899 q 100 811 94 856 q 107 722 107 767 q 104 671 107 696 q 94 623 102 646 q 125 629 110 628 q 154 631 140 631 q 208 626 190 631 q 233 616 226 622 q 239 607 239 611 q 239 603 239 602 q 235 593 239 597 q 227 589 231 589 q 223 590 225 589 q 214 594 220 592 q 196 597 208 595 q 165 599 184 599 q 129 596 149 599 q 89 583 110 593 q 90 580 89 582 q 90 576 90 578 q 101 504 96 541 q 106 432 106 468 q 102 377 106 404 q 89 325 98 350 q 99 314 92 320 q 116 302 106 308 q 141 293 127 296 q 172 289 155 289 q 205 293 190 289 q 231 302 220 296 q 249 314 241 308 q 258 325 256 320 q 244 424 244 370 q 254 516 244 472 q 271 604 264 560 q 260 655 263 628 q 257 711 257 682 q 264 804 257 758 q 285 892 272 850 m 243 150 q 207 168 227 161 q 165 174 187 174 q 124 168 144 174 q 90 151 104 162 q 100 115 96 132 q 103 81 103 98 q 101 56 103 68 q 96 33 99 45 q 127 16 109 22 q 165 9 146 9 q 205 16 186 9 q 236 33 224 22 q 232 55 233 44 q 231 77 231 65 q 243 150 231 110 z "},"\"":{"ha":661,"x_min":37,"x_max":627,"o":"m 307 524 l 304 517 q 297 504 304 515 q 275 480 290 493 q 233 456 259 467 q 165 446 206 446 q 105 456 129 446 q 66 478 81 466 q 46 502 52 491 q 40 514 41 513 l 37 519 l 40 525 q 55 580 51 554 q 60 631 60 606 q 56 683 60 656 q 45 736 53 710 l 41 743 l 45 749 q 61 807 56 782 q 66 856 66 833 q 62 902 66 879 q 47 954 57 925 l 45 962 l 49 970 q 57 979 50 970 q 79 996 64 987 q 117 1013 94 1006 q 172 1021 140 1021 q 224 1013 201 1021 q 261 997 246 1006 q 284 980 277 987 q 293 971 292 972 l 300 964 l 297 954 q 282 896 287 920 q 277 852 277 872 q 281 812 277 833 q 294 761 285 791 l 296 753 q 282 697 286 728 q 279 646 279 667 q 286 591 279 618 q 304 529 292 564 l 307 524 m 271 525 q 253 590 258 561 q 248 648 248 619 q 251 702 248 673 q 262 755 254 730 q 249 809 253 786 q 244 852 244 832 q 249 900 244 876 q 262 954 254 924 q 249 965 257 959 q 229 976 241 970 q 202 984 217 981 q 168 987 187 987 q 135 984 150 987 q 110 975 121 980 q 92 964 100 969 q 81 956 85 958 q 94 906 90 928 q 98 861 98 884 q 95 820 98 842 q 85 770 92 798 q 119 778 102 776 q 150 781 136 781 q 200 777 183 781 q 224 768 217 772 q 231 759 231 763 q 231 754 231 755 q 226 744 231 748 q 216 741 222 741 q 214 742 216 741 q 206 745 212 743 q 189 749 200 747 q 160 750 178 750 q 123 746 143 750 q 81 732 102 743 q 86 681 81 706 q 92 629 92 655 q 87 577 92 604 q 74 521 83 550 q 82 509 77 516 q 99 496 88 503 q 125 485 110 490 q 163 481 141 481 q 209 486 190 481 q 240 498 228 491 q 260 512 253 505 q 271 525 267 519 m 627 524 l 624 517 q 617 504 623 515 q 594 480 610 493 q 552 456 578 467 q 485 446 526 446 q 424 456 448 446 q 386 478 400 466 q 366 502 372 491 q 359 514 360 513 l 357 519 l 359 525 q 375 580 370 554 q 379 631 379 606 q 376 683 379 656 q 364 736 372 710 l 361 743 l 364 749 q 381 807 376 782 q 386 856 386 833 q 381 902 386 879 q 367 954 376 925 l 364 962 l 368 970 q 376 979 369 970 q 398 996 383 987 q 436 1013 413 1006 q 492 1021 459 1021 q 543 1013 521 1021 q 581 997 566 1006 q 604 980 596 987 q 612 971 612 972 l 619 964 l 616 954 q 601 896 606 920 q 596 852 596 872 q 600 812 596 833 q 614 761 604 791 l 615 753 q 602 697 605 728 q 599 646 599 667 q 605 591 599 618 q 624 529 611 564 l 627 524 m 590 525 q 572 590 578 561 q 567 648 567 619 q 570 702 567 673 q 582 755 574 730 q 568 809 572 786 q 564 852 564 832 q 569 900 564 876 q 582 954 574 924 q 568 965 576 959 q 548 976 560 970 q 522 984 536 981 q 488 987 507 987 q 455 984 469 987 q 430 975 440 980 q 412 964 419 969 q 400 956 404 958 q 414 906 410 928 q 418 861 418 884 q 415 820 418 842 q 404 770 412 798 q 438 778 422 776 q 469 781 455 781 q 519 777 503 781 q 543 768 536 772 q 550 759 550 763 q 550 754 550 755 q 546 744 550 748 q 536 741 542 741 q 533 742 536 741 q 525 745 531 743 q 509 749 519 747 q 479 750 498 750 q 442 746 463 750 q 400 732 422 743 q 406 681 400 706 q 411 629 411 655 q 407 577 411 604 q 393 521 403 550 q 402 509 396 516 q 418 496 408 503 q 445 485 429 490 q 482 481 460 481 q 528 486 509 481 q 560 498 547 491 q 579 512 572 505 q 590 525 587 519 z "},"#":{"ha":1495,"x_min":46,"x_max":1463,"o":"m 799 911 l 796 903 q 777 829 783 865 q 770 757 770 793 q 786 648 770 703 l 786 639 q 770 567 776 602 q 765 498 765 532 q 787 364 765 428 l 787 353 q 761 210 761 282 q 767 141 761 175 q 785 74 773 107 l 787 66 l 785 61 q 777 49 784 60 q 755 26 770 39 q 713 4 739 14 q 647 -5 686 -5 q 591 1 614 -5 q 553 18 568 7 l 546 18 q 513 22 528 18 q 490 30 499 26 q 475 39 480 35 q 469 45 470 43 l 464 49 l 464 56 q 436 188 460 125 q 363 313 411 251 l 359 319 q 337 406 351 366 q 301 485 322 447 q 323 364 303 422 l 326 358 l 323 353 q 298 212 298 283 q 322 74 298 140 l 325 66 l 322 61 q 315 49 321 60 q 292 26 308 39 q 250 4 277 14 q 183 -5 223 -5 q 117 5 143 -5 q 76 29 92 16 q 55 53 61 42 q 49 65 49 64 l 46 72 l 49 78 q 79 236 79 152 q 76 293 79 264 q 65 353 73 322 l 65 361 q 79 428 74 395 q 83 492 83 460 q 78 563 83 528 q 61 632 72 597 l 60 637 l 62 643 q 92 791 92 718 q 87 850 92 821 q 74 909 83 879 l 71 918 l 77 925 q 85 933 77 926 q 107 950 92 941 q 145 967 122 960 q 200 974 168 974 q 253 967 231 974 q 290 950 275 960 l 301 950 q 347 944 330 950 q 366 936 364 937 l 374 932 l 375 924 q 472 689 389 784 l 476 685 l 476 681 q 546 489 493 572 l 546 490 q 525 632 546 562 l 525 643 q 554 794 554 718 q 538 909 554 851 l 534 918 l 541 925 q 549 933 541 926 q 571 950 556 941 q 609 967 586 960 q 664 974 632 974 q 720 965 696 974 q 760 947 743 957 q 784 928 776 937 q 793 918 792 919 l 799 911 m 1439 414 q 1432 359 1439 382 q 1415 320 1424 336 q 1397 296 1406 304 q 1388 288 1389 288 l 1381 282 l 1372 285 q 1314 300 1337 295 q 1271 304 1291 304 q 1230 300 1251 304 q 1179 286 1208 296 l 1169 286 q 1112 297 1137 292 q 1063 301 1086 301 q 1008 295 1035 301 q 947 277 982 289 l 940 275 l 935 278 q 922 284 933 278 q 898 307 911 291 q 874 351 885 323 q 864 421 864 378 q 864 433 864 427 q 865 446 864 439 q 863 449 864 447 q 861 452 862 450 q 859 454 859 453 l 854 463 l 857 471 q 872 544 867 507 q 878 619 878 582 q 873 685 878 653 q 861 746 869 718 l 860 753 l 863 758 q 864 764 863 760 q 871 775 865 768 q 866 802 867 787 q 864 835 864 817 q 874 895 864 871 q 896 933 884 919 q 919 953 908 947 q 930 960 929 959 l 937 962 l 943 960 q 1048 940 1000 940 q 1100 943 1072 940 q 1154 956 1127 946 l 1165 956 q 1224 939 1199 944 q 1274 933 1250 933 q 1320 938 1297 933 q 1372 953 1343 943 l 1381 956 l 1388 950 q 1396 943 1388 949 q 1413 922 1404 936 q 1430 885 1422 907 q 1439 832 1438 863 q 1439 822 1439 827 q 1438 812 1439 818 q 1454 790 1449 800 q 1459 778 1459 779 l 1463 772 l 1459 765 q 1437 683 1446 730 q 1429 587 1429 637 q 1432 537 1429 562 q 1442 488 1436 511 l 1443 479 l 1439 472 q 1430 463 1438 472 q 1436 440 1434 452 q 1439 414 1438 427 m 297 904 q 284 914 292 908 q 264 926 276 920 q 236 935 252 931 q 200 939 220 939 q 166 936 181 939 q 140 928 151 932 q 121 918 129 923 q 110 909 114 913 q 122 850 118 879 q 126 790 126 821 q 121 727 126 759 q 106 664 116 695 q 165 672 136 672 q 221 667 202 672 q 248 657 240 663 q 256 643 256 650 q 251 633 256 637 q 241 629 247 629 q 238 631 240 629 q 229 635 235 633 q 210 638 222 637 q 176 640 197 640 q 140 637 159 640 q 98 625 120 633 q 113 560 108 593 q 118 493 118 528 q 114 435 118 465 q 104 376 111 406 q 126 378 115 378 q 147 379 137 379 q 183 377 163 379 q 220 372 203 376 q 250 364 238 369 q 262 351 262 359 q 258 342 262 346 q 249 338 254 338 q 212 342 233 338 q 167 347 191 347 q 134 346 151 347 q 102 342 117 345 q 110 286 108 313 q 113 233 113 259 q 83 72 113 149 q 93 60 86 67 q 111 45 99 52 q 140 33 123 38 q 183 28 158 28 q 227 33 209 28 q 258 44 245 38 q 277 58 271 51 q 288 69 284 65 q 264 210 264 142 q 270 284 264 248 q 290 358 277 321 q 268 498 268 427 q 273 569 268 533 q 289 643 279 605 q 276 700 281 671 q 272 757 272 728 q 278 830 272 793 q 297 904 285 867 m 336 911 l 332 903 q 313 829 319 865 q 307 758 307 794 q 311 703 307 730 q 322 648 314 676 l 322 646 q 352 656 338 652 q 376 662 366 660 q 394 664 387 663 q 401 664 400 664 q 411 660 407 664 q 415 650 415 655 q 411 640 415 644 q 401 636 407 636 q 392 635 400 636 q 372 630 385 634 q 345 620 360 627 q 313 602 329 613 q 307 572 309 587 q 302 545 305 558 q 355 453 334 502 q 389 350 376 405 q 423 369 404 360 q 461 386 442 378 q 499 397 481 393 q 530 401 517 401 q 539 398 536 401 q 545 390 543 395 q 542 379 545 384 q 532 375 538 375 q 469 355 505 371 q 401 318 433 340 q 470 195 446 257 q 497 65 493 133 q 515 56 503 61 q 546 52 527 52 q 612 66 585 52 q 655 98 639 80 q 677 131 671 116 q 685 149 684 146 q 566 412 580 262 q 487 527 517 464 q 443 669 456 589 q 375 780 401 720 q 342 909 350 840 q 338 910 340 909 q 335 911 337 911 l 336 911 m 725 347 q 711 338 722 338 q 675 342 696 338 q 633 347 655 347 l 611 347 q 650 251 625 296 q 714 167 675 205 l 720 163 l 720 155 q 718 142 720 154 q 707 112 716 130 q 678 73 698 94 q 623 36 659 53 l 611 31 q 628 28 618 29 q 647 28 637 28 q 690 33 672 28 q 721 44 709 38 q 740 58 733 51 q 750 69 747 65 q 733 140 739 105 q 728 211 728 176 q 753 358 728 287 q 736 426 741 392 q 730 497 730 460 q 751 643 730 567 q 739 700 743 671 q 734 757 734 728 q 741 830 734 793 q 760 904 747 867 q 747 914 755 908 q 727 926 739 920 q 700 935 715 931 q 664 939 684 939 q 629 936 644 939 q 603 928 614 932 q 584 918 591 923 q 572 909 576 913 q 589 793 589 851 q 568 664 589 726 q 628 672 599 672 q 685 667 667 672 q 711 657 704 663 q 719 647 719 651 q 718 643 718 642 q 714 633 718 637 q 704 629 709 629 q 701 631 703 629 q 692 635 699 633 q 673 638 686 637 q 640 640 661 640 q 603 637 623 640 q 562 625 583 633 q 576 561 571 593 q 581 496 581 528 q 580 472 581 484 q 578 447 579 460 l 593 431 l 599 421 q 601 400 600 410 q 604 379 602 390 q 643 377 622 379 q 682 372 664 376 q 713 363 701 369 q 725 350 725 358 l 725 347 m 1368 114 q 1359 65 1368 85 q 1341 30 1351 44 q 1322 8 1331 16 q 1312 0 1313 1 l 1305 -4 l 1297 -1 q 1218 16 1261 10 q 1132 21 1175 21 q 1058 17 1093 21 q 994 4 1023 13 l 989 1 l 982 4 q 970 11 981 5 q 947 30 960 16 q 925 67 935 44 q 916 126 916 91 q 927 184 916 161 q 951 220 938 207 q 976 238 964 233 q 989 244 987 243 l 1000 244 q 1041 232 1019 237 q 1090 222 1064 227 q 1143 216 1116 218 q 1198 214 1171 214 q 1254 216 1227 214 q 1305 225 1282 218 l 1314 228 l 1321 222 q 1330 215 1322 221 q 1346 195 1337 208 q 1361 162 1354 182 q 1368 114 1368 142 m 1086 454 l 1080 447 q 1073 438 1080 446 q 1054 422 1067 431 q 1020 406 1040 413 q 972 399 1000 399 q 929 404 948 399 q 897 419 911 410 l 897 410 q 904 368 898 385 q 917 338 909 350 q 931 320 924 327 q 943 310 939 313 q 1007 329 978 322 q 1065 335 1037 335 q 1118 330 1090 335 q 1174 318 1145 326 q 1226 332 1203 328 q 1270 336 1249 336 q 1317 331 1293 336 q 1372 318 1341 326 q 1381 330 1376 322 q 1392 348 1387 337 q 1401 373 1397 359 q 1404 404 1404 387 q 1401 440 1404 425 q 1393 468 1398 456 q 1382 487 1388 479 q 1372 500 1376 495 q 1322 487 1345 492 q 1276 482 1300 482 q 1236 485 1257 482 q 1187 496 1215 488 q 1195 463 1193 478 q 1197 432 1197 447 q 1193 380 1197 397 q 1185 357 1190 363 q 1176 350 1181 350 q 1171 350 1172 350 q 1161 355 1165 350 q 1157 366 1157 360 q 1158 368 1157 366 q 1162 375 1160 370 q 1165 391 1164 380 q 1166 421 1166 402 q 1163 458 1166 437 q 1149 500 1159 478 q 1113 496 1131 500 q 1076 490 1095 492 q 1079 476 1078 483 q 1083 463 1081 469 l 1086 454 m 1219 772 l 1219 785 q 1226 797 1220 786 q 1246 819 1232 807 q 1283 840 1260 831 q 1341 850 1307 850 q 1376 846 1361 850 q 1404 836 1392 842 q 1390 891 1402 871 q 1372 918 1379 911 q 1322 905 1345 909 q 1276 900 1300 900 q 1236 903 1257 900 q 1187 914 1215 907 q 1195 881 1193 897 q 1197 850 1197 865 q 1193 799 1197 815 q 1185 775 1190 782 q 1173 770 1179 768 q 1161 774 1166 770 q 1157 783 1157 778 q 1158 786 1157 784 q 1162 794 1160 788 q 1165 810 1164 800 q 1166 839 1166 821 q 1163 876 1166 856 q 1149 920 1159 897 q 1132 913 1145 916 q 1103 909 1118 910 q 1072 907 1087 907 q 1048 907 1057 907 q 996 911 1023 907 q 939 926 968 916 q 926 917 933 923 q 913 899 920 910 q 902 870 906 887 q 897 828 897 852 q 903 786 897 804 q 916 757 908 768 q 931 739 924 745 q 943 729 939 732 q 1008 747 979 742 q 1067 753 1038 753 q 1117 747 1093 753 q 1174 737 1142 742 q 1201 746 1188 742 q 1225 751 1213 749 l 1219 772 m 1335 114 q 1331 143 1335 130 q 1323 167 1328 157 q 1314 184 1319 177 q 1305 195 1309 191 q 1258 187 1284 189 q 1203 184 1232 184 q 1146 186 1175 184 q 1089 192 1117 189 q 1038 201 1062 196 q 994 214 1013 207 q 982 205 989 211 q 967 189 975 199 q 955 163 960 179 q 950 126 950 148 q 955 87 950 104 q 966 60 960 71 q 980 43 972 50 q 991 35 987 37 q 1056 46 1020 42 q 1131 50 1092 50 q 1219 45 1175 50 q 1299 29 1263 39 q 1309 40 1303 33 q 1321 58 1315 47 q 1331 83 1326 69 q 1335 114 1335 96 m 1400 583 q 1408 684 1400 633 q 1429 772 1415 734 q 1421 785 1427 777 q 1405 799 1415 792 q 1379 811 1394 806 q 1341 817 1363 817 q 1303 812 1319 817 q 1276 800 1286 807 q 1259 787 1265 793 q 1250 775 1253 780 q 1265 648 1265 717 q 1250 515 1265 581 q 1262 514 1256 514 q 1274 514 1267 514 q 1320 519 1297 514 q 1372 534 1343 524 l 1381 538 l 1388 532 q 1393 526 1388 530 q 1404 514 1398 522 q 1401 548 1402 530 q 1400 583 1400 566 m 940 693 l 935 696 q 922 703 932 696 q 897 725 911 709 q 906 673 903 700 q 908 621 908 647 q 903 544 908 582 q 888 469 898 505 q 899 459 892 465 q 917 447 906 453 q 941 437 928 441 q 972 433 955 433 q 1002 436 989 433 q 1025 444 1015 439 q 1042 454 1035 449 q 1053 463 1048 459 q 1045 508 1047 484 q 1043 557 1043 532 q 1048 641 1043 599 q 1064 720 1053 683 l 1060 720 q 1007 714 1034 720 q 947 696 981 709 l 940 693 m 1236 646 q 1235 683 1236 665 q 1231 720 1234 702 q 1207 713 1219 718 q 1179 704 1195 709 l 1169 704 q 1129 712 1147 709 q 1095 717 1112 715 q 1078 642 1084 682 q 1072 559 1072 602 l 1072 522 q 1113 527 1092 524 q 1154 538 1133 530 l 1165 538 q 1195 527 1181 531 q 1221 519 1208 523 q 1236 646 1236 583 z "},"$":{"ha":629,"x_min":32,"x_max":596,"o":"m 582 819 q 596 751 596 781 q 589 703 596 721 q 581 684 582 685 l 575 675 l 567 675 q 508 669 531 672 q 466 658 485 665 q 429 639 447 651 q 386 607 411 627 l 376 604 q 336 596 355 600 q 302 587 318 591 q 333 576 316 582 q 372 566 351 571 l 382 559 q 459 488 412 515 q 559 447 507 460 l 567 446 l 571 440 q 573 435 571 439 q 578 424 576 431 q 584 405 581 416 q 586 382 586 395 q 582 346 586 362 q 571 315 578 330 l 582 294 q 596 227 596 256 q 594 199 596 211 q 589 178 591 186 q 584 164 586 169 q 581 158 581 159 l 575 150 l 567 149 q 518 145 538 147 q 481 138 497 142 q 451 126 465 134 q 421 109 437 119 q 413 51 416 80 q 411 -9 411 21 q 413 -65 411 -38 q 422 -115 416 -92 l 425 -123 l 419 -131 q 412 -139 418 -132 q 393 -155 406 -146 q 359 -171 380 -163 q 311 -178 339 -178 q 262 -170 283 -178 q 228 -151 241 -161 q 207 -132 214 -141 q 199 -122 199 -123 l 193 -115 l 196 -106 q 209 -43 204 -76 q 216 26 214 -9 q 194 9 205 18 q 172 -9 182 0 l 167 -14 l 160 -14 q 146 -12 159 -14 q 117 0 134 -9 q 81 28 100 9 q 47 83 62 48 q 35 120 39 103 q 32 151 32 137 q 36 185 32 170 q 46 210 41 200 q 56 225 52 220 q 62 232 61 231 l 66 236 l 74 236 q 128 241 103 237 q 175 254 153 245 q 218 273 197 262 q 262 298 239 284 l 272 307 l 278 311 l 283 311 q 304 312 295 311 q 323 314 314 313 q 282 336 304 326 q 231 358 260 346 l 222 364 q 188 405 203 389 q 155 431 172 420 q 116 450 138 441 q 61 468 94 458 l 52 471 l 49 481 q 47 492 49 482 q 45 517 45 501 q 47 547 45 530 q 58 583 50 564 q 52 595 55 589 q 47 608 50 601 q 35 645 39 628 q 32 676 32 662 q 36 710 32 695 q 46 735 41 725 q 56 750 52 745 q 62 757 61 755 l 66 761 l 74 761 q 149 770 117 761 q 212 794 181 779 q 216 879 216 836 q 213 950 216 916 q 201 1013 210 985 l 199 1019 l 201 1026 q 208 1039 202 1028 q 227 1061 214 1049 q 264 1082 241 1073 q 323 1092 288 1092 q 381 1081 359 1092 q 417 1057 404 1070 q 436 1031 431 1043 q 441 1019 441 1020 l 443 1014 l 441 1007 q 424 942 431 980 q 412 864 416 905 q 443 883 428 872 q 476 908 458 894 l 484 914 l 492 911 q 503 907 492 911 q 526 893 513 903 q 555 865 540 883 q 582 819 570 848 m 554 707 q 559 725 556 713 q 562 753 562 737 q 553 803 562 781 q 531 841 543 825 q 507 865 519 856 q 490 876 495 873 q 452 848 470 860 q 415 828 435 837 q 373 814 396 820 q 318 806 350 809 q 345 763 336 784 q 359 724 355 741 q 363 693 363 706 q 364 677 364 681 q 360 668 364 671 q 350 664 355 664 q 341 668 345 664 q 338 677 338 672 q 336 689 338 678 q 330 718 335 701 q 313 757 324 736 q 281 798 301 778 l 275 793 q 231 769 253 780 q 186 749 210 758 q 137 734 163 740 q 82 728 112 729 q 71 710 77 722 q 65 676 65 697 q 78 613 65 638 q 108 574 92 589 q 138 553 124 559 q 155 546 153 547 q 208 584 183 569 q 257 608 232 598 q 309 624 281 618 q 368 636 336 630 q 414 668 393 656 q 456 688 435 681 q 500 700 477 696 q 554 707 524 703 m 436 221 q 430 221 433 221 q 426 222 427 221 q 422 222 423 222 l 415 224 l 411 229 q 385 261 397 247 q 359 286 372 275 l 318 281 q 346 236 336 258 q 359 195 355 214 q 364 165 363 177 q 364 151 364 153 q 360 142 364 146 q 350 139 355 139 q 341 143 345 139 q 338 153 338 146 q 336 164 338 153 q 330 193 335 176 q 313 230 324 210 q 281 271 301 251 l 275 268 q 231 243 253 254 q 186 223 210 231 q 137 209 163 214 q 82 203 112 203 q 71 185 77 197 q 65 151 65 172 q 78 89 65 114 q 107 49 91 64 q 138 27 123 34 q 155 20 152 20 q 257 86 206 62 q 368 110 309 110 q 414 143 393 130 q 456 163 435 155 q 500 175 477 171 q 554 182 524 178 q 559 200 556 189 q 562 228 562 212 q 550 283 562 254 q 517 254 535 266 q 484 235 500 242 q 454 224 467 228 q 436 221 441 221 m 167 511 l 160 511 q 152 512 159 511 q 133 517 144 513 q 109 529 122 521 q 82 551 96 537 q 78 532 79 541 q 78 515 78 523 q 79 505 78 510 q 79 497 79 500 q 130 479 109 488 q 171 458 152 470 q 208 429 190 446 q 245 387 225 412 q 301 365 276 377 q 349 338 327 353 q 391 302 371 322 q 433 254 412 281 q 445 257 435 254 q 468 265 454 259 q 495 280 481 271 q 523 304 510 290 q 543 338 535 319 q 551 385 551 358 q 550 404 551 396 q 546 416 548 411 q 491 435 516 424 q 445 460 467 446 q 404 491 423 474 q 367 526 385 507 q 325 495 340 510 q 302 467 310 480 q 292 444 294 454 q 287 427 289 434 q 283 415 286 419 q 273 411 281 411 q 263 415 267 411 q 258 425 258 420 l 258 428 q 261 440 258 429 q 272 469 264 452 q 293 506 279 486 q 330 543 307 526 q 291 558 309 551 q 260 574 273 565 q 217 551 238 564 q 172 515 196 537 l 167 511 m 411 1014 q 402 1026 408 1019 q 387 1041 397 1034 q 361 1053 376 1048 q 323 1059 345 1059 q 285 1054 301 1059 q 258 1042 269 1049 q 241 1028 247 1036 q 232 1017 235 1021 q 244 951 240 987 q 248 876 248 915 q 247 844 248 861 q 244 812 245 828 l 262 823 q 267 828 264 826 q 272 833 270 830 l 283 836 q 340 841 316 838 q 383 851 363 845 q 394 941 387 898 q 411 1014 401 983 m 376 78 q 307 69 338 78 q 248 45 276 60 q 241 -35 246 4 q 227 -109 237 -75 q 237 -119 230 -113 q 255 -131 244 -125 q 280 -140 266 -136 q 311 -144 294 -144 q 341 -141 328 -144 q 364 -134 354 -138 q 381 -124 374 -129 q 392 -115 388 -119 q 384 -68 387 -94 q 382 -14 382 -42 q 383 35 382 10 q 387 83 384 60 l 386 82 l 376 78 z "},"%":{"ha":1235,"x_min":31,"x_max":1204,"o":"m 1204 110 l 1203 104 q 1200 98 1202 103 q 1192 86 1198 93 q 1177 72 1186 79 q 1156 58 1168 64 q 1134 24 1146 35 q 1120 11 1121 12 l 1114 7 l 1107 9 q 1045 22 1078 18 q 977 26 1011 26 q 917 23 945 26 q 865 14 888 20 l 856 14 q 841 22 853 14 q 817 49 828 30 q 782 60 795 52 q 760 78 768 69 q 748 95 751 87 q 743 103 744 102 l 743 113 q 751 147 747 126 q 757 194 754 168 q 761 247 760 219 q 762 302 762 275 q 760 370 762 338 q 751 424 758 402 l 749 429 l 753 436 q 758 443 755 439 q 775 457 764 450 q 786 499 778 483 q 804 526 795 516 q 822 539 814 535 q 833 545 831 543 l 843 545 q 914 526 871 533 q 1000 519 956 519 q 1046 522 1024 519 q 1088 529 1068 524 l 1093 530 l 1099 528 q 1103 524 1099 527 q 1113 513 1107 520 q 1124 496 1119 507 q 1133 472 1130 486 q 1161 463 1149 469 q 1180 450 1173 456 q 1192 440 1188 444 q 1197 435 1196 435 l 1202 428 l 1200 421 q 1189 357 1192 395 q 1186 277 1186 318 q 1187 229 1186 252 q 1190 183 1188 205 q 1196 144 1192 162 q 1203 114 1199 126 l 1204 110 m 492 526 l 489 522 q 487 516 489 521 q 479 505 484 511 q 465 491 474 498 q 443 478 456 484 q 421 442 433 454 q 407 429 408 431 l 401 425 l 395 428 q 332 440 366 436 q 264 444 298 444 q 204 441 233 444 q 153 432 176 438 l 142 432 q 128 440 140 432 q 104 467 116 448 q 69 478 83 469 q 46 496 55 487 q 35 513 38 505 q 31 521 31 520 l 31 530 q 38 565 35 544 q 44 611 42 586 q 48 665 47 637 q 50 721 50 693 q 48 788 50 757 q 39 842 45 820 l 36 847 l 40 854 q 45 861 42 858 q 62 875 50 867 q 74 918 65 901 q 92 944 82 934 q 110 957 101 954 q 121 962 118 961 l 131 962 q 201 944 159 951 q 288 937 243 937 q 333 940 311 937 q 374 947 355 942 l 380 949 l 386 946 q 391 942 387 945 q 400 932 395 939 q 411 915 406 925 q 421 890 417 905 q 448 880 436 886 q 467 868 459 874 q 480 858 475 863 q 485 852 484 853 l 489 846 l 488 839 q 477 775 480 814 q 473 694 473 736 q 478 602 473 646 q 490 532 482 557 l 492 526 m 815 851 l 811 846 q 787 796 798 824 q 769 739 777 768 q 757 680 762 709 q 753 624 753 650 q 753 611 753 617 q 754 600 753 606 l 753 591 q 730 540 741 568 q 713 483 720 512 q 702 425 706 454 q 699 370 699 395 q 699 351 699 360 q 701 334 700 342 l 703 329 l 700 325 q 677 278 688 303 q 660 227 667 254 q 649 173 653 200 q 646 119 646 146 q 646 99 646 109 q 648 79 647 89 l 650 74 l 646 69 q 640 63 645 68 q 625 51 635 58 q 600 40 615 45 q 562 35 584 35 q 493 47 518 35 q 454 75 467 60 q 433 117 438 93 l 432 121 l 435 126 q 460 174 449 147 q 480 231 472 201 q 493 292 488 260 q 497 353 497 323 l 497 366 l 498 372 q 519 422 510 395 q 535 480 528 450 q 545 541 542 511 q 549 597 549 571 q 549 613 549 606 q 547 628 549 621 l 546 632 l 549 636 q 574 685 563 657 q 594 744 586 713 q 607 807 602 775 q 611 867 611 838 q 610 879 611 873 q 610 892 610 886 l 608 900 l 614 904 q 619 908 614 905 q 633 915 624 911 q 655 922 642 919 q 686 925 669 925 q 744 915 721 925 q 783 892 768 905 q 804 870 798 880 q 811 859 810 859 l 815 851 m 783 851 q 772 864 780 856 q 753 880 765 872 q 725 893 741 887 q 688 899 709 899 q 655 895 668 899 q 637 886 643 890 l 637 868 q 634 812 637 842 q 623 751 630 781 q 607 693 616 721 q 586 646 597 666 l 600 646 q 639 641 621 646 q 669 631 656 637 q 688 622 682 626 q 696 616 695 617 q 700 607 700 614 q 696 600 700 603 q 689 597 693 597 q 685 601 688 597 q 672 608 682 604 q 647 616 663 612 q 604 619 631 619 q 590 618 597 619 q 575 616 583 618 q 576 605 575 611 q 576 593 576 600 q 573 539 576 568 q 564 482 570 511 q 549 426 557 453 q 530 378 541 399 q 566 372 545 376 q 606 362 587 368 q 638 349 625 356 q 652 336 652 342 q 648 328 652 332 q 640 325 644 325 q 637 325 639 325 q 635 326 636 325 q 584 343 615 337 q 524 351 553 350 q 519 289 524 321 q 507 226 515 257 q 487 166 498 195 q 461 115 475 138 q 468 103 463 112 q 485 84 473 94 q 516 68 497 75 q 564 61 535 61 q 602 69 588 61 q 621 82 615 77 q 618 101 619 92 q 618 121 618 111 q 622 177 618 149 q 632 234 625 206 q 650 288 640 262 q 673 335 661 313 q 672 351 672 342 q 672 368 672 359 q 676 426 672 395 q 687 487 680 456 q 704 548 694 518 q 726 602 714 577 q 726 610 726 606 q 725 621 725 615 q 729 678 725 647 q 741 740 734 709 q 760 800 749 770 q 783 851 770 829 m 1137 440 q 1130 401 1137 418 q 1115 373 1123 385 q 1101 356 1107 362 q 1093 350 1094 351 l 1086 346 l 1079 347 q 1066 351 1073 349 q 1051 354 1059 353 q 1053 331 1053 342 q 1053 307 1053 319 q 1051 250 1053 279 q 1048 194 1050 220 q 1042 146 1046 168 q 1035 110 1039 124 q 1042 100 1037 106 q 1055 88 1046 94 q 1075 79 1063 83 q 1105 75 1088 75 q 1136 80 1123 75 q 1157 90 1149 84 q 1171 102 1166 96 q 1178 111 1176 108 q 1171 142 1174 124 q 1165 182 1167 161 q 1162 228 1163 204 q 1161 277 1161 252 q 1164 358 1161 319 q 1175 422 1168 397 q 1158 431 1168 427 q 1137 443 1148 435 l 1137 440 m 425 859 q 418 820 425 836 q 403 792 411 803 q 388 775 395 781 q 380 768 381 769 l 374 764 l 367 765 q 339 772 353 770 q 340 749 340 761 q 340 725 340 738 q 339 668 340 696 q 335 612 338 639 q 330 564 333 586 q 322 528 326 542 q 329 518 324 524 q 342 506 334 512 q 363 497 351 500 q 393 493 376 493 q 424 497 411 493 q 445 508 436 502 q 458 520 454 514 q 465 529 463 526 q 458 560 461 542 q 453 600 455 578 q 450 646 451 622 q 449 694 449 670 q 452 776 449 737 q 463 840 455 815 q 446 849 456 844 q 425 861 435 854 l 425 859 m 182 696 q 185 777 182 738 q 196 840 189 815 q 186 848 192 843 q 172 857 180 852 q 153 864 163 861 q 127 867 142 867 q 103 864 114 867 q 85 857 93 861 q 72 848 77 852 q 64 842 66 844 q 72 791 69 822 q 74 724 74 760 q 73 666 74 695 q 69 611 71 637 q 63 563 66 585 q 56 528 60 541 q 66 513 58 522 q 92 497 75 503 q 90 512 90 505 q 89 529 89 519 q 98 576 89 557 q 117 605 106 595 q 137 620 128 616 q 147 624 146 624 l 151 627 l 157 624 l 184 615 q 182 654 183 634 q 182 696 182 675 m 895 278 q 898 358 895 320 q 908 422 901 397 q 884 439 900 429 q 840 449 868 449 q 816 446 827 449 q 798 439 806 443 q 784 431 789 435 q 777 424 779 427 q 784 371 782 404 q 786 301 786 338 q 785 245 786 273 q 781 191 783 216 q 776 144 779 165 q 768 110 772 123 q 779 95 770 104 q 804 79 787 85 q 802 94 803 87 q 802 111 802 102 q 810 158 802 140 q 830 187 819 176 q 850 201 841 197 q 860 205 859 205 l 865 208 l 869 205 l 897 197 q 895 237 896 216 q 895 278 895 257 m 222 846 l 221 839 q 217 824 219 831 q 214 807 215 817 q 224 808 218 808 q 239 807 231 807 q 307 803 273 807 q 368 790 340 799 q 377 799 372 793 q 386 813 382 805 q 394 833 391 822 q 397 859 397 844 q 389 901 397 886 q 374 922 380 916 q 336 917 357 918 q 292 916 315 916 q 246 917 269 916 q 200 921 222 918 q 159 928 178 924 q 125 937 140 932 q 108 923 119 934 q 92 889 97 912 q 129 895 107 895 q 166 888 150 895 q 194 874 183 882 q 212 860 205 867 q 218 852 218 853 l 222 846 m 935 428 l 933 421 q 929 406 931 414 q 926 389 928 398 q 937 389 930 390 q 951 389 943 389 q 1020 385 986 389 q 1080 372 1053 380 q 1089 381 1084 375 q 1099 395 1094 387 q 1106 415 1103 404 q 1109 440 1109 426 q 1101 483 1109 467 q 1086 504 1093 498 q 1048 498 1069 500 q 1004 497 1027 497 q 959 498 982 497 q 913 503 935 500 q 871 510 891 506 q 838 519 852 514 q 821 505 831 516 q 804 471 810 494 q 822 475 812 474 q 842 476 831 476 q 879 470 863 476 q 907 456 896 463 q 924 442 918 448 q 930 435 930 435 l 935 428 m 1101 49 q 1057 57 1074 49 q 1029 75 1040 65 q 1015 94 1019 85 q 1010 103 1010 102 l 1010 113 q 1015 132 1013 121 q 1019 158 1017 144 q 976 161 998 159 q 935 166 955 163 q 897 173 914 169 q 865 182 879 176 q 855 175 861 180 q 843 162 849 170 q 833 141 838 154 q 829 111 829 129 q 833 81 829 94 q 842 59 837 68 q 853 45 848 51 q 863 37 859 40 q 916 47 886 44 q 978 50 945 50 q 1046 47 1013 50 q 1108 35 1080 43 q 1114 41 1110 37 q 1121 50 1118 45 q 1111 49 1116 49 q 1101 49 1107 49 m 387 467 q 343 475 361 467 q 316 493 326 483 q 302 512 306 503 q 297 521 298 520 l 297 530 q 307 576 303 548 q 264 579 286 577 q 222 584 243 581 q 184 591 202 587 q 153 600 166 595 q 142 593 149 598 q 131 580 136 589 q 121 559 125 572 q 117 529 117 547 q 120 499 117 511 q 130 477 124 486 q 141 464 135 469 q 150 456 146 458 q 203 465 173 462 q 265 468 233 468 q 334 465 300 468 q 396 453 368 461 q 401 459 398 455 q 408 468 405 463 q 398 467 403 467 q 387 467 393 467 m 924 366 q 920 277 920 323 q 920 233 920 255 q 922 192 921 210 q 971 184 945 187 q 1022 182 996 182 q 1027 238 1025 208 q 1029 300 1029 269 q 1029 330 1029 315 q 1028 359 1028 345 q 988 364 1008 363 q 949 366 968 366 l 924 366 m 211 783 q 207 694 207 741 q 208 651 207 673 q 210 610 208 629 q 258 603 233 606 q 310 600 284 600 q 315 657 313 626 q 317 718 317 688 q 316 748 317 734 q 315 778 315 763 q 276 782 296 781 q 236 783 256 783 l 211 783 z "},"&":{"ha":872,"x_min":-1,"x_max":871,"o":"m 739 718 l 732 713 q 677 661 704 691 q 627 597 650 631 q 585 530 604 564 q 557 467 567 496 l 555 464 q 593 421 574 440 l 599 410 q 601 389 600 399 q 604 368 602 378 q 772 429 694 374 l 779 433 l 787 431 q 797 426 788 431 q 817 410 805 421 q 841 379 828 398 q 863 330 854 359 q 871 275 871 300 q 868 244 871 258 q 861 220 865 230 q 855 205 858 210 q 851 199 852 199 l 847 191 l 839 192 l 815 192 q 755 188 784 192 q 699 175 726 183 l 720 153 l 724 147 l 724 136 q 721 117 724 130 q 710 87 719 104 q 683 54 701 71 q 635 22 665 37 q 595 8 614 12 q 562 4 577 4 q 530 8 544 4 q 507 17 516 12 q 492 26 497 22 q 486 32 487 31 l 482 37 l 482 43 q 477 76 480 60 q 471 110 475 93 q 374 57 418 91 l 364 54 q 350 55 357 54 q 335 56 342 56 q 123 -18 218 56 l 113 -21 q 100 -18 111 -21 q 75 -3 90 -14 q 43 30 60 8 q 16 87 27 51 q 8 118 10 104 q 5 144 5 132 q 10 179 5 164 q 20 204 14 194 q 4 238 9 222 q -1 264 -1 254 q 0 281 -1 275 q 1 289 1 288 l 3 294 l 8 298 q 60 343 32 315 q 114 403 87 370 q 162 472 140 436 q 196 541 184 507 l 200 549 l 207 551 q 217 553 208 551 q 240 555 226 555 q 247 555 243 555 q 254 554 251 554 l 250 558 l 244 570 q 138 821 232 712 l 132 827 l 134 836 q 136 845 134 837 q 145 865 138 852 q 164 891 152 877 q 196 918 176 905 q 214 968 201 949 q 241 997 227 987 q 265 1012 254 1008 q 277 1017 275 1016 l 282 1018 l 289 1015 q 362 989 328 996 q 433 982 397 982 q 464 984 448 982 q 497 986 480 986 l 504 987 l 510 985 q 579 958 550 966 q 639 950 609 950 q 674 952 656 950 q 714 958 692 954 l 722 960 l 729 954 q 735 947 730 954 q 748 929 741 941 q 761 898 755 916 q 766 854 766 880 l 766 838 q 753 788 763 809 q 732 753 743 766 q 737 734 735 743 q 739 726 739 725 l 739 718 m 690 135 q 607 258 637 191 q 567 401 576 325 q 486 518 517 454 q 440 663 455 583 q 334 907 354 765 q 317 911 327 909 q 293 914 307 914 q 241 904 263 914 q 203 881 218 894 q 179 854 188 867 q 168 835 171 841 q 237 727 211 783 q 273 606 263 671 q 314 635 293 625 q 353 651 335 646 q 383 656 370 656 q 399 657 395 657 q 408 653 404 657 q 412 643 412 650 q 409 634 412 637 q 400 631 406 631 q 388 629 399 631 q 360 621 376 627 q 323 602 343 614 q 285 568 303 589 q 354 463 326 519 q 399 342 382 407 q 466 375 430 363 q 530 392 502 387 q 546 376 546 392 q 543 369 546 373 q 536 364 541 364 q 475 345 509 359 q 411 309 441 330 q 514 53 501 187 q 532 43 519 49 q 562 37 544 37 q 624 51 600 37 q 664 83 649 65 q 684 116 678 100 q 690 135 690 132 m 289 510 q 260 521 273 518 q 237 524 247 524 q 229 523 232 524 q 222 522 226 522 q 189 456 211 492 q 139 387 166 420 q 83 323 112 353 q 31 277 54 294 l 31 268 q 37 243 31 260 q 58 209 44 227 q 93 179 72 192 q 144 165 115 165 q 164 168 156 165 q 176 172 172 170 q 203 233 186 201 q 242 297 220 265 q 290 359 264 330 q 342 412 315 389 q 289 510 320 464 m 399 271 q 361 264 380 267 q 322 261 342 262 q 345 189 338 227 q 354 122 353 152 q 351 113 354 117 q 342 110 347 110 q 333 113 336 110 q 329 122 329 117 q 318 185 328 149 q 292 254 309 222 q 263 239 277 245 q 235 227 250 232 q 204 158 214 188 l 201 151 l 196 147 q 180 140 195 146 q 142 134 165 134 q 84 146 109 134 q 41 176 59 159 q 37 143 37 164 q 47 83 37 108 q 71 44 58 59 q 95 21 83 28 q 110 12 106 14 q 339 87 214 87 l 358 87 q 408 118 382 105 q 463 140 434 131 q 399 271 442 210 m 732 854 q 724 901 732 884 q 711 926 717 919 q 674 920 692 922 q 640 918 657 918 q 589 924 615 918 q 526 945 563 930 q 530 904 530 923 q 527 869 530 884 q 519 842 524 853 q 512 824 515 830 q 507 817 508 817 q 503 811 506 812 q 496 810 499 810 q 485 814 488 810 q 482 822 482 818 q 485 826 482 823 q 490 837 487 829 q 496 860 493 846 q 498 897 498 874 q 498 910 498 901 q 496 928 498 919 q 491 945 494 938 q 482 953 488 953 q 461 951 471 951 q 441 951 451 951 q 362 958 401 951 q 281 985 323 965 q 259 970 272 981 q 236 937 245 960 q 264 945 251 943 q 290 947 277 947 q 335 941 317 947 q 354 933 353 935 l 363 929 l 364 920 q 375 860 368 888 q 392 806 381 831 q 440 794 417 802 q 492 779 463 787 l 518 783 q 536 815 528 799 q 550 847 544 831 l 553 856 l 561 860 q 570 862 565 861 q 579 863 574 863 q 593 864 585 864 q 639 858 619 864 q 673 841 659 851 q 699 817 688 830 q 717 790 709 804 q 727 818 723 802 q 732 854 732 835 m 707 730 q 697 758 705 741 q 673 791 688 775 q 636 819 658 808 q 587 831 614 831 l 575 831 q 532 751 560 794 q 471 669 503 708 q 496 577 480 621 q 534 496 511 534 q 566 557 547 524 q 608 621 585 589 q 656 681 631 652 q 707 730 681 709 m 831 224 q 837 244 833 231 q 840 275 840 258 q 833 324 840 302 q 816 360 825 345 q 797 385 806 376 q 783 397 787 394 q 701 355 743 370 q 612 336 659 340 q 677 201 633 264 q 808 224 739 224 l 831 224 m 371 311 q 363 346 368 329 q 353 380 358 363 q 307 332 329 359 q 265 277 284 305 l 292 290 l 298 293 q 338 294 318 293 q 376 300 357 296 q 376 300 376 300 q 375 302 375 301 l 371 311 m 494 749 l 485 749 q 444 762 464 756 q 407 771 425 768 q 429 732 416 751 q 454 696 441 713 q 476 722 466 709 q 496 749 486 735 l 494 749 z "},"'":{"ha":342,"x_min":37,"x_max":307,"o":"m 307 524 l 304 517 q 297 504 304 515 q 275 480 290 493 q 233 456 259 467 q 165 446 206 446 q 105 456 129 446 q 66 478 81 466 q 46 502 52 491 q 40 514 41 513 l 37 519 l 40 525 q 55 580 51 554 q 60 631 60 606 q 56 683 60 656 q 45 736 53 710 l 41 743 l 45 749 q 61 807 56 782 q 66 856 66 833 q 62 902 66 879 q 47 954 57 925 l 45 962 l 49 970 q 57 979 50 970 q 79 996 64 987 q 117 1013 94 1006 q 172 1021 140 1021 q 224 1013 201 1021 q 261 997 246 1006 q 284 980 277 987 q 293 971 292 972 l 300 964 l 297 954 q 282 896 287 920 q 277 852 277 872 q 281 812 277 833 q 294 761 285 791 l 296 753 q 282 697 286 728 q 279 646 279 667 q 286 591 279 618 q 304 529 292 564 l 307 524 m 271 525 q 253 590 258 561 q 248 648 248 619 q 251 702 248 673 q 262 755 254 730 q 249 809 253 786 q 244 852 244 832 q 249 900 244 876 q 262 954 254 924 q 249 965 257 959 q 229 976 241 970 q 202 984 217 981 q 168 987 187 987 q 135 984 150 987 q 110 975 121 980 q 92 964 100 969 q 81 956 85 958 q 94 906 90 928 q 98 861 98 884 q 95 820 98 842 q 85 770 92 798 q 119 778 102 776 q 150 781 136 781 q 200 777 183 781 q 224 768 217 772 q 231 759 231 763 q 231 754 231 755 q 226 744 231 748 q 216 741 222 741 q 214 742 216 741 q 206 745 212 743 q 189 749 200 747 q 160 750 178 750 q 123 746 143 750 q 81 732 102 743 q 86 681 81 706 q 92 629 92 655 q 87 577 92 604 q 74 521 83 550 q 82 509 77 516 q 99 496 88 503 q 125 485 110 490 q 163 481 141 481 q 209 486 190 481 q 240 498 228 491 q 260 512 253 505 q 271 525 267 519 z "},"(":{"ha":538,"x_min":-17,"x_max":546,"o":"m 546 87 l 546 74 q 543 55 546 68 q 531 25 539 42 q 511 -10 524 8 q 481 -43 499 -28 q 439 -68 463 -58 q 385 -78 415 -78 q 361 -76 372 -78 q 343 -71 351 -73 q 332 -65 336 -68 q 328 -62 328 -63 l 321 -53 q 298 8 313 -22 q 263 68 283 39 q 220 125 243 98 q 174 176 197 153 l 168 180 l 167 186 q 113 311 149 256 q 21 410 76 366 l 14 415 l 14 424 q 14 433 14 425 q 20 453 15 440 q 1 480 8 467 q -10 507 -6 494 q -16 527 -14 519 q -17 538 -17 536 l -17 543 l -16 550 l -11 554 q 34 603 14 575 q 70 661 54 630 q 100 725 87 692 q 125 790 114 758 l 125 798 l 131 802 q 261 1034 234 895 l 262 1043 l 271 1046 q 285 1050 272 1046 q 319 1055 298 1055 q 379 1046 353 1055 q 423 1022 404 1036 q 453 991 441 1008 q 472 961 465 975 q 482 938 479 947 q 485 929 485 928 l 488 920 l 481 914 q 399 809 430 863 q 355 692 368 755 l 355 686 l 351 684 q 291 600 321 644 q 243 507 262 556 q 368 338 284 401 l 374 329 q 402 267 386 299 q 439 204 418 235 q 486 146 460 174 q 539 98 511 119 l 545 94 l 546 87 m 450 930 q 438 953 448 938 q 412 983 429 968 q 372 1009 396 998 q 318 1021 349 1021 q 303 1020 310 1021 q 292 1018 296 1019 q 250 900 278 954 q 176 800 221 846 q 228 784 205 795 q 264 762 250 773 q 286 741 279 750 q 294 732 294 732 q 297 722 297 726 q 293 712 297 716 q 283 708 289 708 q 278 710 280 708 q 273 714 276 712 q 264 723 273 715 q 241 740 256 730 q 204 758 226 749 q 154 768 182 766 q 153 765 153 767 q 153 762 153 764 q 128 700 142 732 q 96 638 113 668 q 59 582 79 608 q 17 534 39 555 q 23 514 17 530 q 43 479 28 497 q 84 447 58 461 q 150 432 110 432 q 176 436 165 432 q 192 443 186 439 q 211 515 197 479 q 243 583 224 550 q 282 646 261 616 q 325 703 304 676 q 369 823 338 766 q 450 930 401 880 m 221 424 l 216 419 q 211 415 216 418 q 197 409 206 412 q 176 402 189 405 q 147 399 163 399 q 99 404 120 399 q 61 418 78 408 q 189 227 150 340 q 227 265 207 250 q 263 287 246 279 q 292 297 280 295 q 304 300 303 300 l 307 300 q 316 296 313 300 q 319 286 319 292 q 310 273 319 277 q 299 270 309 273 q 273 257 288 267 q 239 233 257 248 q 207 193 221 217 l 211 187 q 255 137 233 164 q 296 81 277 110 q 329 22 315 52 q 351 -37 343 -8 q 363 -41 355 -39 q 383 -43 372 -43 q 447 -25 422 -43 q 487 13 473 -8 q 508 54 502 35 q 514 77 514 73 q 460 125 486 97 q 412 185 434 153 q 372 250 389 217 q 345 314 355 283 q 278 379 307 343 q 228 458 250 416 q 225 445 226 452 q 222 431 224 438 l 221 424 z "},")":{"ha":536,"x_min":-9,"x_max":554,"o":"m 524 415 l 517 410 q 424 311 460 366 q 370 186 389 256 l 364 176 q 316 132 340 160 q 272 72 292 104 q 237 6 252 39 q 215 -53 222 -26 l 214 -58 l 208 -62 q 203 -65 208 -63 q 192 -71 199 -68 q 175 -76 185 -73 q 151 -78 164 -78 q 98 -68 121 -78 q 57 -43 75 -58 q 26 -11 39 -28 q 6 24 14 7 q -6 55 -2 41 q -9 74 -9 68 q -9 83 -9 80 q -8 87 -8 86 l -7 94 l -1 98 q 51 146 26 119 q 97 204 76 174 q 135 267 118 235 q 164 329 152 299 l 170 338 q 293 504 251 402 q 245 604 274 555 q 184 684 216 652 l 180 692 q 138 809 168 755 q 57 914 107 863 l 50 920 l 52 929 q 54 937 52 928 q 64 960 57 946 q 83 990 71 974 q 113 1022 95 1007 q 157 1046 132 1036 q 216 1055 182 1055 q 251 1050 238 1055 q 265 1046 264 1046 l 273 1043 l 275 1034 q 321 906 289 963 q 407 802 354 848 l 411 798 l 412 790 q 436 725 422 758 q 466 661 450 692 q 503 603 483 630 q 547 554 524 575 l 553 550 l 554 543 l 554 538 q 553 527 554 536 q 547 507 551 519 q 536 480 543 494 q 517 452 529 466 q 522 433 521 440 q 524 424 524 425 l 524 415 m 521 534 q 478 582 498 555 q 440 638 458 608 q 409 700 423 668 q 385 762 395 732 q 384 765 385 764 q 383 768 383 767 q 332 758 355 766 q 295 740 310 749 q 271 723 279 730 q 262 714 263 715 q 258 710 260 712 q 253 708 256 708 q 243 713 248 708 q 239 724 239 718 q 241 732 239 726 q 250 741 242 732 q 273 762 258 750 q 309 784 288 773 q 359 800 331 795 q 244 1018 271 892 q 234 1020 240 1019 q 220 1021 228 1021 q 165 1009 189 1021 q 125 983 142 998 q 99 954 109 968 q 86 930 89 939 q 168 823 136 880 q 212 703 199 766 q 254 646 233 676 q 294 583 275 616 q 326 515 312 550 q 346 443 340 479 q 361 436 351 439 q 386 432 372 432 q 453 447 427 432 q 494 479 479 461 q 514 514 509 498 q 521 534 520 531 m 389 399 q 360 402 372 399 q 339 409 348 405 q 326 415 330 412 q 321 419 321 418 l 315 424 l 314 431 l 309 458 q 258 379 287 416 q 193 314 229 343 q 166 250 183 283 q 126 185 149 217 q 77 125 104 153 q 24 77 51 97 q 30 54 24 73 q 51 13 36 35 q 90 -25 65 -8 q 154 -43 115 -43 q 173 -41 165 -43 q 184 -37 180 -39 q 207 22 193 -8 q 240 81 221 52 q 281 137 259 110 q 325 187 302 164 q 328 190 326 189 q 330 193 329 191 q 299 234 314 219 q 272 257 285 249 q 249 267 260 264 q 232 271 239 269 q 220 276 224 273 q 216 288 216 279 q 220 296 216 293 q 229 300 224 300 l 232 300 q 244 297 233 300 q 274 287 256 295 q 311 265 291 279 q 349 227 331 250 q 478 419 387 342 q 439 404 461 410 q 389 399 417 399 z "},"*":{"ha":718,"x_min":29,"x_max":688,"o":"m 677 786 q 685 761 683 774 q 688 736 688 749 q 685 709 688 722 q 676 685 683 696 l 672 676 l 664 676 q 575 662 618 672 q 492 633 532 651 l 484 631 l 476 635 q 431 722 431 670 q 435 755 431 739 l 436 764 l 444 766 q 602 843 535 791 l 608 847 l 616 846 q 652 823 636 838 q 677 786 668 808 m 450 961 l 447 953 q 427 810 427 882 q 427 793 427 802 q 428 777 427 785 l 428 766 l 421 762 q 358 743 389 743 q 325 748 342 743 q 293 765 309 753 l 286 770 l 286 779 q 288 802 288 791 q 288 825 288 814 q 283 890 288 859 q 269 953 279 922 l 267 961 l 272 966 q 308 994 287 984 q 355 1004 330 1004 q 404 994 380 1004 q 444 966 428 984 l 450 961 m 606 472 l 604 464 q 593 427 603 444 q 567 396 583 409 q 530 375 551 382 q 488 367 510 367 q 461 371 473 367 l 453 372 l 450 380 q 371 539 422 468 l 366 546 l 370 554 q 478 623 400 623 l 486 623 l 490 614 q 539 538 512 572 q 600 478 566 504 l 606 472 m 286 751 q 288 738 288 744 q 289 725 289 731 q 276 673 289 696 q 237 633 262 650 l 231 629 l 222 633 q 138 666 180 654 q 54 681 97 677 l 46 682 l 41 689 q 29 734 29 709 q 35 770 29 753 q 51 803 41 788 q 75 830 61 819 q 106 848 89 842 l 114 851 l 121 846 q 196 797 157 819 q 277 762 235 776 l 285 760 l 286 751 m 353 543 l 347 536 q 265 382 290 463 l 264 374 l 256 371 q 228 367 243 367 q 188 375 208 367 q 153 396 169 382 q 127 428 138 410 q 113 467 116 446 l 111 475 l 118 481 q 181 544 153 510 q 232 615 210 578 l 236 624 l 245 624 q 350 551 322 622 l 353 543 m 652 705 q 657 736 657 719 q 644 784 657 764 q 614 814 631 804 q 544 770 581 789 q 463 739 507 751 q 461 730 461 734 q 461 722 461 726 q 488 665 461 688 q 568 691 528 681 q 652 705 609 701 m 415 951 q 388 968 404 962 q 355 974 372 974 q 326 969 339 974 q 301 954 312 964 q 315 890 311 923 q 319 823 319 858 q 319 804 319 814 q 318 785 319 794 q 358 772 338 772 q 396 783 376 772 l 396 798 q 401 875 396 837 q 415 951 406 913 m 574 460 q 468 591 512 511 q 401 550 422 589 q 476 399 450 481 q 481 398 479 399 q 488 397 484 397 q 515 402 501 397 q 541 414 529 406 q 562 434 553 422 q 574 460 570 446 m 258 736 q 181 771 218 751 q 110 817 144 791 q 74 782 88 805 q 60 736 60 759 q 65 711 60 720 q 146 695 106 707 q 228 664 187 684 q 260 724 260 690 q 259 730 260 727 q 258 736 258 732 m 318 547 q 254 591 300 587 q 205 524 233 556 q 144 464 177 492 q 157 438 149 450 q 177 417 165 426 q 201 402 188 408 q 228 397 214 397 q 233 397 230 397 q 239 399 235 397 q 271 474 252 437 q 318 547 290 511 z "},"+":{"ha":637,"x_min":31,"x_max":607,"o":"m 607 458 q 599 404 607 427 q 582 365 591 380 q 564 340 572 349 q 555 332 556 332 l 549 326 l 539 329 q 481 344 505 340 q 439 349 458 349 q 429 349 433 349 q 421 347 425 349 l 421 326 q 424 271 421 297 q 432 221 426 244 l 433 211 l 429 204 q 422 196 429 203 q 402 180 416 189 q 368 164 389 171 q 319 157 348 157 q 270 165 291 157 q 236 184 250 174 q 215 203 222 195 q 207 212 208 212 l 201 221 l 204 229 q 217 284 212 254 q 225 346 222 315 q 173 338 199 345 q 114 321 146 332 l 102 321 q 89 328 100 321 q 65 350 78 334 q 41 392 52 366 q 31 458 31 418 q 41 519 31 495 q 63 558 51 544 q 86 579 76 573 q 98 585 97 585 l 104 587 l 111 586 q 166 570 140 574 q 218 566 193 566 l 227 566 q 220 622 224 595 q 210 671 216 649 l 210 684 q 216 695 210 684 q 236 718 222 705 q 274 740 250 730 q 332 750 297 750 q 390 739 367 750 q 427 714 413 728 q 445 689 440 701 q 450 677 450 678 l 453 671 l 450 665 q 435 616 441 644 q 425 558 429 589 l 440 558 q 486 563 463 558 q 539 578 509 568 l 547 581 l 554 576 q 563 569 555 576 q 581 548 571 562 q 598 511 590 534 q 607 458 606 489 m 572 457 q 559 515 571 494 q 541 545 548 536 q 491 530 513 535 q 446 525 470 525 q 405 529 427 525 q 354 541 382 533 q 363 506 361 523 q 366 475 366 490 q 361 425 366 441 q 353 401 357 408 q 344 395 348 395 q 339 395 340 395 q 329 399 332 395 q 325 408 325 403 q 327 412 325 410 q 330 419 328 414 q 333 436 332 425 q 335 465 335 446 q 331 503 335 482 q 317 545 327 523 q 266 539 291 545 q 216 533 241 533 q 106 553 164 533 q 94 543 101 549 q 80 526 87 536 q 70 499 74 515 q 65 463 65 484 q 70 416 65 435 q 82 384 75 397 q 97 365 90 372 q 110 354 104 357 q 175 372 145 367 q 233 378 205 378 q 286 374 257 378 q 340 363 315 371 q 394 376 371 372 q 437 380 416 380 q 485 376 460 380 q 539 363 509 371 q 550 375 544 368 q 561 395 555 383 q 569 422 566 407 q 572 457 572 437 m 419 671 q 411 683 417 675 q 395 698 406 691 q 369 710 385 705 q 332 715 353 715 q 293 711 309 715 q 267 699 277 706 q 249 685 256 692 q 240 673 243 678 q 256 567 252 629 q 287 572 271 569 q 322 581 303 575 l 328 583 l 334 581 q 367 570 351 574 q 396 562 382 565 q 406 622 400 594 q 419 671 412 650 m 346 330 l 338 330 q 294 339 314 335 q 254 345 273 343 q 248 282 252 312 q 236 228 243 253 q 247 217 239 223 q 264 205 254 211 q 288 196 275 199 q 319 192 302 192 q 350 195 336 192 q 373 203 363 198 q 389 212 382 208 q 400 221 396 217 q 392 270 395 243 q 390 326 390 297 q 389 334 390 330 q 389 342 389 338 l 346 330 z "},",":{"ha":317,"x_min":-37,"x_max":297,"o":"m 297 36 l 290 31 q 200 -58 235 -12 q 144 -164 165 -104 l 143 -170 l 138 -174 q 122 -179 136 -175 q 89 -183 109 -183 q 45 -174 64 -183 q 13 -152 26 -165 q -11 -123 -1 -139 q -26 -92 -20 -106 q -35 -66 -33 -77 q -37 -50 -37 -54 q -36 -36 -37 -41 q -35 -29 -35 -31 l -33 -24 l -28 -20 q 52 58 20 13 q 110 170 85 103 l 114 178 l 121 180 q 130 182 122 180 q 151 184 138 184 q 208 174 184 184 q 248 148 232 163 q 274 113 264 132 q 289 79 284 94 q 296 53 294 63 q 297 45 297 43 l 297 36 m 265 50 q 256 78 264 60 q 233 111 248 95 q 196 139 218 127 q 147 151 175 151 l 136 151 q 77 42 111 90 q -5 -41 43 -7 q -7 -54 -7 -45 q -2 -75 -7 -60 q 15 -108 3 -91 q 46 -138 26 -125 q 97 -151 66 -151 q 110 -151 104 -151 q 118 -149 115 -150 q 175 -41 139 -89 q 265 50 211 6 z "},"-":{"ha":647,"x_min":35,"x_max":611,"o":"m 611 465 q 603 411 611 434 q 586 371 595 387 q 568 348 576 355 q 559 339 560 340 l 553 334 l 543 335 q 486 350 509 345 q 441 355 463 355 q 401 351 422 355 q 350 338 380 347 l 342 336 q 286 350 317 347 q 235 353 256 353 q 180 347 208 353 q 118 328 153 340 l 106 328 q 93 335 104 328 q 69 357 82 341 q 45 399 56 372 q 35 465 35 425 q 45 526 35 502 q 67 565 55 551 q 91 585 80 579 q 103 591 102 591 l 109 595 l 115 591 q 170 577 144 581 q 221 572 195 572 q 272 576 246 572 q 326 587 297 580 l 332 590 l 338 587 q 396 571 371 576 q 444 566 421 566 q 490 570 467 566 q 543 585 513 575 l 551 587 l 558 583 q 567 576 559 583 q 585 555 575 569 q 602 518 594 541 q 611 465 610 496 m 576 464 q 564 522 575 500 q 545 551 552 543 q 496 537 517 542 q 450 532 474 532 q 409 536 431 532 q 358 547 387 540 q 367 512 365 530 q 370 481 370 495 q 366 432 370 448 q 357 408 361 415 q 348 401 352 401 q 343 401 344 401 q 333 406 337 401 q 329 414 329 410 q 331 417 329 414 q 334 426 332 420 q 337 443 336 432 q 339 472 339 454 q 335 509 339 489 q 321 551 332 530 q 270 546 295 551 q 218 541 244 541 q 166 545 193 541 q 110 558 139 549 q 98 549 105 555 q 84 532 91 543 q 74 506 78 522 q 69 469 69 490 q 74 422 69 441 q 86 391 79 404 q 101 371 94 378 q 114 361 109 364 q 179 379 150 374 q 237 385 209 385 q 290 381 261 385 q 345 370 319 378 q 398 383 375 379 q 443 387 421 387 q 489 382 466 387 q 543 370 513 378 q 554 382 548 374 q 565 402 559 390 q 573 429 570 414 q 576 464 576 444 z "},".":{"ha":281,"x_min":28,"x_max":252,"o":"m 252 161 l 249 151 q 238 112 241 130 q 235 78 235 94 q 236 55 235 65 q 241 33 238 44 l 244 25 l 239 18 q 195 -11 221 -1 q 140 -21 170 -21 q 84 -11 110 -21 q 41 18 58 -1 l 35 25 l 37 33 q 46 82 46 58 q 32 150 46 114 l 28 160 l 35 167 q 80 194 54 184 q 139 204 107 204 q 197 195 170 204 q 244 168 224 185 l 252 161 m 216 150 q 181 168 201 161 q 139 174 161 174 q 98 168 117 174 q 64 151 79 162 q 73 115 70 132 q 77 81 77 98 q 75 56 77 68 q 69 33 73 45 q 101 16 83 22 q 140 9 119 9 q 179 16 160 9 q 210 33 197 22 q 205 55 206 44 q 204 77 204 65 q 216 150 204 110 z "},"/":{"ha":629,"x_min":22,"x_max":608,"o":"m 608 825 l 603 818 q 497 586 509 712 l 493 578 q 420 453 445 516 q 390 322 395 390 l 390 317 l 386 313 q 279 54 288 201 l 279 47 l 273 43 q 267 37 272 41 q 252 29 262 33 q 229 21 243 24 q 196 17 214 17 q 161 20 180 17 q 121 33 142 24 q 63 68 83 48 q 34 105 43 87 q 24 136 25 123 q 22 150 22 149 l 22 157 l 28 163 q 105 273 76 212 q 146 410 134 334 l 150 418 q 249 669 237 533 l 254 679 q 331 791 303 732 q 366 922 359 851 l 367 932 l 374 936 q 391 943 375 937 q 433 949 406 949 q 493 940 467 949 q 538 919 519 932 q 570 890 557 905 q 591 863 583 876 q 602 841 599 850 q 606 833 606 833 l 608 825 m 570 832 q 556 852 566 839 q 529 880 547 866 q 488 904 512 893 q 432 914 464 914 q 412 912 420 914 q 399 909 404 911 q 367 788 390 844 q 301 682 343 732 q 355 670 332 680 q 395 650 378 661 q 420 631 411 640 q 429 623 429 623 q 433 611 433 617 q 429 602 433 606 q 419 599 425 599 q 410 603 414 599 q 399 611 408 604 q 374 626 390 618 q 334 642 357 635 q 281 648 310 648 q 252 529 274 587 q 192 418 229 471 q 233 403 209 413 q 278 382 256 393 q 314 359 299 371 q 329 340 329 348 q 325 329 329 333 q 315 325 321 325 q 311 326 313 325 q 307 329 309 327 q 281 346 296 338 q 250 362 267 355 q 214 376 233 370 q 176 386 195 382 q 133 252 163 313 q 57 143 104 192 q 64 125 58 140 q 86 94 71 111 q 129 65 102 78 q 197 52 156 52 q 228 56 216 52 q 245 64 240 60 q 357 330 256 216 q 389 466 362 401 q 464 595 415 531 q 570 832 478 726 z "},":":{"ha":340,"x_min":58,"x_max":282,"o":"m 282 161 l 279 151 q 269 112 272 130 q 265 78 265 94 q 267 55 265 65 q 272 33 269 44 l 275 25 l 269 18 q 226 -11 252 -1 q 171 -21 200 -21 q 115 -11 140 -21 q 72 18 89 -1 l 65 25 l 68 33 q 77 82 77 56 q 62 150 77 114 l 58 160 l 65 167 q 111 194 84 184 q 170 204 138 204 q 228 195 200 204 q 275 168 256 185 l 282 161 m 248 150 q 212 168 232 161 q 170 174 191 174 q 129 168 148 174 q 94 151 109 162 q 107 81 107 115 q 105 56 107 68 q 100 33 103 45 q 132 16 113 22 q 171 9 150 9 q 209 16 191 9 q 240 33 228 22 q 236 55 237 44 q 235 77 235 65 q 248 150 235 111 m 282 675 l 279 665 q 269 626 272 644 q 265 591 265 608 q 267 568 265 579 q 272 547 269 557 l 275 539 l 269 532 q 226 503 252 513 q 171 493 200 493 q 115 503 140 493 q 72 532 89 513 l 65 539 l 68 547 q 77 596 77 569 q 62 664 77 628 l 58 673 l 65 681 q 111 708 84 699 q 170 718 138 718 q 228 708 200 718 q 275 682 256 699 l 282 675 m 248 664 q 212 682 232 675 q 170 688 191 688 q 129 682 148 688 q 94 665 109 675 q 107 595 107 629 q 100 547 107 571 q 171 524 127 524 q 209 530 191 524 q 240 547 228 536 q 236 568 237 557 q 235 590 235 578 q 248 664 235 625 z "},";":{"ha":375,"x_min":-16,"x_max":319,"o":"m 319 36 l 313 31 q 222 -58 257 -12 q 167 -164 188 -104 l 165 -170 l 160 -174 q 145 -179 159 -175 q 111 -183 131 -183 q 67 -174 86 -183 q 34 -152 48 -165 q 11 -123 20 -139 q -5 -92 1 -106 q -13 -66 -11 -77 q -16 -50 -16 -54 q -14 -36 -16 -41 q -12 -29 -12 -31 l -11 -24 l -5 -20 q 38 16 18 -3 q 75 58 58 35 q 105 109 92 81 q 132 170 119 136 l 136 178 l 143 180 q 152 182 144 180 q 174 184 160 184 q 231 174 207 184 q 271 148 254 163 q 297 113 287 132 q 312 79 307 94 q 318 53 317 63 q 319 45 319 43 l 319 36 m 288 50 q 278 78 286 60 q 255 111 270 95 q 218 139 240 127 q 170 151 197 151 l 158 151 q 99 42 133 90 q 17 -41 65 -7 q 16 -54 16 -45 q 20 -75 16 -60 q 37 -108 25 -91 q 68 -138 48 -125 q 119 -151 89 -151 q 132 -151 127 -151 q 140 -149 137 -150 q 197 -41 161 -89 q 288 50 233 6 m 319 675 l 317 665 q 302 591 302 623 q 304 568 302 579 q 310 547 307 557 l 313 539 l 307 532 q 264 503 290 513 q 208 493 238 493 q 152 503 178 493 q 110 532 127 513 l 103 539 l 106 547 q 114 596 114 570 q 111 629 114 612 q 100 664 107 646 l 96 673 l 103 681 q 149 708 121 699 q 207 718 176 718 q 265 708 237 718 q 313 682 293 699 l 319 675 m 285 664 q 249 682 269 675 q 207 688 229 688 q 166 682 185 688 q 132 665 146 675 q 144 595 144 627 q 143 570 144 582 q 138 547 141 559 q 208 524 165 524 q 247 530 228 524 q 278 547 265 536 q 273 568 275 557 q 272 590 272 578 q 275 626 272 608 q 285 664 279 644 z "},"<":{"ha":619,"x_min":32,"x_max":576,"o":"m 570 313 q 573 300 570 311 q 576 269 576 288 q 567 210 576 235 q 542 165 557 184 q 510 134 527 146 q 478 114 492 121 q 454 104 463 106 q 446 102 444 101 l 436 100 l 431 107 q 390 149 407 133 q 355 176 372 165 q 317 193 338 186 q 265 207 296 199 l 257 211 q 211 254 232 236 q 167 283 189 271 q 119 304 144 296 q 61 318 94 312 l 54 319 l 50 323 q 47 329 50 324 q 41 341 44 333 q 35 362 37 350 q 32 389 32 374 q 38 429 32 408 q 58 478 43 450 q 41 514 48 494 q 35 559 35 534 q 37 582 35 572 q 42 599 39 592 q 48 610 45 606 q 52 615 51 614 l 54 621 l 61 623 q 163 664 116 636 q 239 736 210 692 l 249 742 q 308 760 283 751 q 351 783 332 770 q 386 813 370 795 q 422 854 403 830 l 428 861 l 436 860 q 447 859 437 860 q 473 850 458 857 q 508 829 489 844 q 545 790 527 815 q 570 738 564 763 q 576 693 576 712 q 574 668 576 677 q 572 657 572 659 l 570 648 l 559 646 q 505 627 526 635 q 466 608 483 618 q 434 581 450 597 q 399 541 419 566 l 396 536 l 390 534 q 381 531 386 532 q 371 528 376 530 q 316 503 339 515 q 273 475 293 490 q 322 449 295 461 q 372 436 349 436 l 378 435 l 382 429 q 424 385 405 402 q 463 355 443 367 q 505 336 482 344 q 557 322 527 329 l 567 321 l 570 313 m 542 675 q 543 682 542 678 q 543 692 543 686 q 531 744 543 720 q 502 785 519 768 q 468 813 485 802 q 441 827 451 824 q 411 791 425 806 q 380 763 397 776 q 342 740 363 751 q 290 720 321 730 q 328 682 313 702 q 350 645 342 662 q 360 616 357 628 q 363 604 363 605 l 363 602 q 359 592 363 596 q 349 589 355 589 q 336 597 337 589 q 330 621 334 606 q 310 657 325 636 q 256 703 294 677 q 217 667 237 684 q 176 636 198 650 q 130 611 155 623 q 75 593 104 600 q 71 580 73 587 q 69 561 69 572 q 85 502 69 526 q 120 461 100 477 q 159 438 140 446 q 183 431 178 431 l 187 431 q 229 479 209 459 q 272 513 250 498 q 319 540 294 528 q 375 564 344 551 q 414 606 396 589 q 450 634 431 623 q 491 655 469 646 q 542 675 513 665 m 207 400 l 200 399 q 196 398 199 399 q 186 397 193 397 q 169 400 180 397 q 144 409 158 403 q 114 424 130 414 q 83 447 98 433 q 71 415 76 427 q 65 387 65 402 q 68 363 65 373 q 74 349 71 353 q 136 332 109 342 q 186 309 163 322 q 232 278 210 296 q 277 239 254 261 q 331 222 308 231 q 373 202 354 214 q 410 175 392 191 q 449 136 427 159 q 472 149 456 139 q 504 175 488 159 q 531 216 519 192 q 543 269 543 239 q 543 282 543 277 q 541 292 542 288 q 495 304 515 298 q 457 320 475 311 q 420 345 439 330 q 379 383 401 360 q 362 333 374 355 q 338 297 350 311 q 317 275 326 282 q 307 267 308 267 q 300 264 302 264 q 290 268 296 264 q 285 278 285 271 q 290 289 285 286 q 299 297 291 290 q 317 320 307 305 q 337 357 328 335 q 349 407 346 378 q 345 408 347 407 q 342 408 344 408 q 294 429 317 418 q 250 453 271 439 q 230 431 239 442 q 210 404 220 419 l 207 400 z "},"=":{"ha":673,"x_min":49,"x_max":625,"o":"m 625 673 q 617 619 625 642 q 600 579 610 595 q 583 556 591 564 q 574 547 574 548 l 567 542 l 557 543 q 499 558 522 553 q 456 564 477 564 q 415 559 436 564 q 364 546 394 555 l 355 545 q 300 558 330 555 q 249 561 270 561 q 194 555 221 561 q 132 536 167 549 l 119 536 q 107 544 118 537 q 83 566 96 550 q 59 607 70 581 q 49 673 49 633 q 59 735 49 711 q 82 773 69 759 q 105 794 94 788 q 117 800 115 800 l 122 803 l 129 800 q 184 785 159 789 q 235 781 210 781 q 285 785 260 781 q 340 796 311 789 l 346 799 l 351 796 q 410 779 385 785 q 458 774 435 774 q 505 779 481 774 q 557 793 528 783 l 566 796 l 572 791 q 581 784 573 791 q 599 763 589 777 q 616 726 608 749 q 625 673 624 704 m 590 672 q 586 705 589 690 q 577 730 583 720 q 567 748 572 741 q 558 760 562 755 q 509 745 531 750 q 464 741 488 741 q 423 744 445 741 q 372 755 401 748 q 381 721 378 738 q 383 689 383 703 q 379 640 383 656 q 370 616 375 623 q 361 610 366 610 q 357 610 357 610 q 347 614 351 610 q 343 623 343 618 q 345 626 343 623 q 348 634 346 628 q 351 651 350 640 q 353 681 353 663 q 349 718 353 697 q 335 760 345 738 q 283 754 309 760 q 232 749 258 749 q 180 753 207 749 q 123 766 153 757 q 112 758 119 764 q 99 741 105 751 q 88 714 92 730 q 83 677 83 699 q 89 631 83 650 q 100 599 94 612 q 115 579 107 587 q 127 570 122 572 q 193 587 163 582 q 252 593 223 593 q 304 589 275 593 q 358 578 333 586 q 412 592 389 587 q 457 596 435 596 q 503 591 480 596 q 557 578 526 586 q 567 590 562 583 q 578 610 573 598 q 587 637 583 622 q 590 672 590 652 m 625 326 q 617 272 625 295 q 600 232 610 248 q 583 209 591 216 q 574 200 574 201 l 567 195 l 557 196 q 499 211 522 206 q 456 216 477 216 q 415 212 436 216 q 364 199 394 208 l 355 197 q 300 211 330 208 q 249 214 270 214 q 194 208 221 214 q 132 189 167 201 l 119 189 q 107 196 118 190 q 83 218 96 203 q 59 260 70 234 q 49 326 49 286 q 59 388 49 363 q 82 426 69 412 q 105 447 94 441 q 117 453 115 452 l 122 456 l 129 453 q 184 438 159 442 q 235 433 210 433 q 285 437 260 433 q 340 449 311 441 l 346 452 l 351 449 q 410 432 385 437 q 458 427 435 427 q 505 431 481 427 q 557 446 528 436 l 566 449 l 572 444 q 581 437 573 444 q 599 416 589 430 q 616 379 608 401 q 625 326 624 357 m 590 325 q 586 358 589 343 q 577 383 583 372 q 567 401 572 393 q 558 412 562 408 q 509 398 531 403 q 464 393 488 393 q 423 397 445 393 q 372 408 401 401 q 381 373 378 391 q 383 342 383 356 q 379 293 383 309 q 370 269 375 276 q 361 262 366 262 q 357 262 357 262 q 347 267 351 262 q 343 275 343 271 q 345 278 343 276 q 348 287 346 281 q 351 304 350 293 q 353 334 353 315 q 349 370 353 350 q 335 412 345 391 q 283 407 309 412 q 232 401 258 401 q 180 406 207 401 q 123 419 153 410 q 112 410 119 416 q 99 393 105 404 q 88 367 92 382 q 83 330 83 351 q 89 283 83 302 q 100 252 94 264 q 115 232 107 239 q 127 222 122 225 q 193 240 163 235 q 252 245 223 245 q 304 242 275 245 q 358 231 333 239 q 412 244 389 240 q 457 249 435 249 q 503 244 480 249 q 557 231 526 239 q 567 243 562 235 q 578 263 573 251 q 587 290 583 275 q 590 325 590 305 z "},">":{"ha":619,"x_min":43,"x_max":587,"o":"m 566 319 l 558 318 q 504 305 528 312 q 460 287 481 298 q 421 261 440 276 q 379 227 401 247 q 371 219 375 222 q 364 211 368 215 l 355 207 q 303 193 324 199 q 265 176 282 186 q 231 149 248 165 q 191 107 214 133 l 183 100 l 175 102 q 166 104 176 101 q 142 115 157 107 q 110 135 127 122 q 77 166 92 147 q 53 210 62 184 q 43 269 43 235 q 46 300 43 288 q 50 313 50 311 l 54 321 l 62 322 q 115 336 92 329 q 157 355 138 344 q 196 385 177 367 q 239 429 216 402 l 243 435 l 249 436 q 272 439 259 436 q 297 449 284 443 q 322 461 309 454 q 345 473 334 467 q 295 506 321 492 q 229 534 268 519 l 221 541 q 186 581 201 566 q 154 608 171 597 q 116 627 138 618 q 60 646 94 635 l 52 648 l 49 657 q 45 668 47 659 q 43 694 43 677 q 54 756 43 730 q 81 801 64 783 q 116 831 98 819 q 151 849 135 842 q 176 858 166 855 q 183 860 185 860 l 193 861 l 199 854 q 234 813 218 830 q 269 783 250 795 q 312 760 288 770 q 371 742 336 751 l 378 741 l 380 736 q 457 664 410 692 q 559 623 505 636 l 566 621 l 570 615 q 572 610 570 614 q 577 599 574 606 q 582 582 580 592 q 585 558 585 571 q 578 514 585 534 q 561 478 572 494 q 582 428 576 452 q 587 387 587 404 q 585 361 587 373 q 579 341 582 349 q 573 329 576 333 q 570 323 570 324 l 566 319 m 545 593 q 489 611 514 600 q 443 636 465 622 q 403 667 422 650 q 366 703 384 684 q 324 671 339 686 q 301 644 309 656 q 290 621 293 631 q 285 604 287 611 q 281 593 283 597 q 271 589 278 589 q 261 592 265 589 q 257 602 257 596 l 257 604 q 260 616 258 605 q 271 645 263 628 q 293 682 279 662 q 330 720 307 702 q 279 740 300 730 q 240 763 257 751 q 209 791 223 776 q 178 827 194 806 q 153 813 170 824 q 119 786 136 803 q 89 745 102 768 q 77 690 77 721 q 77 682 77 685 q 78 675 78 678 q 129 655 107 665 q 170 634 151 646 q 206 606 189 623 q 244 564 224 589 q 300 542 275 553 q 348 514 326 530 q 390 478 370 499 q 432 431 410 458 l 436 431 q 460 438 441 431 q 499 460 479 445 q 535 500 519 475 q 551 559 551 525 q 549 579 551 571 q 545 593 547 587 m 435 397 q 429 397 431 397 q 425 398 426 397 q 421 399 422 398 l 414 400 l 410 404 q 389 431 398 419 q 370 453 379 442 q 325 429 348 439 q 278 408 302 418 q 275 408 277 408 q 271 407 273 407 q 283 357 274 378 q 302 320 292 335 q 320 297 313 305 q 329 289 328 290 q 335 279 335 286 q 330 268 335 273 q 321 264 325 264 q 314 267 317 264 q 303 275 313 267 q 282 297 294 282 q 258 333 271 311 q 240 383 246 355 q 200 345 218 360 q 163 320 182 330 q 125 304 145 311 q 79 292 104 298 q 77 282 78 288 q 77 269 77 277 q 89 215 77 239 q 116 175 100 191 q 148 149 132 158 q 172 136 164 139 q 211 175 193 159 q 248 202 229 191 q 289 222 267 214 q 343 239 312 231 q 391 277 370 260 q 434 308 412 294 q 483 331 456 321 q 546 349 509 341 q 551 363 548 353 q 554 387 554 373 q 551 415 554 399 q 538 449 547 431 q 507 425 523 435 q 476 409 490 415 q 451 400 462 403 q 435 397 439 397 z "},"?":{"ha":632,"x_min":35,"x_max":604,"o":"m 595 578 l 585 575 q 517 548 552 565 q 448 509 481 530 q 386 463 415 487 q 336 415 357 439 q 335 394 335 405 q 335 374 335 383 q 336 345 335 359 q 342 318 338 331 l 345 310 l 339 302 q 332 293 338 301 q 312 277 326 286 q 278 261 299 268 q 228 254 257 254 q 179 262 200 254 q 145 280 159 271 q 124 298 132 290 q 117 307 117 307 l 111 315 l 114 323 q 127 363 123 343 q 131 401 131 382 q 126 446 131 425 q 115 489 121 467 l 115 501 q 119 508 116 502 q 129 523 122 515 q 146 540 136 531 q 172 557 157 549 q 183 591 176 578 q 192 606 191 604 l 196 611 l 201 612 q 256 630 227 618 q 317 660 286 643 l 306 660 l 296 663 q 249 693 272 681 q 202 711 225 705 q 154 721 178 718 q 103 724 130 724 l 75 724 l 71 728 q 64 734 69 728 q 52 750 58 739 q 40 778 45 762 q 35 818 35 795 q 43 883 35 856 q 65 928 52 910 q 94 956 79 946 q 121 971 109 966 q 142 978 134 977 q 149 979 150 979 l 155 979 l 160 975 q 256 922 207 939 q 359 905 304 905 l 371 903 q 421 868 399 881 q 466 847 444 854 q 511 838 488 840 q 566 836 535 836 l 575 836 l 579 829 q 583 823 580 828 q 590 808 587 818 q 597 785 594 798 q 600 754 600 771 q 591 700 600 728 q 590 696 590 698 q 589 693 590 694 q 601 659 597 675 q 604 629 604 643 q 601 599 604 610 q 597 586 597 587 l 595 578 m 559 710 q 565 733 563 722 q 567 753 567 743 q 563 783 567 770 q 555 803 559 795 q 509 805 530 803 q 468 812 488 806 q 427 829 448 818 q 379 857 406 840 q 372 803 379 827 q 357 763 366 779 q 341 737 349 746 q 334 728 334 728 q 328 724 331 726 q 322 722 326 722 q 313 726 317 722 q 309 736 309 730 q 313 745 309 741 q 318 753 313 745 q 329 774 323 761 q 340 806 335 787 q 345 848 345 825 q 345 865 345 856 q 336 873 345 873 q 287 882 311 878 q 239 895 262 887 q 193 916 216 903 q 146 946 170 928 q 129 938 141 945 q 102 917 116 932 q 78 878 89 902 q 68 817 68 854 q 71 787 68 799 q 78 769 74 776 q 88 760 83 762 q 97 757 93 757 q 158 753 131 757 q 210 741 185 749 q 258 721 234 733 q 310 693 282 709 q 366 689 342 692 q 411 678 390 686 q 452 659 432 671 q 498 631 473 647 q 513 640 505 633 q 530 655 521 646 q 546 678 538 665 q 559 710 554 692 m 325 161 l 322 151 q 312 112 315 130 q 309 77 309 93 q 310 55 309 65 q 315 33 312 44 l 318 25 l 311 18 q 269 -11 294 -1 q 212 -21 243 -21 q 157 -11 183 -21 q 114 18 132 -1 l 109 25 l 111 33 q 117 56 115 45 q 118 79 118 68 q 104 150 118 114 l 102 160 l 109 167 q 154 194 127 184 q 211 204 180 204 q 270 195 243 204 q 317 168 298 185 l 325 161 m 496 593 l 488 599 q 452 622 468 612 q 424 638 437 631 q 398 649 410 644 q 371 656 385 653 q 287 612 329 631 q 214 585 245 593 q 207 570 210 579 q 204 547 204 561 q 212 506 204 524 q 231 475 219 488 q 255 454 242 463 q 281 441 269 446 q 302 435 293 437 q 313 433 311 433 q 363 483 333 457 q 428 531 393 508 q 500 573 463 554 q 570 602 536 591 q 572 612 571 606 q 572 625 572 618 q 572 638 572 631 q 570 652 571 644 q 548 626 559 636 q 527 609 536 615 q 511 599 517 602 q 504 596 505 596 l 496 593 m 174 519 q 155 506 162 513 q 146 493 148 498 q 158 441 154 464 q 163 400 163 419 q 158 360 163 378 q 146 322 153 341 q 157 312 150 318 q 175 301 164 307 q 199 291 186 295 q 231 288 213 288 q 260 291 248 288 q 283 299 273 294 q 299 309 293 304 q 310 318 306 315 q 306 348 308 333 q 304 376 304 363 q 304 389 304 382 q 306 403 304 395 q 278 408 298 403 q 236 427 258 414 q 197 463 215 441 q 174 519 178 486 m 289 150 q 253 168 274 161 q 211 174 233 174 q 136 151 166 174 q 149 79 149 113 q 148 56 149 68 q 143 33 146 45 q 174 16 156 22 q 212 9 193 9 q 252 16 233 9 q 283 33 270 22 q 279 55 280 44 q 278 78 278 66 q 281 112 278 94 q 289 150 283 130 z "},"@":{"ha":1128,"x_min":47,"x_max":1101,"o":"m 781 668 q 780 652 781 660 q 778 639 779 645 q 795 618 789 627 q 800 607 800 608 l 803 603 l 800 597 q 790 553 794 578 q 784 499 786 528 q 784 442 783 471 q 789 386 785 413 q 794 387 791 386 q 800 389 797 387 l 806 389 l 810 387 q 857 369 837 376 q 896 359 877 363 q 886 409 894 384 q 860 472 878 435 l 859 476 l 859 481 q 856 535 858 513 q 849 575 854 557 q 836 612 844 593 q 812 657 827 631 l 810 661 l 811 667 q 813 707 812 689 q 813 741 814 725 q 809 771 812 756 q 800 802 806 786 q 731 805 764 808 q 661 791 698 802 l 657 790 l 653 791 q 592 806 621 801 q 537 810 564 810 q 485 805 511 810 q 432 790 459 800 l 428 787 l 422 790 q 342 811 380 806 q 264 810 304 816 q 258 725 256 765 q 272 640 260 684 l 273 636 l 272 632 q 257 565 262 596 q 253 505 253 534 q 259 447 254 475 q 273 389 264 419 l 275 383 l 273 378 q 252 281 256 327 q 257 187 248 236 q 309 169 283 174 q 367 163 334 165 l 378 163 l 382 164 l 386 161 q 428 136 410 145 q 464 121 446 126 q 500 115 481 116 q 543 115 519 114 l 550 115 l 554 110 q 559 102 555 109 q 568 83 564 96 q 574 51 572 70 q 570 9 575 33 q 553 -31 564 -14 q 531 -58 542 -47 q 513 -72 521 -68 q 504 -77 505 -77 l 497 -79 l 490 -75 q 450 -52 467 -60 q 419 -38 434 -43 q 387 -33 404 -34 q 345 -33 370 -33 l 340 -33 l 336 -32 l 322 -24 q 282 -6 300 -13 q 247 5 264 1 q 210 9 229 9 q 165 8 190 10 l 160 7 l 155 11 q 143 23 153 12 q 126 57 133 34 q 90 73 104 62 q 66 94 75 83 q 54 114 58 105 q 50 123 50 122 l 47 129 l 50 135 q 68 193 62 165 q 77 251 75 222 q 75 311 79 279 q 64 378 72 342 l 64 382 l 65 386 q 78 450 73 420 q 81 509 82 480 q 76 566 81 537 q 61 625 71 595 l 60 631 l 62 636 q 81 697 75 668 q 89 756 87 727 q 85 815 90 785 q 72 878 81 845 l 71 886 l 75 893 q 79 899 76 894 q 88 910 81 903 q 105 923 94 916 q 132 933 116 929 q 146 971 136 956 q 165 996 155 986 q 183 1009 175 1005 q 192 1014 191 1013 l 197 1015 l 203 1014 q 255 995 230 1002 q 307 986 281 988 q 361 988 333 985 q 422 999 390 991 l 427 1000 l 429 999 q 487 986 460 990 q 541 982 515 981 q 592 987 567 983 q 646 1002 618 992 l 652 1003 l 656 1002 q 765 975 713 978 q 876 990 817 971 l 884 993 l 889 987 q 894 984 890 987 q 904 975 899 981 q 916 958 910 968 q 926 932 922 947 q 951 918 942 926 q 962 911 961 911 l 968 905 l 968 897 q 967 843 966 865 q 971 802 967 821 q 982 764 975 783 q 1003 720 989 745 l 1006 715 l 1006 711 q 1007 653 1006 675 q 1013 611 1008 630 q 1027 574 1018 593 q 1051 529 1036 555 l 1054 525 l 1053 519 q 1052 464 1051 487 q 1058 419 1053 440 q 1073 377 1063 399 q 1099 328 1082 356 l 1101 322 l 1101 317 q 1100 309 1101 315 q 1093 292 1098 302 q 1078 270 1088 281 q 1054 249 1069 259 q 1042 211 1050 227 q 1025 184 1034 195 q 1008 169 1016 174 q 1000 163 1001 163 l 993 158 l 986 163 q 934 179 956 173 q 893 187 913 185 q 853 187 874 189 q 804 179 833 185 l 800 179 l 796 180 q 739 196 762 191 q 697 202 716 201 q 657 200 677 203 q 607 189 637 196 l 602 187 l 597 191 q 543 208 566 202 q 499 215 520 214 q 454 213 477 216 q 399 201 431 210 l 392 200 l 386 203 q 378 208 385 203 q 361 223 370 213 q 343 250 352 233 q 332 290 334 267 q 310 306 319 297 q 296 321 301 314 q 288 334 290 329 q 285 340 285 339 l 282 346 l 285 353 q 309 408 298 377 q 327 470 319 438 q 336 533 334 502 q 336 589 339 564 l 336 595 l 339 599 l 342 602 q 330 628 334 613 q 325 664 325 643 q 332 711 323 692 q 350 740 340 729 q 369 755 360 751 q 378 760 377 760 l 383 762 l 387 761 q 429 750 409 753 q 467 747 448 747 q 505 749 486 747 q 545 754 524 751 l 555 758 l 559 760 l 564 758 q 610 745 590 749 q 649 741 631 741 q 686 745 667 741 q 728 755 704 749 l 734 758 l 741 754 q 747 749 741 754 q 761 733 753 744 q 774 707 768 723 q 781 668 780 690 m 199 791 l 193 789 l 187 791 q 177 796 186 792 q 158 811 169 800 q 139 842 148 822 q 129 897 130 863 q 115 887 119 892 q 106 878 110 882 q 117 820 113 848 q 120 766 121 793 q 115 712 119 739 q 102 656 111 685 q 147 664 128 664 q 178 660 166 663 q 196 652 191 656 q 203 647 202 648 q 210 631 214 642 q 203 623 208 625 q 193 624 199 621 q 186 628 193 625 q 169 632 180 631 q 138 631 157 634 q 96 618 120 629 q 108 564 104 589 q 112 512 112 538 q 110 458 113 486 q 100 400 106 431 q 132 403 118 403 q 159 401 146 403 q 183 396 172 399 q 208 389 195 393 q 216 382 214 387 q 216 372 218 378 q 212 366 215 368 q 204 364 208 364 l 201 364 q 178 370 189 368 q 154 373 166 372 q 129 372 142 374 q 98 368 115 371 q 107 302 105 332 q 108 243 110 272 q 99 187 106 215 q 81 129 92 159 q 87 117 83 124 q 99 103 91 110 q 121 92 107 97 q 158 87 135 87 q 196 92 182 87 q 220 103 211 96 q 233 116 229 109 q 240 127 237 123 q 224 194 229 162 q 219 256 218 225 q 225 317 219 286 q 241 383 231 349 q 227 445 231 415 q 221 505 222 474 q 226 567 221 535 q 240 636 231 600 q 227 719 229 679 q 231 802 224 760 q 215 797 223 800 q 199 791 207 795 m 1074 318 q 1047 371 1057 349 q 1032 415 1037 393 q 1026 460 1027 436 q 1026 518 1025 484 q 1002 565 1011 545 q 988 605 993 585 q 982 648 983 625 q 979 708 980 672 q 958 754 966 734 q 946 794 950 774 q 941 837 942 814 q 942 892 941 860 q 929 899 937 895 q 911 905 922 903 q 889 909 901 908 q 861 905 876 909 q 819 884 833 898 q 800 863 805 871 q 822 817 814 836 q 833 780 829 798 q 839 742 838 762 q 839 693 840 722 q 878 711 859 706 q 911 716 897 715 q 936 714 926 716 q 946 713 945 713 q 953 707 950 711 q 954 697 956 703 q 951 689 954 692 q 943 689 947 687 q 933 690 942 689 q 909 688 924 690 q 878 680 895 686 q 842 659 860 673 q 862 617 854 633 q 874 584 870 600 q 881 550 879 568 q 885 501 883 531 q 944 516 913 513 q 997 517 974 520 q 1005 513 1002 517 q 1008 504 1008 509 q 1006 497 1008 500 q 1000 493 1004 494 l 997 493 q 946 489 975 495 q 890 469 916 482 q 911 417 904 439 q 922 376 919 395 q 924 335 925 356 q 921 283 924 314 q 930 274 924 279 q 948 264 937 269 q 972 259 958 260 q 1006 262 987 258 q 1037 275 1024 267 q 1057 290 1049 282 q 1068 306 1065 298 q 1074 318 1072 313 m 774 857 l 770 864 l 772 871 q 777 880 773 871 q 790 898 781 888 q 815 920 800 909 q 854 936 831 930 q 872 939 864 938 q 889 939 880 940 q 882 950 886 946 q 876 958 878 954 q 823 946 848 950 q 774 943 798 943 q 725 948 749 943 q 673 961 700 952 q 682 917 682 935 q 679 886 682 898 q 671 867 675 873 q 667 860 667 861 q 661 854 665 856 q 652 854 656 852 q 645 861 647 857 q 646 869 644 865 q 648 877 646 870 q 653 895 651 883 q 652 924 654 906 q 640 966 650 942 q 591 955 614 959 q 544 951 567 951 q 496 954 520 951 q 443 962 471 956 q 445 931 445 945 q 444 905 446 917 q 439 881 442 892 q 432 856 436 869 q 427 848 431 850 q 418 847 422 845 q 410 859 410 849 l 410 863 q 418 909 416 886 q 412 965 419 931 q 354 956 381 958 q 300 956 326 954 q 250 965 275 958 q 197 982 224 971 q 186 976 193 979 q 173 963 180 972 q 162 941 167 955 q 158 904 158 927 q 162 867 158 881 q 173 844 167 852 q 185 830 179 835 q 196 823 192 826 q 256 839 227 833 q 312 844 284 844 q 368 838 340 844 q 428 821 397 832 q 483 836 456 831 q 537 841 510 841 q 594 837 565 842 q 657 822 623 832 q 785 835 722 841 l 774 857 m 1013 232 q 961 229 983 224 q 926 243 940 234 q 905 260 911 252 q 897 271 898 269 l 893 277 l 895 282 q 897 309 896 296 q 897 332 897 321 q 865 339 882 335 q 827 351 848 344 q 832 308 833 328 q 827 273 831 288 q 819 249 823 258 q 814 239 814 239 q 807 234 812 235 q 798 235 802 233 q 791 250 787 239 q 795 259 792 251 q 801 283 799 268 q 802 317 804 298 q 791 358 801 336 q 746 350 764 353 q 711 349 728 348 q 676 353 694 349 q 628 364 657 357 q 626 300 631 332 q 611 245 620 269 q 595 239 606 237 q 586 250 586 243 q 587 254 586 253 q 599 306 596 275 q 596 367 602 336 q 540 362 563 363 q 497 365 517 361 q 456 375 477 368 q 407 393 435 382 q 396 386 403 391 q 382 372 389 381 q 369 349 375 363 q 363 314 363 334 q 365 280 361 294 q 374 255 369 265 q 386 238 380 245 q 396 229 392 232 q 455 241 430 237 q 502 242 479 244 q 548 234 524 241 q 604 216 572 228 q 656 227 635 224 q 699 230 678 231 q 743 223 719 229 q 802 207 766 217 q 851 215 830 213 q 893 215 873 217 q 936 207 913 213 q 989 191 958 201 q 1003 206 994 196 q 1018 233 1012 216 q 1015 232 1017 232 q 1013 232 1014 232 m 550 603 l 570 599 q 613 609 594 606 q 650 612 632 612 q 686 608 667 612 q 728 599 704 605 q 735 608 730 602 q 744 623 740 614 q 751 643 748 631 q 753 668 753 654 q 743 710 753 695 q 728 732 734 726 q 692 722 708 726 q 660 718 676 719 q 625 720 644 718 q 582 728 606 722 q 590 690 589 707 q 588 659 590 672 q 582 637 585 645 q 579 628 579 629 q 573 623 577 625 q 564 624 568 621 q 558 629 559 625 q 558 636 557 632 q 561 645 559 637 q 565 666 564 652 q 563 696 566 679 q 551 732 561 713 q 546 730 549 730 q 506 725 526 727 q 467 724 487 724 q 427 726 448 724 q 385 736 407 729 q 375 729 381 734 q 364 716 370 724 q 354 694 358 707 q 351 664 351 682 q 354 638 351 649 q 361 619 357 627 q 395 633 374 628 q 446 632 415 638 q 474 623 463 628 q 494 610 485 617 q 521 607 508 608 q 550 603 534 605 m 272 131 l 273 125 l 271 118 q 266 107 270 117 q 251 86 262 98 q 217 64 239 74 q 158 54 195 54 l 157 54 q 163 42 159 47 q 168 35 166 37 q 214 35 193 36 q 254 30 235 34 q 291 19 273 26 q 328 1 309 12 q 337 -3 332 -1 q 346 -8 342 -5 q 391 -9 372 -7 q 427 -16 410 -11 q 461 -30 444 -21 q 498 -50 477 -38 q 509 -42 503 -47 q 521 -29 515 -37 q 533 -10 528 -21 q 543 16 539 1 q 545 63 549 44 q 536 89 541 81 q 499 88 516 87 q 467 93 483 89 q 434 104 451 96 q 395 125 416 112 q 392 82 396 101 q 381 50 387 64 q 369 29 374 37 q 363 21 363 22 q 356 17 360 18 q 349 20 352 16 q 344 26 345 22 q 346 33 344 30 q 351 42 347 34 q 360 63 355 50 q 367 95 365 77 q 366 136 370 114 l 361 136 q 312 143 336 138 q 264 155 288 147 l 272 131 m 775 600 q 766 610 773 604 q 758 595 762 602 q 749 585 753 589 l 741 576 l 734 572 l 728 575 q 693 583 708 580 q 667 588 679 587 q 644 590 654 590 q 621 587 633 589 q 639 494 634 547 q 640 387 644 440 q 675 379 659 382 q 704 376 690 376 q 732 376 718 375 q 764 380 747 377 q 759 438 760 408 q 760 497 758 468 q 765 554 762 527 q 775 600 769 581 m 403 421 l 408 422 l 414 419 l 447 406 q 472 489 458 448 q 501 555 486 530 q 497 567 500 559 q 487 581 494 574 q 469 595 480 589 q 440 604 457 601 q 409 607 422 608 q 386 602 396 606 q 370 594 376 598 q 361 586 364 589 q 360 530 363 561 q 351 466 357 498 q 333 402 344 433 q 310 347 323 372 q 317 335 312 342 q 330 322 322 328 q 345 371 334 352 q 369 401 356 390 q 391 416 381 412 q 403 421 401 420 m 528 551 l 525 546 q 493 480 508 520 q 469 397 478 440 q 499 390 484 393 q 529 388 513 388 q 564 390 545 388 q 608 396 583 392 l 611 397 l 615 396 q 613 493 618 444 q 596 581 608 543 l 575 575 l 571 574 l 567 575 q 558 577 562 576 q 550 578 554 578 l 517 583 q 524 565 522 573 q 526 555 526 557 l 528 551 z "},"A":{"ha":705,"x_min":-5,"x_max":729,"o":"m 725 354 q 729 313 729 332 q 725 275 729 292 q 716 247 721 258 q 706 228 711 235 q 701 220 702 220 l 696 212 l 686 214 q 667 215 677 215 q 648 215 658 215 q 672 151 658 182 q 704 90 686 119 l 711 79 l 703 69 q 695 62 702 68 q 676 47 689 56 q 643 29 663 39 q 596 14 623 20 q 571 8 583 10 q 546 7 558 7 q 514 9 528 7 q 489 16 499 12 q 473 22 479 20 q 467 25 467 25 l 457 31 l 458 41 q 459 58 458 50 q 460 75 460 66 q 452 168 460 122 q 447 165 449 165 l 437 163 q 350 157 395 163 q 261 138 305 152 l 261 117 q 265 58 261 87 l 267 52 l 262 46 q 256 39 262 45 q 237 24 250 32 q 204 9 224 16 q 157 3 184 3 q 71 18 102 3 q 22 54 39 34 q -4 104 3 76 l -5 110 l -1 115 q 50 228 33 168 q 66 358 66 288 l 66 382 l 69 390 q 108 495 96 443 q 121 602 121 548 q 120 629 121 615 q 118 656 119 642 l 117 663 l 121 668 q 186 884 186 768 q 185 905 186 894 q 183 928 184 916 l 183 936 l 189 942 q 196 947 190 943 q 214 957 203 951 q 242 966 226 962 q 281 970 259 970 q 352 957 323 970 q 400 928 382 944 q 427 900 418 913 q 436 886 435 887 l 440 878 l 436 869 q 433 865 433 867 l 443 865 q 490 861 473 865 q 509 857 507 857 l 517 851 l 515 842 q 514 826 514 833 q 514 810 514 818 q 571 589 514 689 l 574 581 l 574 562 q 576 495 574 527 q 587 433 579 463 q 614 445 601 439 q 639 458 627 451 l 646 463 l 654 460 q 664 454 655 459 q 683 436 672 448 q 706 404 694 424 q 725 354 718 384 m 401 878 q 388 893 397 884 q 364 912 378 903 q 329 928 349 921 q 281 935 308 935 q 241 930 257 935 q 218 921 226 925 q 220 902 220 911 q 220 884 220 893 q 206 778 220 828 q 167 679 193 728 q 177 680 172 679 q 187 681 182 681 q 235 675 214 681 q 271 663 256 670 q 295 651 286 656 q 304 644 304 645 q 311 633 311 640 q 306 623 311 626 q 296 619 301 619 q 289 623 291 619 q 281 627 288 623 q 261 635 274 631 q 232 643 249 640 q 193 647 214 647 q 154 643 175 647 q 155 625 154 633 q 155 607 155 616 q 110 399 155 500 q 155 392 129 397 q 204 380 180 387 q 244 363 228 372 q 261 345 261 354 q 257 335 261 338 q 248 332 253 332 q 243 333 245 332 q 240 334 242 334 q 177 356 215 347 q 102 364 139 364 q 84 225 102 288 q 31 103 67 161 q 39 87 33 98 q 61 65 46 76 q 99 45 75 54 q 157 36 122 36 q 207 45 189 36 q 231 61 224 55 q 228 88 229 75 q 228 115 228 102 q 243 233 228 176 q 289 345 258 290 q 285 399 285 372 q 299 511 285 455 q 343 625 314 566 q 342 642 342 633 q 342 659 342 650 q 356 770 342 715 q 401 878 371 825 m 435 196 q 533 235 481 222 q 642 249 585 249 q 661 249 651 249 q 681 248 670 249 q 691 272 685 255 q 697 311 697 288 q 691 356 697 336 q 676 391 685 376 q 659 413 668 405 q 646 425 650 422 q 446 371 549 371 q 430 371 437 371 q 415 372 422 371 q 436 317 431 343 q 441 272 441 291 q 440 247 441 256 q 436 233 439 237 q 431 228 434 229 q 424 227 427 227 q 415 230 418 227 q 412 239 412 233 l 412 257 q 411 278 412 265 q 407 305 410 290 q 396 336 403 319 q 378 370 389 353 q 354 356 370 362 q 322 346 338 350 q 323 345 322 345 q 323 343 323 345 l 325 338 l 321 332 q 284 255 298 294 q 264 174 270 216 q 352 192 309 187 q 435 196 396 196 m 511 574 q 506 565 510 568 q 497 562 501 562 q 494 563 496 562 q 491 563 493 563 q 488 564 490 564 q 450 558 474 564 q 400 533 425 552 q 398 532 399 533 q 396 532 397 532 q 439 404 425 465 l 443 404 q 557 421 502 404 q 543 495 547 456 q 539 576 539 534 q 479 808 479 686 q 480 820 479 814 q 481 832 481 825 q 470 834 479 833 q 450 835 462 835 q 433 835 441 835 q 416 833 425 835 q 385 745 395 789 q 375 656 375 701 q 375 639 375 647 q 376 623 375 631 l 378 618 l 375 614 q 374 612 374 612 l 374 612 q 382 581 378 597 q 387 562 387 565 q 436 584 413 579 q 476 589 460 589 q 506 586 500 589 q 511 575 511 583 l 511 574 m 484 183 q 491 132 489 157 q 493 81 493 106 l 493 52 q 515 44 501 47 q 549 41 530 41 q 590 46 570 41 q 625 58 610 52 q 652 73 641 65 q 668 85 663 80 q 637 148 650 116 q 614 214 623 180 q 547 204 579 212 q 484 183 514 197 m 350 559 q 327 479 334 519 q 319 400 319 439 l 319 382 q 375 406 349 392 l 386 408 q 395 406 391 407 q 404 406 400 406 q 386 465 397 435 q 359 528 374 495 l 350 559 z "},"B":{"ha":741,"x_min":39,"x_max":732,"o":"m 694 564 l 686 561 q 532 486 597 536 q 606 435 566 456 q 692 401 645 414 l 700 399 l 704 390 q 706 379 704 389 q 708 354 708 370 q 706 330 708 340 q 701 309 705 319 q 718 265 713 288 q 722 227 722 242 q 717 182 722 199 q 710 164 711 165 l 705 157 l 696 155 q 463 54 557 139 l 454 50 q 392 36 420 43 q 337 16 363 28 q 286 -12 311 5 q 237 -52 262 -28 l 225 -57 q 214 -56 224 -57 q 190 -50 205 -55 q 158 -32 176 -44 q 125 3 141 -20 q 84 19 100 9 q 59 40 68 30 q 45 59 49 51 q 41 68 41 66 l 39 75 l 41 81 q 64 158 57 119 q 72 239 72 197 q 69 296 72 267 q 58 355 66 325 l 58 364 q 72 430 66 397 q 77 494 77 462 q 71 566 77 531 q 54 635 64 600 l 53 640 l 56 646 q 85 794 85 720 q 80 853 85 824 q 66 913 76 882 l 64 921 l 69 928 q 75 933 70 928 q 89 946 79 939 q 113 960 98 953 q 149 971 128 967 q 179 1005 162 993 q 211 1024 196 1018 q 236 1032 227 1030 q 245 1034 246 1034 l 253 1034 l 258 1029 q 302 996 280 1010 q 347 971 323 981 q 397 953 370 960 q 454 940 423 946 q 461 939 458 939 q 468 939 465 939 l 473 939 l 479 935 q 531 895 507 911 q 583 867 556 878 q 638 850 609 856 q 703 842 667 844 l 711 842 l 717 833 q 719 828 717 833 q 724 814 722 823 q 729 793 727 806 q 732 766 732 781 q 729 738 732 753 q 721 705 727 723 q 697 660 711 677 q 702 636 701 647 q 704 615 704 625 q 701 585 704 596 q 697 572 697 574 l 694 564 m 254 350 q 241 340 252 340 q 206 345 226 340 q 163 350 186 350 q 129 349 146 350 q 94 345 111 348 q 103 289 101 316 q 106 236 106 262 q 104 197 106 216 q 98 158 102 178 q 109 176 104 170 q 115 183 114 182 l 121 189 l 127 189 q 195 199 164 191 q 257 222 227 208 q 264 292 257 257 q 283 361 271 326 q 267 430 272 395 q 261 501 261 465 q 266 572 261 536 q 282 646 271 608 q 265 757 265 699 l 265 764 q 218 775 242 771 q 165 781 195 779 l 158 781 l 154 786 q 148 792 153 787 q 138 808 143 798 q 128 834 132 819 q 123 871 123 850 q 131 929 123 903 q 114 920 120 924 q 103 913 107 916 q 115 853 111 882 q 119 793 119 823 q 114 730 119 762 q 98 667 109 698 q 129 673 114 671 q 158 675 144 675 q 214 670 195 675 q 241 660 233 665 q 249 646 250 653 q 244 636 249 640 q 235 632 240 632 q 231 634 233 632 q 222 637 229 635 q 203 641 215 640 q 170 643 191 643 q 133 640 153 643 q 92 628 113 636 q 106 563 101 595 q 111 496 111 530 q 107 438 111 467 q 97 379 104 408 q 117 381 108 380 q 138 382 127 382 q 174 380 153 382 q 212 375 194 378 q 243 367 231 372 q 256 354 256 361 q 255 352 256 353 q 254 350 254 351 m 690 810 q 631 818 658 812 q 581 833 605 823 q 533 856 557 842 q 485 889 510 869 q 475 837 484 860 q 457 797 467 813 q 440 772 448 781 q 432 762 433 763 q 422 758 428 758 q 412 763 416 758 q 408 772 408 767 q 411 781 408 778 q 418 790 412 781 q 431 813 424 798 q 444 849 438 829 q 450 896 450 870 q 450 903 450 902 q 443 908 450 905 q 384 922 411 914 q 333 941 357 930 q 287 965 309 951 q 241 999 264 979 q 223 991 237 998 q 195 971 210 985 q 169 932 180 957 q 157 869 157 907 q 162 833 157 846 q 174 814 168 819 q 233 807 205 812 q 285 793 260 802 q 334 772 310 785 q 385 743 359 760 q 395 736 390 740 q 407 729 401 732 q 467 720 439 726 q 520 703 494 714 q 571 677 546 692 q 625 640 597 661 q 644 653 632 644 q 669 679 656 663 q 690 717 681 694 q 699 768 699 739 q 696 793 699 783 q 690 810 694 804 m 559 186 l 554 193 q 514 236 534 216 q 472 271 494 255 q 386 250 431 256 q 416 207 406 229 q 431 167 427 185 q 437 137 436 149 q 437 123 437 125 q 434 114 437 118 q 425 110 431 110 q 415 113 418 110 q 411 122 411 117 q 409 134 411 123 q 401 163 408 146 q 382 200 395 180 q 349 239 370 220 l 343 235 q 292 203 317 216 q 243 180 268 189 q 192 164 218 170 q 136 157 166 159 q 127 139 132 151 q 122 110 122 127 q 136 45 122 71 q 168 5 151 20 q 201 -16 186 -10 q 220 -22 217 -22 q 322 47 269 23 q 444 82 376 71 q 684 186 543 168 q 687 202 685 193 q 689 225 689 212 q 688 243 689 233 q 684 265 687 254 q 648 226 668 241 q 609 201 627 210 q 579 188 591 192 q 568 186 567 184 l 559 186 m 619 603 l 612 608 q 560 645 584 629 q 511 671 536 661 q 372 599 448 623 q 408 563 395 581 q 427 528 420 544 q 436 500 434 511 q 437 486 437 489 q 433 477 437 481 q 424 473 429 473 q 413 477 415 473 q 409 488 410 481 q 406 504 408 494 q 397 526 404 514 q 377 552 391 538 q 338 582 363 566 q 318 564 328 572 q 296 547 307 555 q 294 523 294 534 q 294 500 294 511 q 311 380 294 437 q 380 421 345 404 q 449 450 415 439 q 547 533 492 499 q 669 589 602 568 q 671 598 671 593 q 671 610 671 604 q 670 619 671 614 q 669 629 669 624 q 642 611 654 616 q 628 606 629 606 l 619 603 m 469 428 l 463 422 q 408 399 435 411 q 353 370 380 387 l 357 367 q 473 312 418 348 q 572 221 528 275 q 598 233 581 223 q 633 259 616 242 q 662 299 650 275 q 675 354 675 323 q 674 364 675 359 q 673 372 673 369 q 505 465 578 402 l 469 428 m 392 700 q 343 728 366 715 q 300 750 321 741 q 304 700 300 725 q 315 652 308 675 l 315 642 q 309 618 312 629 q 304 595 307 606 l 323 614 l 328 619 l 334 621 q 408 645 373 630 q 476 684 444 661 q 400 696 441 692 l 392 700 m 313 345 q 292 241 296 294 q 310 252 301 247 q 329 265 319 258 l 339 273 l 343 278 l 350 279 q 394 284 372 281 q 437 294 416 288 q 343 336 393 319 l 335 340 l 323 351 q 318 348 320 350 q 313 345 316 347 m 77 75 q 84 64 79 71 q 100 50 90 58 q 91 81 94 66 q 89 109 89 96 l 89 113 l 77 75 z "},"C":{"ha":715,"x_min":11,"x_max":714,"o":"m 347 619 l 346 615 q 317 531 326 569 q 309 457 309 494 q 311 414 309 435 q 319 368 314 392 l 321 363 l 318 357 q 288 288 298 318 q 275 225 277 258 q 300 230 289 227 q 321 236 311 233 q 343 244 332 240 q 368 253 354 248 q 374 255 372 254 q 380 258 377 256 l 386 261 l 392 260 q 436 252 415 254 q 475 250 456 250 q 550 260 513 250 q 631 290 587 269 l 639 294 l 646 290 q 655 283 646 290 q 675 264 664 277 q 697 230 686 251 q 713 179 708 210 q 714 165 714 172 q 714 151 714 158 q 709 109 714 127 q 696 76 703 90 q 684 56 690 63 q 677 47 678 48 l 671 40 l 663 43 q 623 48 642 46 q 586 50 604 50 q 512 41 546 50 q 437 12 477 31 l 432 9 l 428 11 q 397 12 412 11 q 368 14 382 14 q 269 2 317 14 q 175 -33 221 -9 l 168 -36 l 163 -35 q 153 -31 165 -35 q 124 -13 140 -26 q 93 21 108 -1 q 74 78 77 43 q 44 100 56 88 q 25 122 32 112 q 15 139 18 132 q 12 147 12 146 l 11 154 l 14 160 q 36 203 26 183 q 52 243 45 224 q 61 282 58 262 q 64 326 64 302 q 60 389 64 354 l 61 397 q 87 477 79 440 q 96 550 96 513 q 93 593 96 571 q 86 639 90 615 l 85 646 l 87 650 q 113 706 103 680 q 129 757 123 731 q 112 793 119 770 q 104 848 104 816 q 116 919 104 892 q 141 962 127 947 q 166 983 155 978 q 179 989 178 989 l 186 991 l 192 989 q 263 963 227 971 q 339 956 299 956 q 377 956 355 956 q 416 962 399 956 l 422 964 l 428 961 q 501 934 468 943 q 568 925 534 925 q 611 928 589 925 q 656 937 632 931 l 664 939 l 669 933 q 677 926 670 932 q 691 905 684 919 q 704 871 698 892 q 710 822 710 850 l 710 811 q 699 758 708 781 q 680 721 690 735 q 661 699 669 706 q 652 690 652 691 l 643 685 l 635 688 q 563 713 595 705 q 500 721 532 721 q 462 718 481 721 q 421 710 443 715 l 411 711 q 375 719 391 715 q 342 728 359 724 q 340 708 340 718 q 340 689 340 699 q 342 659 340 674 q 347 625 344 643 l 347 619 m 267 739 q 174 725 221 739 l 167 724 l 161 726 l 159 726 q 157 728 158 726 q 147 697 153 713 q 134 665 141 682 q 152 667 143 667 q 170 668 161 668 q 211 664 192 668 q 243 655 229 660 q 264 646 256 650 q 273 642 272 642 q 279 629 279 638 q 275 620 279 624 q 265 615 271 615 q 260 618 264 615 q 248 625 257 621 q 223 632 239 629 q 178 635 206 635 q 151 633 165 635 q 122 628 137 632 q 127 587 125 606 q 129 549 129 568 q 122 480 129 514 q 102 407 116 447 q 149 404 122 407 q 200 394 176 400 q 240 381 224 389 q 257 364 257 373 q 253 355 257 359 q 243 351 248 351 q 240 351 241 351 q 237 353 239 351 q 181 368 214 362 q 114 374 147 374 l 96 374 q 98 348 97 360 q 98 323 98 335 q 95 277 98 298 q 86 235 92 256 q 70 194 79 215 q 47 150 60 174 q 57 135 50 144 q 78 116 64 125 q 114 100 92 107 q 168 93 136 93 q 200 96 186 93 q 224 104 214 100 q 241 115 234 109 q 252 123 248 120 q 243 170 246 149 q 240 210 240 191 q 252 286 240 249 q 285 367 263 322 q 276 413 279 391 q 273 457 273 435 q 283 535 273 496 q 313 624 293 575 q 308 660 309 642 q 307 693 307 677 q 308 714 307 703 q 310 734 308 724 q 289 738 299 736 q 267 739 278 739 m 677 812 q 669 872 677 851 q 654 903 661 893 q 610 895 631 897 q 570 892 589 892 q 510 899 539 892 q 446 918 481 905 q 450 894 449 905 q 452 871 452 882 q 446 812 452 831 q 434 784 440 792 q 422 775 427 776 q 418 775 416 775 q 409 779 412 775 q 406 787 406 783 q 408 791 406 789 q 412 802 410 794 q 417 823 415 809 q 419 861 419 837 q 417 892 419 876 q 408 926 414 909 q 375 924 391 926 q 343 922 359 922 q 262 930 301 922 q 184 956 223 938 q 171 946 179 952 q 156 927 163 939 q 143 896 149 915 q 138 848 138 877 q 141 811 138 827 q 151 785 145 795 q 162 768 157 774 q 172 758 168 761 q 218 768 196 764 q 264 771 241 771 q 340 764 300 771 q 416 743 381 758 q 458 751 438 749 q 497 753 477 753 q 565 745 531 753 q 639 722 598 738 q 649 734 643 726 q 661 752 655 741 q 672 779 667 764 q 677 812 676 793 m 288 117 l 283 110 q 277 101 283 109 q 257 83 271 93 q 222 66 243 74 q 170 58 200 58 q 140 59 154 58 q 115 64 127 60 q 127 36 120 47 q 141 17 134 25 q 155 5 148 9 q 165 -1 161 1 q 264 36 214 24 q 367 47 314 47 q 397 46 382 47 q 427 45 412 45 q 507 73 469 63 q 586 82 544 82 q 621 81 603 82 q 659 77 639 80 q 673 104 665 85 q 681 151 681 123 q 675 192 681 174 q 663 223 670 210 q 648 245 655 237 q 636 257 640 254 q 554 226 591 236 q 476 216 517 216 q 449 218 464 216 q 419 221 435 219 q 435 175 431 197 q 439 135 439 153 q 437 98 439 111 q 432 80 435 85 q 426 75 429 75 q 421 75 423 75 q 410 79 414 75 q 406 87 406 82 q 406 90 406 89 q 408 94 407 91 q 409 102 408 96 q 410 121 410 109 q 404 166 410 140 q 380 221 398 193 q 377 220 378 221 q 374 218 376 220 q 348 210 359 214 q 325 202 336 206 q 301 196 313 199 q 275 192 290 193 q 279 159 277 176 q 286 122 282 142 l 288 117 z "},"D":{"ha":722,"x_min":39,"x_max":736,"o":"m 736 397 l 734 387 l 726 383 q 621 306 665 350 q 547 204 576 261 l 546 199 l 542 197 q 486 158 515 181 q 432 107 458 135 q 385 50 406 80 q 349 -12 363 19 l 346 -18 l 339 -21 q 328 -25 338 -22 q 302 -28 318 -28 q 266 -22 287 -28 q 222 0 245 -16 q 200 -4 212 -2 q 176 -5 189 -5 q 110 5 136 -5 q 69 30 84 16 q 47 54 54 43 q 41 66 41 65 l 39 72 l 41 79 q 64 156 57 117 q 72 236 72 195 q 69 294 72 264 q 58 354 66 323 l 58 363 q 72 428 66 396 q 77 493 77 460 q 71 564 77 529 q 54 632 64 598 l 53 639 l 56 644 q 78 718 71 681 q 85 791 85 755 q 80 851 85 821 q 66 911 76 880 l 64 920 l 69 926 q 77 935 70 927 q 100 952 85 943 q 138 968 115 961 q 193 975 161 975 l 207 975 q 254 1001 232 995 q 293 1007 276 1007 q 317 1005 308 1007 q 328 1003 326 1003 l 334 1000 l 336 993 q 368 941 349 967 q 412 891 388 915 q 462 845 435 867 q 515 806 489 823 l 528 800 l 533 798 l 536 791 q 614 681 568 728 q 724 602 660 634 l 732 599 l 733 589 q 734 585 733 587 q 734 582 734 584 q 734 576 734 579 q 729 541 734 564 q 707 493 724 519 q 723 465 717 479 q 731 440 728 452 q 735 418 734 428 q 736 404 736 409 l 736 397 m 147 806 l 144 811 q 141 821 143 812 q 139 846 139 830 q 145 887 139 863 q 172 939 151 911 q 127 926 144 935 q 103 911 111 918 q 115 851 111 880 q 119 791 119 822 q 98 664 119 727 q 131 671 115 669 q 160 672 146 672 q 215 668 197 672 q 241 658 233 663 q 249 644 250 652 q 244 634 249 638 q 235 631 240 631 q 231 632 233 631 q 222 636 229 634 q 203 640 215 638 q 170 642 191 642 q 133 638 153 642 q 92 627 113 635 q 106 562 101 594 q 111 494 111 529 q 107 436 111 466 q 97 378 104 407 q 117 380 108 379 q 138 380 127 380 q 174 379 153 380 q 212 374 194 377 q 243 365 231 370 q 256 353 256 360 q 250 342 256 345 q 237 339 243 339 q 202 346 222 343 q 160 349 182 349 q 127 347 144 349 q 94 343 110 345 q 103 288 101 315 q 106 235 106 260 q 77 74 106 152 q 86 61 79 69 q 104 46 92 54 q 134 34 116 39 q 176 29 151 29 q 220 34 201 29 q 251 45 238 39 q 270 59 263 52 q 281 71 277 66 q 263 141 269 106 q 257 211 257 176 q 263 286 257 249 q 283 359 270 322 q 267 429 272 394 q 261 500 261 463 q 266 571 261 534 q 282 644 271 607 q 272 683 275 663 q 267 722 269 703 q 214 767 241 746 q 154 803 186 788 l 147 806 m 701 576 q 599 649 643 607 q 522 747 555 692 q 493 703 510 721 q 461 673 477 684 q 435 657 446 662 q 424 652 425 652 q 419 650 422 650 q 409 655 413 650 q 406 664 406 660 q 414 676 406 673 q 437 688 423 680 q 467 717 451 697 q 498 778 484 736 q 495 779 496 778 q 492 781 494 779 q 438 821 465 799 q 388 868 412 844 q 343 920 363 893 q 310 974 323 947 q 303 975 307 974 q 294 975 300 975 q 258 967 281 975 q 211 932 236 959 q 179 882 186 905 q 172 846 172 859 q 172 837 172 840 q 174 829 172 833 q 237 791 205 814 q 296 742 268 768 q 348 686 324 715 q 387 631 371 658 q 574 449 502 570 q 590 451 580 449 q 612 457 600 452 q 637 470 624 461 q 663 492 650 478 q 682 518 675 505 q 694 542 690 531 q 699 562 698 553 q 701 576 701 571 m 572 414 q 565 414 567 414 q 562 415 563 414 l 554 415 l 549 424 q 537 443 543 433 q 525 461 531 453 q 404 357 475 398 q 449 328 431 345 q 478 296 467 311 q 494 270 489 281 q 498 258 498 259 q 499 256 498 257 q 500 253 500 254 q 496 243 500 248 q 486 239 492 239 q 477 243 480 239 q 470 254 473 247 q 462 271 467 261 q 446 290 456 280 q 418 311 435 300 q 374 332 401 322 l 370 326 q 333 278 353 302 q 292 231 313 254 l 292 212 q 297 144 292 178 q 315 75 302 110 l 318 68 l 315 62 q 312 56 315 61 q 303 44 309 52 q 288 29 297 37 q 265 14 279 21 q 287 8 277 9 q 304 7 297 7 q 314 7 310 7 q 321 8 317 7 q 358 71 335 39 q 407 130 380 102 q 463 182 433 158 q 519 222 492 205 q 703 408 580 337 q 698 432 701 416 q 684 465 695 448 q 651 439 667 449 q 619 423 634 429 q 591 415 604 417 q 572 414 579 414 m 319 359 l 317 354 q 307 325 311 340 q 300 296 303 311 q 329 333 315 315 q 351 361 344 351 l 354 367 l 359 370 q 505 489 447 414 q 443 554 477 526 q 370 603 410 582 l 363 610 q 336 644 350 627 q 309 677 323 661 q 312 664 310 670 q 315 650 313 657 l 315 640 q 294 498 294 566 q 300 431 294 464 q 317 366 305 398 l 319 359 z "},"E":{"ha":681,"x_min":39,"x_max":677,"o":"m 549 479 q 541 426 549 449 q 522 388 532 404 q 504 364 512 372 q 494 355 495 356 l 488 350 l 478 353 q 411 372 440 366 q 354 378 382 378 q 313 374 333 378 l 317 366 l 319 359 l 317 354 q 294 262 300 308 q 319 267 305 265 q 345 271 332 269 q 365 273 357 272 q 374 273 373 273 l 379 275 l 385 272 q 450 248 423 256 q 505 240 477 240 q 547 244 524 240 q 597 256 569 248 l 606 258 l 612 253 q 620 244 613 252 q 635 223 627 237 q 650 186 644 208 q 657 134 657 164 q 648 81 656 103 q 629 43 639 58 q 610 20 618 28 q 600 11 601 12 l 591 7 l 583 9 q 517 31 543 24 q 465 37 490 37 q 429 34 448 37 q 385 25 410 31 l 375 25 q 337 33 356 28 q 300 41 319 37 q 282 25 293 34 q 257 10 272 17 q 221 -1 241 3 q 176 -5 201 -5 q 110 5 136 -5 q 69 30 84 16 q 47 54 54 43 q 41 66 41 65 l 39 72 l 41 79 q 64 156 57 117 q 72 236 72 195 q 69 294 72 264 q 58 354 66 323 l 58 363 q 72 428 66 396 q 77 493 77 460 q 71 564 77 529 q 54 632 64 598 l 53 639 l 56 644 q 78 718 71 681 q 85 791 85 755 q 80 851 85 821 q 66 911 76 880 l 64 920 l 69 926 q 77 935 70 927 q 100 952 85 943 q 138 968 115 961 q 193 975 161 975 q 256 965 230 975 q 297 943 281 955 q 338 949 317 945 q 382 961 360 954 l 387 964 l 395 962 q 451 947 427 952 q 497 942 475 942 q 547 948 521 942 q 607 966 572 954 l 615 970 l 623 965 q 631 958 623 964 q 649 937 640 951 q 667 902 659 923 q 677 850 675 880 l 677 838 q 671 789 677 810 q 655 754 664 768 q 640 732 647 739 q 632 724 633 724 l 625 718 l 615 721 q 559 732 583 728 q 517 736 536 736 q 471 731 494 736 q 416 715 448 726 l 407 714 q 352 722 378 720 q 300 725 326 725 q 306 687 302 706 q 315 650 309 669 l 315 640 q 309 616 311 628 q 304 591 307 604 q 341 584 324 586 q 378 582 359 582 q 429 586 403 582 q 485 600 454 591 l 493 603 l 500 597 q 508 590 500 597 q 525 568 516 583 q 542 531 534 553 q 549 479 549 509 m 290 905 q 277 916 286 909 q 257 927 269 922 q 229 936 245 932 q 193 940 213 940 q 159 937 174 940 q 133 929 144 934 q 115 920 122 924 q 103 911 107 915 q 115 851 111 880 q 119 791 119 822 q 98 664 119 727 q 131 671 115 669 q 160 672 146 672 q 215 668 197 672 q 241 658 233 663 q 249 644 250 652 q 244 634 249 638 q 235 631 240 631 q 231 632 233 631 q 222 636 229 634 q 203 640 215 638 q 170 642 191 642 q 133 638 153 642 q 92 627 113 635 q 106 562 101 594 q 111 494 111 529 q 107 436 111 466 q 97 378 104 407 q 117 380 108 379 q 138 380 127 380 q 174 379 153 380 q 212 374 194 377 q 243 365 231 370 q 256 353 256 360 q 250 342 256 345 q 237 339 243 339 q 202 346 222 343 q 160 349 182 349 q 127 347 144 349 q 94 343 110 345 q 103 288 101 315 q 106 235 106 260 q 77 74 106 152 q 86 61 79 69 q 104 46 92 54 q 134 34 116 39 q 176 29 151 29 q 220 34 201 29 q 251 45 238 39 q 270 59 263 52 q 281 71 277 66 q 263 141 269 106 q 257 211 257 176 q 263 286 257 249 q 283 359 270 322 q 267 429 272 394 q 261 500 261 463 q 266 571 261 534 q 282 644 271 607 q 265 758 265 700 q 290 905 265 832 m 329 913 l 325 904 q 306 830 313 867 q 300 760 300 794 l 300 758 q 353 755 326 758 q 408 747 380 751 q 466 764 442 759 q 515 770 490 770 q 560 766 536 770 q 615 754 584 762 q 624 766 618 758 q 633 784 629 773 q 641 809 637 795 q 644 840 644 823 q 640 875 644 859 q 630 902 636 890 q 618 921 625 913 q 608 933 612 929 q 548 915 572 921 q 501 909 524 909 q 463 913 484 909 q 416 922 443 916 q 427 885 424 903 q 431 851 431 867 q 427 805 431 821 q 418 784 423 790 q 410 778 414 778 q 406 778 406 778 q 396 782 400 778 q 392 791 392 786 q 393 794 392 792 q 395 801 394 796 q 398 814 397 806 q 399 839 399 823 q 395 879 399 857 q 378 925 391 901 q 351 922 365 925 q 325 916 338 919 l 329 913 m 292 212 q 297 144 292 178 q 315 75 302 110 l 315 72 q 349 65 332 68 q 380 57 365 62 q 426 66 406 63 q 465 69 446 69 q 492 67 479 69 q 519 63 505 66 q 550 55 534 60 q 586 43 566 50 q 596 55 590 47 q 609 75 603 63 q 620 103 615 87 q 624 139 624 119 q 614 193 624 172 q 596 222 604 214 q 547 212 568 215 q 509 208 526 208 q 461 214 484 208 q 404 231 437 219 q 410 203 408 216 q 411 178 411 191 q 406 123 411 141 q 395 97 401 104 q 385 89 389 90 q 380 89 380 89 q 371 93 374 89 q 367 102 367 97 q 369 105 367 102 q 373 115 371 108 q 377 135 375 122 q 379 168 379 148 q 376 200 379 182 q 366 237 374 218 q 327 235 346 237 q 292 231 309 233 l 292 212 m 353 410 q 412 404 382 410 q 479 387 441 399 q 490 399 484 391 q 502 419 496 408 q 511 446 507 431 q 515 479 515 460 q 512 512 515 498 q 504 537 509 526 q 494 554 499 547 q 485 566 488 562 q 430 553 454 557 q 383 550 406 550 q 342 552 362 550 q 298 561 321 555 q 295 529 296 545 q 294 498 294 513 q 297 452 294 475 q 304 406 299 429 q 353 410 329 410 z "},"F":{"ha":660,"x_min":39,"x_max":677,"o":"m 549 479 q 541 426 549 449 q 522 388 532 404 q 504 364 512 372 q 494 355 495 356 l 488 350 l 478 353 q 411 372 440 366 q 354 378 382 378 q 313 374 333 378 l 317 366 l 319 359 l 317 354 q 292 212 292 285 q 297 144 292 178 q 315 75 302 110 l 318 68 l 315 62 q 308 51 315 61 q 286 27 301 40 q 243 5 270 15 q 176 -5 216 -5 q 110 5 136 -5 q 69 30 84 16 q 47 54 54 43 q 41 66 41 65 l 39 72 l 41 79 q 64 156 57 117 q 72 236 72 195 q 69 294 72 264 q 58 354 66 323 l 58 363 q 72 428 66 396 q 77 493 77 460 q 71 564 77 529 q 54 632 64 598 l 53 639 l 56 644 q 78 718 71 681 q 85 791 85 755 q 80 851 85 821 q 66 911 76 880 l 64 920 l 69 926 q 77 935 70 927 q 100 952 85 943 q 138 968 115 961 q 193 975 161 975 q 256 965 230 975 q 297 943 281 955 q 338 949 317 945 q 382 961 360 954 l 387 964 l 395 962 q 451 947 427 952 q 497 942 475 942 q 547 948 521 942 q 607 966 572 954 l 615 970 l 623 965 q 631 958 623 964 q 649 937 640 951 q 667 902 659 923 q 677 850 675 880 l 677 838 q 671 789 677 810 q 655 754 664 768 q 640 732 647 739 q 632 724 633 724 l 625 718 l 615 721 q 559 732 583 728 q 517 736 536 736 q 471 731 494 736 q 416 715 448 726 l 407 714 q 352 722 378 720 q 300 725 326 725 q 306 687 302 706 q 315 650 309 669 l 315 640 q 309 616 311 628 q 304 591 307 604 q 341 584 324 586 q 378 582 359 582 q 429 586 403 582 q 485 600 454 591 l 493 603 l 500 597 q 508 590 500 597 q 525 568 516 583 q 542 531 534 553 q 549 479 549 509 m 290 905 q 277 916 286 909 q 257 927 269 922 q 229 936 245 932 q 193 940 213 940 q 159 937 174 940 q 133 929 144 934 q 115 920 122 924 q 103 911 107 915 q 115 851 111 880 q 119 791 119 822 q 98 664 119 727 q 131 671 115 669 q 160 672 146 672 q 215 668 197 672 q 241 658 233 663 q 249 644 250 652 q 244 634 249 638 q 235 631 240 631 q 231 632 233 631 q 222 636 229 634 q 203 640 215 638 q 170 642 191 642 q 133 638 153 642 q 92 627 113 635 q 106 562 101 594 q 111 494 111 529 q 107 436 111 466 q 97 378 104 407 q 117 380 108 379 q 138 380 127 380 q 174 379 153 380 q 212 374 194 377 q 243 365 231 370 q 256 353 256 360 q 250 342 256 345 q 237 339 243 339 q 202 346 222 343 q 160 349 182 349 q 127 347 144 349 q 94 343 110 345 q 103 288 101 315 q 106 235 106 260 q 77 74 106 152 q 86 61 79 69 q 104 46 92 54 q 134 34 116 39 q 176 29 151 29 q 220 34 201 29 q 251 45 238 39 q 270 59 263 52 q 281 71 277 66 q 263 141 269 106 q 257 211 257 176 q 263 286 257 249 q 283 359 270 322 q 267 429 272 394 q 261 500 261 463 q 266 571 261 534 q 282 644 271 607 q 265 758 265 700 q 290 905 265 832 m 329 913 l 325 904 q 306 830 313 867 q 300 760 300 794 l 300 758 q 353 755 326 758 q 408 747 380 751 q 466 764 442 759 q 515 770 490 770 q 560 766 536 770 q 615 754 584 762 q 624 766 618 758 q 633 784 629 773 q 641 809 637 795 q 644 840 644 823 q 640 875 644 859 q 630 902 636 890 q 618 921 625 913 q 608 933 612 929 q 548 915 572 921 q 501 909 524 909 q 463 913 484 909 q 416 922 443 916 q 427 885 424 903 q 431 851 431 867 q 427 805 431 821 q 418 784 423 790 q 410 778 414 778 q 406 778 406 778 q 396 782 400 778 q 392 791 392 786 q 393 794 392 792 q 395 801 394 796 q 398 814 397 806 q 399 839 399 823 q 395 879 399 857 q 378 925 391 901 q 351 922 365 925 q 325 916 338 919 l 329 913 m 353 410 q 412 404 382 410 q 479 387 441 399 q 490 399 484 391 q 502 419 496 408 q 511 446 507 431 q 515 479 515 460 q 512 512 515 498 q 504 537 509 526 q 494 554 499 547 q 485 566 488 562 q 430 553 454 557 q 383 550 406 550 q 342 552 362 550 q 298 561 321 555 q 295 529 296 545 q 294 498 294 513 q 297 452 294 475 q 304 406 299 429 q 353 410 329 410 z "},"G":{"ha":774,"x_min":11,"x_max":764,"o":"m 347 619 l 346 615 q 317 531 326 569 q 309 457 309 494 q 311 414 309 435 q 319 368 314 392 l 321 363 l 318 357 q 288 288 298 318 q 275 225 277 258 q 300 230 289 227 q 321 236 311 233 q 343 244 332 240 q 368 253 354 248 q 374 255 372 254 q 380 258 377 256 l 386 261 l 392 260 q 433 252 414 254 q 472 250 453 250 l 498 250 q 495 263 497 256 q 492 277 494 269 l 492 288 q 506 340 501 317 q 510 387 510 364 q 504 440 510 414 q 484 501 497 467 l 481 510 l 485 517 q 492 526 485 517 q 516 546 500 535 q 557 565 532 556 q 616 574 582 574 q 664 568 643 574 q 699 554 684 562 q 720 539 713 546 q 729 532 728 532 l 734 526 l 732 518 q 721 466 724 489 q 717 421 717 442 q 723 371 717 395 q 742 315 729 347 l 742 306 q 734 256 736 279 q 732 214 732 233 q 739 154 732 183 q 761 89 745 125 l 764 83 l 762 77 q 755 64 762 76 q 732 38 749 52 q 687 12 715 24 q 614 0 659 0 q 575 4 592 0 q 546 14 558 8 q 524 27 533 20 q 510 40 515 34 q 474 28 492 35 q 437 12 456 21 l 432 9 l 428 11 q 397 12 412 11 q 368 14 382 14 q 269 2 317 14 q 175 -33 221 -9 l 168 -36 l 163 -35 q 153 -31 165 -35 q 124 -13 140 -26 q 93 21 108 -1 q 74 78 77 43 q 44 100 56 88 q 25 122 32 112 q 15 139 18 132 q 12 147 12 146 l 11 154 l 14 160 q 36 203 26 183 q 52 243 45 224 q 61 282 58 262 q 64 326 64 302 q 60 389 64 354 l 61 397 q 87 477 79 440 q 96 550 96 513 q 93 593 96 571 q 86 639 90 615 l 85 646 l 87 650 q 113 706 103 680 q 129 757 123 731 q 112 793 119 770 q 104 848 104 816 q 116 919 104 892 q 141 962 127 947 q 166 983 155 978 q 179 989 178 989 l 186 991 l 192 989 q 263 963 227 971 q 339 956 299 956 q 377 956 355 956 q 416 962 399 956 l 422 964 l 428 961 q 501 934 468 943 q 568 925 534 925 q 611 928 589 925 q 656 937 632 931 l 664 939 l 669 933 q 677 926 670 932 q 691 905 684 919 q 704 871 698 892 q 710 822 710 850 l 710 811 q 699 758 708 781 q 680 721 690 735 q 661 699 669 706 q 652 690 652 691 l 643 685 l 635 688 q 563 713 595 705 q 500 721 532 721 q 462 718 481 721 q 421 710 443 715 l 411 711 q 375 719 391 715 q 342 728 359 724 q 340 708 340 718 q 340 689 340 699 q 342 659 340 674 q 347 625 344 643 l 347 619 m 267 739 q 174 725 221 739 l 167 724 l 161 726 l 159 726 q 157 728 158 726 q 147 697 153 713 q 134 665 141 682 q 152 667 143 667 q 170 668 161 668 q 211 664 192 668 q 243 655 229 660 q 264 646 256 650 q 273 642 272 642 q 279 629 279 638 q 275 620 279 624 q 265 615 271 615 q 260 618 264 615 q 248 625 257 621 q 223 632 239 629 q 178 635 206 635 q 151 633 165 635 q 122 628 137 632 q 127 587 125 606 q 129 549 129 568 q 122 480 129 514 q 102 407 116 447 q 149 404 122 407 q 200 394 176 400 q 240 381 224 389 q 257 364 257 373 q 253 355 257 359 q 243 351 248 351 q 240 351 241 351 q 237 353 239 351 q 181 368 214 362 q 114 374 147 374 l 96 374 q 98 348 97 360 q 98 323 98 335 q 95 277 98 298 q 86 235 92 256 q 70 194 79 215 q 47 150 60 174 q 57 135 50 144 q 78 116 64 125 q 114 100 92 107 q 168 93 136 93 q 200 96 186 93 q 224 104 214 100 q 241 115 234 109 q 252 123 248 120 q 243 170 246 149 q 240 210 240 191 q 252 286 240 249 q 285 367 263 322 q 276 413 279 391 q 273 457 273 435 q 283 535 273 496 q 313 624 293 575 q 308 660 309 642 q 307 693 307 677 q 308 714 307 703 q 310 734 308 724 q 289 738 299 736 q 267 739 278 739 m 677 812 q 669 872 677 851 q 654 903 661 893 q 610 895 631 897 q 570 892 589 892 q 510 899 539 892 q 446 918 481 905 q 450 894 449 905 q 452 871 452 882 q 446 812 452 831 q 434 784 440 792 q 422 775 427 776 q 418 775 416 775 q 409 779 412 775 q 406 787 406 783 q 408 791 406 789 q 412 802 410 794 q 417 823 415 809 q 419 861 419 837 q 417 892 419 876 q 408 926 414 909 q 375 924 391 926 q 343 922 359 922 q 262 930 301 922 q 184 956 223 938 q 171 946 179 952 q 156 927 163 939 q 143 896 149 915 q 138 848 138 877 q 141 811 138 827 q 151 785 145 795 q 162 768 157 774 q 172 758 168 761 q 218 768 196 764 q 264 771 241 771 q 340 764 300 771 q 416 743 381 758 q 458 751 438 749 q 497 753 477 753 q 565 745 531 753 q 639 722 598 738 q 649 734 643 726 q 661 752 655 741 q 672 779 667 764 q 677 812 676 793 m 728 82 q 705 150 712 120 q 699 212 699 180 q 701 256 699 233 q 708 307 703 279 q 690 365 696 340 q 685 418 685 391 q 688 462 685 439 q 699 515 691 486 q 669 532 689 522 q 619 542 650 542 q 580 537 597 542 q 550 527 563 533 q 529 515 537 522 q 517 505 521 509 q 536 446 530 471 q 542 395 542 420 q 539 355 542 376 q 530 310 536 335 q 572 321 552 318 q 608 325 591 325 q 651 322 637 325 q 671 315 665 319 q 676 307 677 311 q 676 301 676 303 q 672 293 676 295 q 663 290 668 290 q 661 291 662 290 q 654 293 659 292 q 641 295 650 294 q 618 296 633 296 q 577 291 600 296 q 529 273 554 286 q 530 270 529 271 q 530 267 530 269 q 542 210 538 235 q 546 160 546 184 q 543 116 546 138 q 532 66 539 93 q 541 57 534 63 q 556 45 547 51 q 581 36 566 40 q 615 32 595 32 q 665 38 644 32 q 698 53 685 44 q 718 70 711 61 q 728 82 725 78 m 514 157 q 512 186 514 170 q 507 218 511 201 q 492 217 500 217 q 475 216 484 216 q 449 218 463 216 q 419 221 435 219 q 435 175 431 197 q 439 135 439 153 q 437 98 439 111 q 432 80 435 85 q 426 75 429 75 q 421 75 423 75 q 410 79 414 75 q 406 87 406 82 q 406 90 406 89 q 408 94 407 91 q 409 102 408 96 q 410 121 410 109 q 404 166 410 140 q 380 221 398 193 q 377 220 378 221 q 374 218 376 220 q 348 210 359 214 q 325 202 336 206 q 301 196 313 199 q 275 192 290 193 q 279 159 277 176 q 286 122 282 142 l 288 117 l 283 110 q 277 101 283 109 q 257 83 271 93 q 222 66 243 74 q 170 58 200 58 q 140 59 154 58 q 115 64 127 60 q 127 36 120 47 q 141 17 134 25 q 155 5 148 9 q 165 -1 161 1 q 264 36 214 24 q 367 47 314 47 q 397 46 382 47 q 427 45 412 45 q 463 59 446 53 q 498 69 481 65 q 510 115 506 95 q 514 157 514 136 z "},"H":{"ha":850,"x_min":39,"x_max":847,"o":"m 844 432 q 846 416 846 424 q 847 400 847 408 q 843 361 847 380 q 835 328 840 342 q 826 304 830 313 q 822 294 823 295 l 817 285 q 795 287 806 286 q 770 288 783 288 q 759 288 764 288 q 749 286 754 288 q 746 258 747 273 q 746 231 746 244 q 751 154 746 192 q 765 83 757 116 l 766 78 l 764 72 q 755 59 763 71 q 732 34 748 47 q 690 11 716 21 q 628 0 665 0 q 565 9 591 0 q 522 31 538 19 q 497 53 505 43 q 489 64 490 62 l 485 71 l 488 78 q 508 153 500 111 q 518 232 516 194 q 477 221 498 228 q 439 208 457 215 q 405 192 420 200 q 376 178 389 184 l 368 175 q 335 174 355 175 q 296 174 315 174 q 304 114 299 139 q 315 77 310 88 l 318 69 l 315 64 q 308 52 315 62 q 286 29 301 41 q 243 7 270 17 q 176 -3 216 -3 q 110 8 136 -3 q 69 32 84 18 q 47 56 54 45 q 41 68 41 66 l 39 75 l 41 81 q 64 158 57 119 q 72 239 72 197 q 69 296 72 267 q 58 355 66 325 l 58 364 q 72 430 66 397 q 77 494 77 462 q 71 566 77 531 q 54 635 64 600 l 53 640 l 56 646 q 85 794 85 720 q 80 853 85 824 q 66 913 76 882 l 64 921 l 69 928 q 77 936 70 928 q 100 953 85 944 q 138 969 115 962 q 193 977 161 977 q 250 968 226 977 q 289 949 273 960 q 313 930 305 939 q 322 921 321 922 l 329 914 l 325 905 q 306 832 313 868 q 300 761 300 797 q 303 706 300 732 q 315 652 307 679 l 315 642 q 301 579 306 609 q 297 518 297 549 q 300 458 297 489 q 311 392 304 427 l 334 404 l 343 406 q 352 404 347 405 q 363 403 357 404 q 378 403 369 403 q 440 410 403 403 q 522 440 478 417 q 524 466 524 453 q 525 492 525 479 q 519 565 525 530 q 505 631 514 600 l 505 642 q 526 765 526 704 q 520 835 526 801 q 500 904 513 869 l 496 913 l 500 920 q 508 930 500 920 q 531 952 515 941 q 571 974 547 964 q 631 983 596 983 q 692 974 665 983 q 736 953 718 964 q 765 932 755 942 q 775 922 774 923 l 782 914 l 779 905 q 758 825 764 865 q 751 747 751 786 q 754 693 751 720 q 765 640 758 666 l 765 631 q 751 580 757 607 q 743 521 745 553 q 751 527 747 524 q 760 534 755 530 l 766 532 q 778 527 768 531 q 802 511 789 522 q 827 481 814 500 q 844 432 839 462 m 290 907 q 277 917 286 911 q 257 929 269 923 q 229 938 245 935 q 193 942 213 942 q 159 939 174 942 q 133 931 144 935 q 115 921 122 926 q 103 913 107 916 q 115 853 111 882 q 119 793 119 823 q 114 730 119 762 q 98 667 109 698 q 129 673 114 671 q 158 675 144 675 q 214 670 195 675 q 241 660 233 665 q 249 646 250 653 q 244 636 249 640 q 235 632 240 632 q 231 634 233 632 q 222 637 229 635 q 203 641 215 640 q 170 643 191 643 q 133 640 153 643 q 92 628 113 636 q 106 563 101 595 q 111 496 111 530 q 107 438 111 467 q 97 379 104 408 q 117 381 108 380 q 138 382 127 382 q 174 380 153 382 q 212 375 194 378 q 243 367 231 372 q 256 354 256 361 q 251 345 256 349 q 241 340 247 340 q 206 345 226 340 q 163 350 186 350 q 129 349 146 350 q 94 345 111 348 q 103 289 101 316 q 106 236 106 262 q 77 75 106 153 q 86 63 79 71 q 104 48 92 55 q 134 36 116 41 q 176 31 151 31 q 220 35 201 31 q 251 46 238 40 q 270 60 263 53 q 281 72 277 67 q 257 212 257 144 q 263 287 257 250 q 283 361 270 324 q 267 430 272 395 q 261 501 261 465 q 266 572 261 536 q 282 646 271 608 q 265 760 265 701 q 290 907 265 833 m 730 636 q 721 690 724 663 q 717 746 717 718 q 724 826 717 786 q 743 907 730 866 q 728 919 738 911 q 704 932 718 926 q 671 944 690 939 q 631 949 653 949 q 593 944 609 949 q 565 933 576 940 q 546 920 553 927 q 534 908 538 913 q 554 838 548 873 q 561 766 561 802 q 558 714 561 741 q 547 661 555 687 q 571 666 559 665 q 597 667 584 667 q 628 665 610 667 q 662 660 646 663 q 689 650 677 656 q 700 636 700 644 q 695 626 700 630 q 686 623 690 623 q 651 629 671 623 q 610 636 631 636 q 575 633 592 636 q 543 624 557 630 q 554 566 549 596 q 558 501 558 535 q 558 481 558 491 q 557 461 558 471 l 561 465 l 574 465 q 641 473 608 465 q 707 498 674 481 q 714 571 708 536 q 730 636 721 606 m 364 210 q 477 256 422 242 q 586 271 532 271 q 686 310 635 299 q 796 321 737 321 q 808 353 802 332 q 814 400 814 375 q 808 440 814 423 q 794 469 802 457 q 778 487 786 480 q 764 496 769 493 q 671 448 713 463 q 589 433 629 433 q 602 397 597 416 q 606 361 606 378 q 605 340 606 351 q 601 320 604 330 q 594 305 599 311 q 583 298 590 298 q 574 302 578 298 q 571 310 571 306 q 574 328 571 318 q 576 349 576 338 q 571 389 576 368 q 555 425 566 410 q 463 384 511 397 q 368 371 415 371 q 381 334 378 354 q 385 294 385 314 q 384 275 385 286 q 381 255 383 264 q 375 240 379 246 q 364 233 371 233 q 354 236 357 233 q 350 243 350 239 q 353 261 350 252 q 357 282 357 271 q 351 326 357 304 q 332 366 345 349 q 325 362 330 363 q 317 358 321 360 l 317 355 q 299 287 304 321 q 294 220 294 252 l 294 208 q 332 210 312 210 q 364 210 351 210 m 590 236 q 578 237 584 237 q 567 237 573 237 q 558 237 562 237 q 550 236 554 237 q 543 153 550 196 q 522 75 535 110 q 534 63 526 71 q 556 50 543 56 q 587 39 569 43 q 628 35 604 35 q 669 40 652 35 q 700 54 687 46 q 720 69 712 61 q 730 82 727 77 q 718 150 722 113 q 713 225 713 187 q 717 283 713 254 q 656 269 686 279 q 600 239 625 258 l 590 236 z "},"I":{"ha":370,"x_min":39,"x_max":329,"o":"m 329 914 l 325 905 q 306 832 313 868 q 300 761 300 797 q 303 706 300 732 q 315 652 307 679 l 315 642 q 294 500 294 568 q 300 432 294 465 q 317 367 305 399 l 319 361 l 317 355 q 298 286 304 321 q 292 215 292 251 q 297 145 292 180 q 315 77 302 111 l 318 69 l 315 64 q 308 52 315 62 q 286 29 301 41 q 243 7 270 17 q 176 -3 216 -3 q 110 8 136 -3 q 69 32 84 18 q 47 56 54 45 q 41 68 41 66 l 39 75 l 41 81 q 64 158 57 119 q 72 239 72 197 q 69 296 72 267 q 58 355 66 325 l 58 364 q 72 430 66 397 q 77 494 77 462 q 71 566 77 531 q 54 635 64 600 l 53 640 l 56 646 q 85 794 85 720 q 80 853 85 824 q 66 913 76 882 l 64 921 l 69 928 q 77 936 70 928 q 100 953 85 944 q 138 969 115 962 q 193 977 161 977 q 250 968 226 977 q 289 949 273 960 q 313 930 305 939 q 322 921 321 922 l 329 914 m 290 907 q 277 917 286 911 q 257 929 269 923 q 229 938 245 935 q 193 942 213 942 q 159 939 174 942 q 133 931 144 935 q 115 921 122 926 q 103 913 107 916 q 115 853 111 882 q 119 793 119 823 q 114 730 119 762 q 98 667 109 698 q 129 673 114 671 q 158 675 144 675 q 214 670 195 675 q 241 660 233 665 q 249 646 250 653 q 244 636 249 640 q 235 632 240 632 q 231 634 233 632 q 222 637 229 635 q 203 641 215 640 q 170 643 191 643 q 133 640 153 643 q 92 628 113 636 q 106 563 101 595 q 111 496 111 530 q 107 438 111 467 q 97 379 104 408 q 117 381 108 380 q 138 382 127 382 q 174 380 153 382 q 212 375 194 378 q 243 367 231 372 q 256 354 256 361 q 251 345 256 349 q 241 340 247 340 q 206 345 226 340 q 163 350 186 350 q 129 349 146 350 q 94 345 111 348 q 103 289 101 316 q 106 236 106 262 q 77 75 106 153 q 86 63 79 71 q 104 48 92 55 q 134 36 116 41 q 176 31 151 31 q 220 35 201 31 q 251 46 238 40 q 270 60 263 53 q 281 72 277 67 q 257 212 257 144 q 263 287 257 250 q 283 361 270 324 q 267 430 272 395 q 261 501 261 465 q 266 572 261 536 q 282 646 271 608 q 265 760 265 701 q 290 907 265 833 z "},"J":{"ha":673,"x_min":-24,"x_max":636,"o":"m 636 913 l 632 904 q 613 830 619 867 q 607 760 607 794 q 610 704 607 731 q 623 650 614 677 l 623 640 q 602 498 602 566 q 607 431 602 464 q 624 366 612 398 l 627 359 l 624 354 q 599 212 599 285 q 604 144 599 178 q 623 75 610 110 l 624 68 l 621 62 q 614 51 621 61 q 592 27 608 40 q 550 5 576 15 q 484 -5 524 -5 q 458 -4 470 -5 q 435 0 446 -2 q 432 -2 433 -1 q 429 -5 431 -3 q 374 -41 399 -31 q 328 -50 349 -50 q 297 -46 309 -50 q 285 -40 286 -41 l 279 -37 l 277 -31 q 255 21 267 -3 q 227 66 243 45 q 191 107 212 87 q 142 146 170 127 l 136 149 l 135 154 q 108 212 121 187 q 77 258 94 237 q 37 297 60 279 q -16 334 15 315 l -22 338 l -24 347 q -23 360 -24 349 q -18 387 -23 370 q -1 422 -13 403 q 33 463 11 442 q 65 485 49 477 q 95 499 81 494 q 122 506 109 504 q 143 507 134 507 q 156 506 151 507 q 163 505 161 505 l 172 503 l 175 494 q 203 438 189 462 q 233 395 217 414 q 270 360 250 376 q 318 326 291 343 l 323 319 q 352 271 339 292 q 378 231 364 250 l 378 235 q 366 354 378 292 l 366 363 q 378 428 374 396 q 383 493 383 460 q 377 564 383 529 q 361 632 372 598 l 359 639 l 363 644 q 385 718 377 681 q 392 791 392 755 q 374 911 392 850 l 371 920 l 376 926 q 385 935 377 927 q 407 952 392 943 q 445 968 422 961 q 500 975 468 975 q 556 967 532 975 q 596 948 581 958 q 621 929 612 938 q 629 920 629 920 l 636 913 m 484 134 q 485 125 484 132 q 486 107 486 119 q 481 72 486 92 q 461 29 477 52 l 484 29 q 527 34 509 29 q 558 45 545 39 q 577 59 570 52 q 587 71 584 66 q 570 141 576 106 q 564 211 564 176 q 590 359 564 285 q 573 428 578 393 q 567 498 567 462 q 572 570 567 534 q 589 644 577 606 q 572 758 572 701 q 597 905 572 832 q 584 916 593 909 q 564 927 576 922 q 535 936 551 932 q 500 940 519 940 q 467 937 481 940 q 440 929 452 934 q 421 920 429 924 q 410 911 414 915 q 421 853 417 882 q 425 794 425 824 q 420 729 425 761 q 406 664 415 696 q 438 671 422 669 q 467 672 453 672 q 522 668 503 672 q 547 658 540 663 q 555 644 556 652 q 551 634 555 638 q 542 631 546 631 q 538 632 541 631 q 529 636 536 634 q 510 640 522 638 q 476 642 497 642 q 440 638 460 642 q 399 627 420 635 q 413 562 408 594 q 418 494 418 529 q 414 436 418 466 q 404 378 410 407 q 424 380 414 379 q 444 380 434 380 q 480 379 460 380 q 519 374 500 377 q 550 365 537 370 q 562 353 562 360 q 556 342 562 345 q 545 339 551 339 q 509 346 529 343 q 467 349 488 349 q 434 347 451 349 q 401 343 417 345 q 414 233 414 287 q 413 211 414 222 q 411 191 412 201 q 476 143 437 165 l 482 139 l 484 134 m 453 118 q 401 154 424 135 q 361 195 379 173 q 327 243 342 217 q 296 301 311 269 q 248 335 269 318 q 210 372 227 353 q 178 416 193 392 q 149 473 163 441 q 132 472 142 473 q 110 468 122 471 q 84 457 98 465 q 56 437 70 450 q 33 413 42 425 q 19 390 24 401 q 12 371 14 379 q 9 357 10 362 q 58 323 37 339 q 94 289 78 307 q 124 249 111 271 q 151 197 138 227 q 184 239 166 222 q 219 265 203 256 q 246 279 235 275 q 258 283 257 283 l 261 283 q 272 280 267 283 q 277 269 277 277 q 274 262 277 265 q 267 257 271 258 q 256 252 266 257 q 231 237 245 248 q 201 208 217 226 q 174 165 186 191 l 179 161 q 223 121 204 140 q 256 81 241 102 q 283 38 271 61 q 306 -12 295 16 q 315 -15 309 -14 q 328 -17 320 -17 q 376 -2 353 -17 q 416 32 399 12 q 444 73 433 52 q 454 107 454 94 q 454 113 454 111 q 453 118 453 116 z "},"K":{"ha":753,"x_min":39,"x_max":771,"o":"m 724 122 q 722 109 724 121 q 711 79 720 96 q 683 42 703 62 q 629 7 664 22 q 591 -6 608 -3 q 558 -9 574 -9 q 526 -5 540 -9 q 502 4 511 -1 q 487 14 492 9 q 481 20 481 18 l 476 24 l 475 31 q 469 84 473 60 q 457 131 465 108 q 436 176 449 153 q 407 227 424 199 l 393 240 l 393 248 q 390 283 392 265 q 383 319 387 302 q 292 228 329 279 l 292 212 q 297 144 292 178 q 315 75 302 110 l 318 68 l 315 62 q 308 51 315 61 q 286 27 301 40 q 243 5 270 15 q 176 -5 216 -5 q 110 5 136 -5 q 69 30 84 16 q 47 54 54 43 q 41 66 41 65 l 39 72 l 41 79 q 64 156 57 117 q 72 236 72 195 q 69 294 72 264 q 58 354 66 323 l 58 363 q 72 428 66 396 q 77 493 77 460 q 71 564 77 529 q 54 632 64 598 l 53 639 l 56 644 q 78 718 71 681 q 85 791 85 755 q 80 851 85 821 q 66 911 76 880 l 64 920 l 69 926 q 77 935 70 927 q 100 952 85 943 q 138 968 115 961 q 193 975 161 975 q 250 967 226 975 q 289 948 273 958 q 313 929 305 938 q 322 920 321 920 l 329 913 l 325 904 q 306 830 313 867 q 300 760 300 794 q 303 704 300 731 q 315 650 307 677 l 315 640 q 309 613 311 627 q 302 587 306 600 q 348 651 329 618 q 382 722 368 684 l 385 728 l 390 730 q 495 815 452 766 q 566 932 539 865 l 570 940 l 578 942 q 584 943 579 942 q 597 945 589 945 q 643 937 615 945 q 704 903 671 928 q 743 861 729 882 q 763 822 756 840 q 770 792 769 804 q 771 779 771 780 l 771 770 l 762 764 q 662 679 703 726 q 597 572 621 632 l 590 566 q 562 544 576 555 q 536 521 549 532 q 569 432 548 473 q 621 354 589 391 l 624 346 q 637 283 631 311 q 655 231 644 255 q 680 183 665 206 q 718 135 695 160 l 724 129 l 724 122 m 290 905 q 277 916 286 909 q 257 927 269 922 q 229 936 245 932 q 193 940 213 940 q 159 937 174 940 q 133 929 144 934 q 115 920 122 924 q 103 911 107 915 q 115 851 111 880 q 119 791 119 822 q 98 664 119 727 q 131 671 115 669 q 160 672 146 672 q 215 668 197 672 q 241 658 233 663 q 249 644 250 652 q 244 634 249 638 q 235 631 240 631 q 231 632 233 631 q 222 636 229 634 q 203 640 215 638 q 170 642 191 642 q 133 638 153 642 q 92 627 113 635 q 106 562 101 594 q 111 494 111 529 q 107 436 111 466 q 97 378 104 407 q 117 380 108 379 q 138 380 127 380 q 174 379 153 380 q 212 374 194 377 q 243 365 231 370 q 256 353 256 360 q 250 342 256 345 q 237 339 243 339 q 202 346 222 343 q 160 349 182 349 q 127 347 144 349 q 94 343 110 345 q 103 288 101 315 q 106 235 106 260 q 77 74 106 152 q 86 61 79 69 q 104 46 92 54 q 134 34 116 39 q 176 29 151 29 q 220 34 201 29 q 251 45 238 39 q 270 59 263 52 q 281 71 277 66 q 263 141 269 106 q 257 211 257 176 q 263 286 257 249 q 283 359 270 322 q 267 429 272 394 q 261 500 261 463 q 266 571 261 534 q 282 644 271 607 q 265 758 265 700 q 290 905 265 832 m 366 395 q 368 386 368 389 q 364 376 368 380 q 354 372 359 372 q 345 377 351 372 q 333 388 340 381 q 317 405 326 395 q 300 422 309 414 q 307 393 303 408 q 317 366 311 379 l 319 359 l 317 354 q 298 292 304 323 q 341 332 316 313 q 390 366 366 351 q 458 487 414 433 q 567 589 502 542 q 736 787 616 709 q 732 804 734 793 q 724 826 730 814 q 708 850 718 838 q 684 875 699 863 q 654 894 668 887 q 629 904 640 901 q 608 908 617 907 q 593 909 599 909 q 436 720 543 790 q 485 692 465 708 q 517 662 505 677 q 536 637 530 648 q 543 625 543 626 q 544 622 543 624 q 545 619 545 621 q 540 609 545 614 q 529 604 536 604 q 518 612 522 604 q 511 623 517 613 q 491 645 505 633 q 457 671 477 658 q 408 693 437 685 q 360 606 387 647 q 294 529 332 565 l 294 498 l 294 468 q 334 430 316 449 q 366 395 353 411 m 414 340 q 412 340 412 340 l 412 339 q 419 311 416 326 q 424 282 422 296 q 466 311 445 300 q 505 326 487 321 q 535 331 523 330 q 551 332 548 332 q 560 328 557 332 q 564 318 564 323 q 560 308 564 312 q 551 304 557 304 q 539 303 550 304 q 511 296 528 302 q 473 277 494 290 q 433 244 452 265 l 437 240 q 467 189 454 212 q 488 141 479 165 q 502 93 496 118 q 509 39 507 68 q 526 29 514 35 q 558 24 538 24 q 603 30 583 24 q 637 46 623 37 q 661 68 652 56 q 677 90 671 79 q 686 107 683 100 q 689 117 688 115 q 650 167 666 142 q 623 217 634 191 q 605 272 612 243 q 591 336 597 300 q 543 410 563 371 q 510 496 522 450 q 457 426 479 463 q 421 349 435 389 l 414 340 z "},"L":{"ha":650,"x_min":39,"x_max":677,"o":"m 677 132 q 669 79 677 102 q 651 40 661 56 q 632 16 641 24 q 623 7 623 7 l 615 1 l 607 4 q 465 29 534 29 q 353 12 408 29 l 343 12 q 313 20 330 17 q 281 26 297 23 q 239 6 264 15 q 176 -3 214 -3 q 110 8 136 -3 q 69 32 84 18 q 47 56 54 45 q 41 68 41 66 l 39 75 l 41 81 q 64 158 57 119 q 72 239 72 197 q 69 296 72 267 q 58 355 66 325 l 58 364 q 72 430 66 397 q 77 494 77 462 q 71 566 77 531 q 54 635 64 600 l 53 640 l 56 646 q 85 794 85 720 q 80 853 85 824 q 66 913 76 882 l 64 921 l 69 928 q 77 936 70 928 q 100 953 85 944 q 138 969 115 962 q 193 977 161 977 q 250 968 226 977 q 289 949 273 960 q 313 930 305 939 q 322 921 321 922 l 329 914 l 325 905 q 306 832 313 868 q 300 761 300 797 q 303 706 300 732 q 315 652 307 679 l 315 642 q 294 500 294 568 q 300 432 294 465 q 317 367 305 399 l 319 361 l 317 355 q 302 307 307 332 q 293 257 296 282 q 307 259 300 258 q 321 262 315 260 q 335 264 328 263 l 340 267 l 346 264 q 419 243 382 250 q 493 236 455 236 q 552 240 522 236 q 612 254 582 245 l 623 257 l 629 252 q 637 244 630 251 q 653 222 645 237 q 669 185 662 208 q 677 132 677 163 m 290 907 q 277 917 286 911 q 257 929 269 923 q 229 938 245 935 q 193 942 213 942 q 159 939 174 942 q 133 931 144 935 q 115 921 122 926 q 103 913 107 916 q 115 853 111 882 q 119 793 119 823 q 114 730 119 762 q 98 667 109 698 q 129 673 114 671 q 158 675 144 675 q 214 670 195 675 q 241 660 233 665 q 249 646 250 653 q 244 636 249 640 q 235 632 240 632 q 231 634 233 632 q 222 637 229 635 q 203 641 215 640 q 170 643 191 643 q 133 640 153 643 q 92 628 113 636 q 106 563 101 595 q 111 496 111 530 q 107 438 111 467 q 97 379 104 408 q 117 381 108 380 q 138 382 127 382 q 174 380 153 382 q 212 375 194 378 q 243 367 231 372 q 256 354 256 361 q 251 345 256 349 q 241 340 247 340 q 206 345 226 340 q 163 350 186 350 q 129 349 146 350 q 94 345 111 348 q 103 289 101 316 q 106 236 106 262 q 77 75 106 153 q 86 63 79 71 q 104 48 92 55 q 134 36 116 41 q 176 31 151 31 q 220 35 201 31 q 251 46 238 40 q 270 60 263 53 q 281 72 277 67 q 257 212 257 144 q 263 287 257 250 q 283 361 270 324 q 267 430 272 395 q 261 501 261 465 q 266 572 261 536 q 282 646 271 608 q 265 760 265 701 q 290 907 265 833 m 318 69 l 315 64 q 314 60 315 62 q 310 54 312 58 l 347 46 q 405 58 376 54 q 463 61 433 61 q 534 56 498 61 q 608 39 570 50 q 618 52 612 43 q 630 72 624 60 q 639 98 635 83 q 643 132 643 113 q 640 165 643 151 q 632 190 637 179 q 623 209 627 201 q 614 221 618 217 q 493 204 553 204 q 429 209 460 204 q 367 222 398 213 q 374 191 372 205 q 375 163 375 176 q 371 109 375 127 q 361 84 366 91 q 351 78 355 77 q 347 78 347 78 q 337 82 341 78 q 334 92 334 86 q 335 95 334 93 q 338 103 336 97 q 342 120 340 109 q 343 151 343 132 q 340 188 343 168 q 328 228 337 207 q 309 226 318 228 q 292 222 300 224 l 292 215 q 297 145 292 180 q 315 77 302 111 l 318 69 z "}}}
